<svg width="355" height="356" viewBox="0 0 355 356" fill="none" xmlns="http://www.w3.org/2000/svg">
<path d="M181.25 76.3298C185.77 76.3298 189.435 72.6652 189.435 68.1446C189.435 63.6241 185.77 59.9595 181.25 59.9595C176.729 59.9595 173.065 63.6241 173.065 68.1446C173.065 72.6652 176.729 76.3298 181.25 76.3298Z" fill="black"/>
<path d="M182.513 52.46C188.162 52.46 192.741 47.8809 192.741 42.2322C192.741 36.5835 188.162 32.0044 182.513 32.0044C176.864 32.0044 172.285 36.5835 172.285 42.2322C172.285 47.8809 176.864 52.46 182.513 52.46Z" fill="black"/>
<path d="M183.292 24.5554C190.073 24.5554 195.57 19.0585 195.57 12.2777C195.57 5.49692 190.073 0 183.292 0C176.512 0 171.015 5.49692 171.015 12.2777C171.015 19.0585 176.512 24.5554 183.292 24.5554Z" fill="#FBAE1A"/>
<path d="M104.617 40.1317C111.398 40.1317 116.895 34.6348 116.895 27.854C116.895 21.0732 111.398 15.5763 104.617 15.5763C97.836 15.5763 92.3391 21.0732 92.3391 27.854C92.3391 34.6348 97.836 40.1317 104.617 40.1317Z" fill="black"/>
<path d="M44.0439 91.7328C50.8247 91.7328 56.3216 86.2359 56.3216 79.4551C56.3216 72.6743 50.8247 67.1774 44.0439 67.1774C37.2631 67.1774 31.7662 72.6743 31.7662 79.4551C31.7662 86.2359 37.2631 91.7328 44.0439 91.7328Z" fill="#FBAE1A"/>
<path d="M12.2777 165.291C19.0585 165.291 24.5554 159.794 24.5554 153.013C24.5554 146.232 19.0585 140.735 12.2777 140.735C5.49692 140.735 0 146.232 0 153.013C0 159.794 5.49692 165.291 12.2777 165.291Z" fill="black"/>
<path d="M18.0521 244.941C24.8329 244.941 30.3298 239.444 30.3298 232.663C30.3298 225.882 24.8329 220.385 18.0521 220.385C11.2713 220.385 5.77435 225.882 5.77435 232.663C5.77435 239.444 11.2713 244.941 18.0521 244.941Z" fill="black"/>
<path d="M60.1471 312.667C66.9279 312.667 72.4248 307.17 72.4248 300.389C72.4248 293.608 66.9279 288.111 60.1471 288.111C53.3663 288.111 47.8694 293.608 47.8694 300.389C47.8694 307.17 53.3663 312.667 60.1471 312.667Z" fill="black"/>
<path d="M130.522 351.651C137.303 351.651 142.8 346.154 142.8 339.373C142.8 332.592 137.303 327.095 130.522 327.095C123.741 327.095 118.244 332.592 118.244 339.373C118.244 346.154 123.741 351.651 130.522 351.651Z" fill="#FBAE1A"/>
<path d="M210.28 355.621C217.061 355.621 222.558 350.124 222.558 343.343C222.558 336.562 217.061 331.065 210.28 331.065C203.5 331.065 198.003 336.562 198.003 343.343C198.003 350.124 203.5 355.621 210.28 355.621Z" fill="black"/>
<path d="M282.452 321.22C289.233 321.22 294.73 315.723 294.73 308.942C294.73 302.162 289.233 296.665 282.452 296.665C275.672 296.665 270.175 302.162 270.175 308.942C270.175 315.723 275.672 321.22 282.452 321.22Z" fill="black"/>
<path d="M330.452 257.219C337.233 257.219 342.729 251.722 342.729 244.941C342.729 238.16 337.233 232.663 330.452 232.663C323.671 232.663 318.174 238.16 318.174 244.941C318.174 251.722 323.671 257.219 330.452 257.219Z" fill="#FBAE1A"/>
<path d="M342.722 177.568C349.503 177.568 355 172.072 355 165.291C355 158.51 349.503 153.013 342.722 153.013C335.941 153.013 330.445 158.51 330.445 165.291C330.445 172.072 335.941 177.568 342.722 177.568Z" fill="black"/>
<path d="M318.174 102.502C324.955 102.502 330.452 97.0051 330.452 90.2243C330.452 83.4435 324.955 77.9465 318.174 77.9465C311.393 77.9465 305.896 83.4435 305.896 90.2243C305.896 97.0051 311.393 102.502 318.174 102.502Z" fill="black"/>
<path d="M261.116 46.9238C267.897 46.9238 273.394 41.4269 273.394 34.6461C273.394 27.8653 267.897 22.3684 261.116 22.3684C254.335 22.3684 248.839 27.8653 248.839 34.6461C248.839 41.4269 254.335 46.9238 261.116 46.9238Z" fill="#FBAE1A"/>
<path d="M245.489 70.6637C251.138 70.6637 255.717 66.0845 255.717 60.4358C255.717 54.7872 251.138 50.208 245.489 50.208C239.841 50.208 235.262 54.7872 235.262 60.4358C235.262 66.0845 239.841 70.6637 245.489 70.6637Z" fill="black"/>
<path d="M292.045 116.498C297.694 116.498 302.273 111.918 302.273 106.27C302.273 100.621 297.694 96.0419 292.045 96.0419C286.396 96.0419 281.817 100.621 281.817 106.27C281.817 111.918 286.396 116.498 292.045 116.498Z" fill="#FBAE1A"/>
<path d="M313.093 178.796C318.741 178.796 323.32 174.216 323.32 168.568C323.32 162.919 318.741 158.34 313.093 158.34C307.444 158.34 302.865 162.919 302.865 168.568C302.865 174.216 307.444 178.796 313.093 178.796Z" fill="black"/>
<path d="M302.865 242.891C308.513 242.891 313.093 238.312 313.093 232.663C313.093 227.014 308.513 222.435 302.865 222.435C297.216 222.435 292.637 227.014 292.637 232.663C292.637 238.312 297.216 242.891 302.865 242.891Z" fill="black"/>
<path d="M263.166 295.344C268.815 295.344 273.394 290.765 273.394 285.116C273.394 279.467 268.815 274.888 263.166 274.888C257.517 274.888 252.938 279.467 252.938 285.116C252.938 290.765 257.517 295.344 263.166 295.344Z" fill="black"/>
<path d="M203.979 323.732C209.628 323.732 214.207 319.153 214.207 313.504C214.207 307.855 209.628 303.276 203.979 303.276C198.33 303.276 193.751 307.855 193.751 313.504C193.751 319.153 198.33 323.732 203.979 323.732Z" fill="black"/>
<path d="M138.779 320.845C144.428 320.845 149.007 316.266 149.007 310.617C149.007 304.968 144.428 300.389 138.779 300.389C133.131 300.389 128.552 304.968 128.552 310.617C128.552 316.266 133.131 320.845 138.779 320.845Z" fill="black"/>
<path d="M82.6599 287.996C88.3086 287.996 92.8877 283.417 92.8877 277.768C92.8877 272.119 88.3086 267.54 82.6599 267.54C77.0112 267.54 72.4321 272.119 72.4321 277.768C72.4321 283.417 77.0112 287.996 82.6599 287.996Z" fill="black"/>
<path d="M47.292 232.663C52.9406 232.663 57.5198 228.084 57.5198 222.435C57.5198 216.787 52.9406 212.207 47.292 212.207C41.6433 212.207 37.0641 216.787 37.0641 222.435C37.0641 228.084 41.6433 232.663 47.292 232.663Z" fill="#FBAE1A"/>
<path d="M41.994 167.817C47.6427 167.817 52.2218 163.238 52.2218 157.589C52.2218 151.941 47.6427 147.362 41.994 147.362C36.3453 147.362 31.7662 151.941 31.7662 157.589C31.7662 163.238 36.3453 167.817 41.994 167.817Z" fill="black"/>
<path d="M67.4517 107.309C73.1003 107.309 77.6795 102.73 77.6795 97.0813C77.6795 91.4327 73.1003 86.8535 67.4517 86.8535C61.803 86.8535 57.2238 91.4327 57.2238 97.0813C57.2238 102.73 61.803 107.309 67.4517 107.309Z" fill="black"/>
<path d="M117.977 65.9287C123.626 65.9287 128.205 61.3495 128.205 55.7008C128.205 50.0522 123.626 45.473 117.977 45.473C112.329 45.473 107.749 50.0522 107.749 55.7008C107.749 61.3495 112.329 65.9287 117.977 65.9287Z" fill="black"/>
<path d="M232.497 91.8555C237.018 91.8555 240.682 88.1909 240.682 83.6704C240.682 79.1498 237.018 75.4852 232.497 75.4852C227.977 75.4852 224.312 79.1498 224.312 83.6704C224.312 88.1909 227.977 91.8555 232.497 91.8555Z" fill="#FBAE1A"/>
<path d="M270.752 128.667C275.273 128.667 278.937 125.002 278.937 120.482C278.937 115.961 275.273 112.297 270.752 112.297C266.232 112.297 262.567 115.961 262.567 120.482C262.567 125.002 266.232 128.667 270.752 128.667Z" fill="black"/>
<path d="M287.123 179.193C291.643 179.193 295.308 175.528 295.308 171.007C295.308 166.487 291.643 162.822 287.123 162.822C282.602 162.822 278.937 166.487 278.937 171.007C278.937 175.528 282.602 179.193 287.123 179.193Z" fill="black"/>
<path d="M278.937 230.62C283.458 230.62 287.122 226.956 287.122 222.435C287.122 217.915 283.458 214.25 278.937 214.25C274.417 214.25 270.752 217.915 270.752 222.435C270.752 226.956 274.417 230.62 278.937 230.62Z" fill="black"/>
<path d="M246.817 273.567C251.338 273.567 255.003 269.903 255.003 265.382C255.003 260.862 251.338 257.197 246.817 257.197C242.297 257.197 238.632 260.862 238.632 265.382C238.632 269.903 242.297 273.567 246.817 273.567Z" fill="black"/>
<path d="M199.179 295.943C203.7 295.943 207.364 292.278 207.364 287.758C207.364 283.237 203.7 279.573 199.179 279.573C194.659 279.573 190.994 283.237 190.994 287.758C190.994 292.278 194.659 295.943 199.179 295.943Z" fill="#FBAE1A"/>
<path d="M145.766 294.138C150.287 294.138 153.951 290.474 153.951 285.953C153.951 281.433 150.287 277.768 145.766 277.768C141.246 277.768 137.581 281.433 137.581 285.953C137.581 290.474 141.246 294.138 145.766 294.138Z" fill="black"/>
<path d="M99.5715 267.432C104.092 267.432 107.757 263.767 107.757 259.247C107.757 254.726 104.092 251.062 99.5715 251.062C95.051 251.062 91.3864 254.726 91.3864 259.247C91.3864 263.767 95.051 267.432 99.5715 267.432Z" fill="#FBAE1A"/>
<path d="M71.4215 222.435C75.9421 222.435 79.6067 218.771 79.6067 214.25C79.6067 209.73 75.9421 206.065 71.4215 206.065C66.901 206.065 63.2364 209.73 63.2364 214.25C63.2364 218.771 66.901 222.435 71.4215 222.435Z" fill="black"/>
<path d="M67.4517 169.383C71.9722 169.383 75.6368 165.719 75.6368 161.198C75.6368 156.678 71.9722 153.013 67.4517 153.013C62.9311 153.013 59.2665 156.678 59.2665 161.198C59.2665 165.719 62.9311 169.383 67.4517 169.383Z" fill="black"/>
<path d="M87.7918 120.482C92.3124 120.482 95.977 116.817 95.977 112.297C95.977 107.776 92.3124 104.112 87.7918 104.112C83.2713 104.112 79.6067 107.776 79.6067 112.297C79.6067 116.817 83.2713 120.482 87.7918 120.482Z" fill="black"/>
<path d="M129.396 87.6403C133.917 87.6403 137.581 83.9757 137.581 79.4552C137.581 74.9346 133.917 71.27 129.396 71.27C124.875 71.27 121.211 74.9346 121.211 79.4552C121.211 83.9757 124.875 87.6403 129.396 87.6403Z" fill="black"/>
</svg>
