<svg width="123" height="77" viewBox="0 0 123 77" fill="none" xmlns="http://www.w3.org/2000/svg">
<path d="M23.5275 46.8832C23.5297 47.0472 23.5193 47.2111 23.4964 47.3735C23.4915 47.4804 23.4666 47.5855 23.423 47.6832C23.396 47.7504 23.3542 47.8106 23.3007 47.8593C23.2584 47.8946 23.2065 47.9164 23.1517 47.9217H19.0484V51.2932H22.907C22.9657 51.2923 23.0226 51.3129 23.0672 51.3511C23.1178 51.4022 23.1565 51.4638 23.1806 51.5316C23.2226 51.6247 23.2489 51.7241 23.2584 51.8258C23.2766 51.9848 23.284 52.1449 23.2807 52.3049C23.2837 52.4671 23.2762 52.6294 23.2584 52.7907C23.2443 52.9002 23.2182 53.0078 23.1806 53.1116C23.1565 53.1774 23.1177 53.2368 23.0672 53.2854C23.0221 53.3225 22.9653 53.3422 22.907 53.3411H19.0484V58.0207C19.0512 58.0914 19.0309 58.161 18.9906 58.219C18.9381 58.2826 18.8675 58.3284 18.7882 58.3505C18.6793 58.375 18.5547 58.4062 18.3835 58.4307C18.1795 58.4515 17.9746 58.4612 17.7696 58.4597C17.5662 58.4606 17.3628 58.4509 17.1603 58.4307C16.9935 58.4062 16.8623 58.375 16.76 58.3505C16.6812 58.3287 16.6112 58.2827 16.5598 58.219C16.5131 58.1639 16.4892 58.0929 16.4931 58.0207V46.6559C16.4844 46.5425 16.4997 46.4284 16.5381 46.3213C16.5764 46.2142 16.6368 46.1163 16.7155 46.0342C16.8681 45.9079 17.0602 45.8393 17.2581 45.8403H23.1517C23.2052 45.8464 23.2563 45.8656 23.3007 45.8961C23.3498 45.9493 23.391 46.0093 23.423 46.0743C23.4674 46.1749 23.4923 46.2831 23.4964 46.393C23.5185 46.5554 23.5289 46.7193 23.5275 46.8832Z" fill="white"/>
<path d="M33.0795 57.8692C33.0789 57.9338 33.057 57.9965 33.0173 58.0474C32.9632 58.1097 32.892 58.1546 32.8127 58.1767C32.7148 58.2012 32.5903 58.2324 32.4235 58.2569C32.2173 58.2772 32.0102 58.2869 31.803 58.2859C31.5965 58.2866 31.3902 58.2769 31.1847 58.2569C31.0564 58.2381 30.9294 58.2113 30.8044 58.1767C30.7179 58.1599 30.6395 58.1144 30.582 58.0474C30.5594 58.0238 30.5418 57.9959 30.5303 57.9652C30.5188 57.9346 30.5137 57.9019 30.5153 57.8692V46.0186C30.5167 45.952 30.5402 45.8877 30.582 45.8359C30.6427 45.7743 30.72 45.7317 30.8044 45.7133C30.9287 45.6764 31.0559 45.6503 31.1847 45.6353C31.39 45.6132 31.5965 45.6043 31.803 45.6086C32.0102 45.604 32.2174 45.6129 32.4235 45.6353C32.5551 45.6508 32.6852 45.6769 32.8127 45.7133C32.8899 45.7367 32.9601 45.7788 33.0173 45.8359C33.0532 45.8905 33.0747 45.9534 33.0795 46.0186V57.8692Z" fill="white"/>
<path d="M49.1078 46.7156C49.1096 46.8793 49.1021 47.043 49.0856 47.2059C49.0724 47.3117 49.047 47.4157 49.01 47.5156C48.9872 47.5833 48.9474 47.644 48.8943 47.6917C48.8478 47.7241 48.7946 47.7454 48.7386 47.7541H45.5917V57.8709C45.5941 57.9032 45.5901 57.9356 45.5798 57.9662C45.5695 57.9968 45.5531 58.025 45.5316 58.0492C45.4746 58.1167 45.396 58.1624 45.3092 58.1784C45.1848 58.212 45.0585 58.2388 44.9312 58.2587C44.7235 58.2788 44.5149 58.2885 44.3062 58.2876C44.102 58.2882 43.8979 58.2786 43.6946 58.2587C43.5323 58.2342 43.3988 58.203 43.2988 58.1784C43.2172 58.1587 43.144 58.1134 43.0897 58.0492C43.0514 57.998 43.0324 57.9348 43.0363 57.8709V47.7541H39.9005C39.8381 47.7494 39.7781 47.7279 39.727 47.6917C39.6769 47.6424 39.6389 47.5821 39.6158 47.5156C39.5824 47.415 39.5593 47.3112 39.5469 47.2059C39.5293 47.0431 39.5226 46.8793 39.5269 46.7156C39.5226 46.5483 39.5293 46.3808 39.5469 46.2143C39.5572 46.1057 39.5804 45.9987 39.6158 45.8956C39.6437 45.8309 39.6812 45.7708 39.727 45.7173C39.7801 45.6861 39.8393 45.6671 39.9005 45.6616H48.7364C48.7912 45.6708 48.8439 45.6896 48.8921 45.7173C48.9409 45.7694 48.98 45.8298 49.0077 45.8956C49.047 45.998 49.0724 46.1051 49.0834 46.2143C49.1007 46.3808 49.1089 46.5482 49.1078 46.7156Z" fill="white"/>
<path d="M65.4874 57.3405C65.4869 57.4729 65.4605 57.6039 65.4096 57.726C65.3631 57.8394 65.2925 57.9413 65.2027 58.0246C65.108 58.0957 65.004 58.1534 64.8936 58.1962C64.7751 58.2275 64.6536 58.2462 64.5311 58.2519H63.4458C63.2486 58.2554 63.0521 58.2283 62.8631 58.1717C62.6897 58.1319 62.53 58.0465 62.4005 57.9244C62.2454 57.78 62.1107 57.6151 62.0002 57.4341C61.8308 57.1845 61.6821 56.9214 61.5554 56.6475L58.4418 50.7735C58.2773 50.4169 58.0882 50.0581 57.8925 49.6593C57.6968 49.2604 57.5344 48.8504 57.3899 48.4805H57.3699C57.3921 48.9395 57.4188 49.3985 57.4344 49.8554C57.4499 50.3122 57.4344 50.798 57.4344 51.2949V57.862C57.4396 57.9264 57.4231 57.9907 57.3877 58.0447C57.3453 58.1087 57.2813 58.1554 57.2075 58.1762C57.0909 58.211 56.972 58.2378 56.8517 58.2564C56.6596 58.2768 56.4666 58.2865 56.2734 58.2853C56.0885 58.2861 55.9036 58.2764 55.7197 58.2564C55.6011 58.2363 55.4838 58.2095 55.3683 58.1762C55.2949 58.1405 55.2259 58.1004 55.2059 58.0447C55.1684 57.9913 55.1489 57.9273 55.1503 57.862V46.573C55.1443 46.4474 55.1643 46.3221 55.2091 46.2047C55.2539 46.0873 55.3225 45.9805 55.4105 45.8911C55.5965 45.733 55.8339 45.6489 56.0777 45.6549H57.4388C57.647 45.6565 57.8543 45.6812 58.0571 45.7284C58.2222 45.7625 58.3756 45.8393 58.5019 45.9512C58.6488 46.0594 58.7753 46.193 58.8755 46.3457C59.0091 46.5486 59.1295 46.76 59.2358 46.9785L61.6822 51.5645C61.8312 51.8431 61.9713 52.1216 62.1047 52.3846C62.2382 52.6475 62.3805 52.9305 62.5139 53.2002C62.6474 53.4698 62.7653 53.7372 62.8809 53.9868C62.9965 54.2364 63.13 54.506 63.2456 54.7578C63.2323 54.3121 63.2123 53.8464 63.2012 53.3472V46.0515C63.1954 45.9888 63.2111 45.9259 63.2456 45.8732C63.3015 45.8111 63.3718 45.7636 63.4502 45.7351C63.5617 45.6894 63.6794 45.6608 63.7994 45.6504C63.9551 45.637 64.1375 45.6147 64.3665 45.6147C64.5956 45.6147 64.7757 45.637 64.9247 45.6504C65.0461 45.6612 65.1652 45.6897 65.2784 45.7351C65.3441 45.7653 65.4003 45.8131 65.4407 45.8732C65.4748 45.9262 65.4911 45.9886 65.4874 46.0515V57.3405Z" fill="white"/>
<path d="M80.2079 57.2226C80.2079 57.3811 80.1997 57.5396 80.1835 57.6973C80.1702 57.799 80.1464 57.8991 80.1123 57.9959C80.086 58.0629 80.0458 58.1237 79.9944 58.1741C79.9445 58.2001 79.8902 58.2168 79.8343 58.2231H73.5404C73.3388 58.2259 73.1427 58.1572 72.9867 58.0293C72.9127 57.945 72.8564 57.8468 72.8209 57.7404C72.7853 57.6341 72.7714 57.5216 72.7798 57.4098V46.4729C72.7712 46.3607 72.7851 46.2479 72.8206 46.1411C72.8561 46.0343 72.9126 45.9357 72.9867 45.8511C73.143 45.7237 73.3389 45.6551 73.5404 45.6573H79.7854C79.8434 45.6648 79.8993 45.6838 79.95 45.713C80.0037 45.7575 80.0413 45.8186 80.0567 45.8868C80.1013 45.9849 80.1256 46.091 80.1279 46.1988C80.1523 46.355 80.1612 46.5132 80.1546 46.6712C80.1609 46.8255 80.1519 46.98 80.1279 47.1325C80.1273 47.2354 80.1029 47.3369 80.0567 47.4288C80.0402 47.4978 80.003 47.5601 79.95 47.6071C79.9273 47.6262 79.9011 47.6406 79.8728 47.6494C79.8446 47.6582 79.8148 47.6612 79.7854 47.6584H75.3107V50.7291H79.1048C79.1629 50.7319 79.2184 50.7539 79.2627 50.7915C79.3185 50.8277 79.3589 50.8832 79.3762 50.9475C79.4193 51.0424 79.4449 51.1443 79.4518 51.2483C79.4745 51.4002 79.4856 51.5537 79.4851 51.7073C79.4855 51.8654 79.4743 52.0233 79.4518 52.1798C79.4436 52.2814 79.418 52.3809 79.3762 52.4739C79.3584 52.5373 79.318 52.592 79.2627 52.6277C79.2186 52.6651 79.1627 52.6856 79.1048 52.6856H75.3107V56.2221H79.841C79.8983 56.2226 79.9541 56.2405 80.0011 56.2733C80.0458 56.3234 80.0852 56.3779 80.119 56.436C80.1524 56.5352 80.1762 56.6375 80.1902 56.7413C80.2042 56.9013 80.2101 57.062 80.2079 57.2226Z" fill="white"/>
<path d="M94.8396 54.4598C94.8496 55.0573 94.7217 55.6491 94.466 56.189C94.2343 56.6782 93.8915 57.1063 93.4652 57.4391C93.0267 57.7832 92.5271 58.0411 91.9929 58.199C91.4117 58.3707 90.8086 58.457 90.2026 58.4553C89.7969 58.4537 89.3922 58.4171 88.9928 58.3461C88.6601 58.2805 88.3313 58.1972 88.0075 58.0965C87.7615 57.999 87.5216 57.8866 87.2892 57.76C87.1448 57.682 87.0098 57.5878 86.8866 57.4792C86.7976 57.3763 86.735 57.2531 86.7043 57.1205C86.6678 56.8929 86.6544 56.6622 86.6642 56.4319C86.6642 56.2336 86.6642 56.0575 86.6642 55.9238C86.6768 55.8114 86.6991 55.7003 86.731 55.5918C86.7629 55.5264 86.8024 55.4651 86.8488 55.4091C86.9021 55.3809 86.9625 55.3692 87.0223 55.3756C87.1631 55.3839 87.2974 55.4379 87.4048 55.5294C87.5739 55.6185 87.7829 55.7522 88.0387 55.8748C88.3388 56.0117 88.647 56.13 88.9616 56.2291C89.3673 56.3405 89.7865 56.3945 90.2071 56.3895C90.4916 56.3951 90.7753 56.356 91.0477 56.2737C91.2696 56.2011 91.4794 56.096 91.6704 55.9617C91.837 55.8239 91.9714 55.6513 92.0641 55.4559C92.1562 55.2381 92.2024 55.0037 92.1997 54.7673C92.2061 54.5118 92.1235 54.262 91.9662 54.0609C91.8029 53.8403 91.6001 53.6521 91.368 53.506C91.0969 53.3344 90.8102 53.1889 90.5117 53.0715C90.2004 52.9244 89.8623 52.7773 89.5399 52.6258C89.2174 52.4743 88.8727 52.3094 88.5502 52.1088C88.2356 51.9044 87.9512 51.6569 87.7051 51.3734C87.4461 51.0904 87.2377 50.7648 87.089 50.4108C86.9353 49.9821 86.8599 49.5292 86.8666 49.0738C86.851 48.5264 86.9637 47.9829 87.1958 47.4872C87.4104 47.0462 87.7204 46.6588 88.1032 46.3529C88.501 46.0427 88.9537 45.8106 89.4376 45.6688C89.9687 45.5226 90.5169 45.4477 91.0677 45.4459C91.6529 45.437 92.2357 45.5228 92.7935 45.7C93.0327 45.764 93.2645 45.8529 93.4852 45.9652C93.6292 46.025 93.7634 46.1061 93.8833 46.2058C93.9324 46.2518 93.9731 46.3062 94.0034 46.3663C94.0355 46.4219 94.0566 46.4832 94.0657 46.5468C94.0883 46.6379 94.0995 46.7314 94.099 46.8253V47.7167C94.0857 47.8504 94.0657 47.9618 94.0568 48.0442C94.0338 48.1115 93.9966 48.1731 93.9478 48.2247C93.9266 48.2484 93.8998 48.2662 93.8699 48.2768C93.8399 48.2873 93.8078 48.2901 93.7766 48.2849C93.6597 48.2664 93.5487 48.2215 93.4519 48.1534C93.2873 48.0621 93.096 47.9618 92.8758 47.8481C92.6183 47.7367 92.3547 47.64 92.0863 47.5585C91.7714 47.4661 91.4448 47.4203 91.1167 47.4225C90.8682 47.4223 90.6207 47.4546 90.3805 47.5183C90.19 47.5808 90.0138 47.6809 89.8623 47.8125C89.7266 47.9299 89.6219 48.0792 89.5577 48.247C89.4892 48.4138 89.4552 48.5927 89.4576 48.7729C89.4477 49.0319 89.5261 49.2866 89.68 49.4949C89.8455 49.7121 90.0527 49.8939 90.2893 50.0297C90.5648 50.1981 90.8517 50.347 91.1478 50.4754C91.4747 50.6113 91.815 50.7629 92.1375 50.9211C92.482 51.0754 92.8163 51.2518 93.1383 51.4492C93.4562 51.6447 93.7445 51.8849 93.9945 52.1623C94.2533 52.4442 94.4583 52.7712 94.5994 53.1272C94.7731 53.5492 94.855 54.0035 94.8396 54.4598Z" fill="white"/>
<path d="M108.78 54.4597C108.798 55.0583 108.669 55.6523 108.404 56.1889C108.171 56.6749 107.832 57.1021 107.412 57.439C106.972 57.7809 106.473 58.0386 105.94 58.1989C105.355 58.3715 104.748 58.4578 104.138 58.4552C103.735 58.453 103.332 58.4165 102.935 58.346C102.603 58.2806 102.275 58.1973 101.952 58.0964C101.706 57.9995 101.467 57.8871 101.236 57.7599C101.091 57.68 100.955 57.586 100.829 57.4791C100.734 57.3806 100.672 57.2554 100.651 57.1204C100.616 56.8925 100.599 56.6623 100.6 56.4318C100.593 56.2621 100.602 56.0921 100.624 55.9237C100.627 55.8113 100.644 55.6997 100.675 55.5917C100.7 55.5227 100.741 55.4602 100.793 55.409C100.847 55.3809 100.908 55.3692 100.969 55.3755C101.106 55.3848 101.237 55.4388 101.34 55.5293C101.507 55.6184 101.723 55.7521 101.974 55.8747C102.28 56.0117 102.595 56.13 102.915 56.229C103.317 56.3408 103.732 56.3948 104.149 56.3895C104.432 56.3963 104.713 56.3572 104.983 56.2736C105.208 56.2049 105.42 56.0995 105.61 55.9616C105.776 55.8233 105.911 55.6507 106.004 55.4558C106.092 55.2371 106.136 55.003 106.133 54.7672C106.139 54.511 106.055 54.2608 105.895 54.0608C105.739 53.8373 105.538 53.6484 105.306 53.5059C105.037 53.3378 104.754 53.1924 104.461 53.0714C104.131 52.9243 103.793 52.7772 103.487 52.6257C103.147 52.4723 102.817 52.2996 102.497 52.1087C102.183 51.9081 101.901 51.66 101.663 51.3734C101.395 51.0967 101.184 50.7695 101.042 50.4107C100.701 49.4568 100.738 48.4081 101.145 47.4804C101.354 47.0368 101.664 46.6484 102.05 46.3461C102.447 46.0355 102.9 45.8033 103.384 45.662C103.915 45.5167 104.462 45.4417 105.012 45.4392C105.31 45.4366 105.607 45.4567 105.902 45.4993C106.188 45.5418 106.471 45.6067 106.747 45.6932C106.984 45.7578 107.215 45.8467 107.434 45.9584C107.577 46.0184 107.709 46.0995 107.828 46.1991C107.88 46.2463 107.925 46.3003 107.963 46.3595C107.987 46.4171 108.002 46.4779 108.008 46.54C108.032 46.631 108.045 46.7245 108.048 46.8186C108.048 46.9389 108.048 47.0681 108.048 47.2397C108.048 47.4113 108.048 47.5873 108.048 47.7144C108.048 47.825 108.033 47.9352 108.003 48.0419C107.99 48.1126 107.952 48.1764 107.897 48.2224C107.877 48.245 107.851 48.2623 107.823 48.2728C107.795 48.2833 107.764 48.2866 107.734 48.2826C107.612 48.2628 107.494 48.218 107.39 48.1511C107.245 48.0598 107.054 47.9595 106.831 47.8458C106.574 47.7342 106.31 47.6375 106.042 47.5561C105.721 47.4644 105.388 47.4186 105.054 47.4202C104.811 47.4196 104.569 47.4519 104.334 47.516C104.14 47.5757 103.961 47.676 103.809 47.8102C103.67 47.925 103.565 48.0751 103.504 48.2447C103.44 48.4123 103.409 48.5911 103.415 48.7706C103.406 49.0278 103.48 49.281 103.627 49.4926C103.793 49.7134 104.004 49.8958 104.247 50.0274C104.521 50.1981 104.808 50.3471 105.106 50.4731C105.43 50.609 105.773 50.7606 106.097 50.9188C106.436 51.0746 106.764 51.251 107.08 51.4469C107.404 51.6376 107.696 51.8783 107.946 52.16C108.205 52.4424 108.411 52.7692 108.555 53.1249C108.72 53.5498 108.796 54.0041 108.78 54.4597Z" fill="white"/>
<path d="M0 33.2876L13.7442 0H21.8662L35.6082 33.2876H27.3439L24.1636 25.5529H11.5069L8.3177 33.2876H0ZM17.8297 7.99099L13.0993 19.6098H22.5668L17.8297 7.99099Z" fill="white"/>
<path d="M37.3429 0H44.7599V18.6605C44.7599 21.4438 44.7443 23.6476 45.6495 25.0582C46.7437 26.7674 49.11 27.349 53.3423 27.349H59.396V33.2876H50.1019C48.5741 33.2876 42.6805 33.4904 39.7159 30.4197C37.1717 27.7791 37.3407 24.1802 37.3407 18.6605L37.3429 0Z" fill="white"/>
<path d="M87.636 0V5.93419H78.431C74.5991 5.93419 73.0934 6.07458 71.1408 7.56314C70.0732 8.36982 68.9702 10.7163 68.9702 13.767H84.2267V19.7145H68.9702C68.9702 22.656 70.0955 24.5256 71.461 25.7022C73.3914 27.3579 75.2974 27.349 78.7334 27.349H87.6294V33.2876H78.431C72.8087 33.2876 69.7797 33.1495 65.8788 30.0364C62.5829 27.4136 60.9482 22.9056 60.9482 16.4611C60.9482 10.8901 62.4205 6.7119 65.2227 3.83951C68.2474 0.77325 71.2609 0 75.6977 0H87.636Z" fill="white"/>
<path d="M102.879 16.4589L91.9706 0H100.644L107.167 10.9191L114.246 0H122.799L111.553 16.4589L122.802 33.2854H114.491L107.165 21.8582L99.9947 33.2876H91.5747L102.879 16.4589Z" fill="white"/>
<path d="M80.8152 70.6153V76.5518H88.3923V70.6153H80.8152Z" fill="#A72577"/>
<path d="M0 70.6154L0 76.5518H22.0975V70.6154H0Z" fill="#E11A2C"/>
<path d="M76.0803 70.6153V76.5518H80.8152V70.6153H76.0803Z" fill="#007AC1"/>
<path d="M90.2849 70.6153V76.5518H122.8V70.6153H90.2849Z" fill="#EE3D96"/>
<path d="M88.3922 70.6153V76.5518H89.3396V70.6153H88.3922Z" fill="#EE3D96"/>
<path d="M89.3396 70.6153V76.5518H90.287V70.6153H89.3396Z" fill="#A72577"/>
<path d="M29.3588 70.6153V76.5518H37.2517V70.6153H29.3588Z" fill="#FDB515"/>
<path d="M41.9866 70.6129V76.5493H54.2985V70.6129H41.9866Z" fill="#B1D355"/>
<path d="M22.0975 70.6154V76.5518H29.3588V70.6154H22.0975Z" fill="#F47932"/>
<path d="M54.2964 70.6129V76.5493H61.8735V70.6129H54.2964Z" fill="#00A14B"/>
<path d="M39.1443 70.6154V76.5518H41.9865V70.6154H39.1443Z" fill="#FFE22E"/>
<path d="M61.8757 70.6153V76.5518H74.1877V70.6153H61.8757Z" fill="#4FC6E0"/>
<path d="M74.1854 70.6153V76.5518H75.1417V70.6153H74.1854Z" fill="#007AC1"/>
<path d="M75.1328 70.6153V76.5518H76.0891V70.6153H75.1328Z" fill="#4FC6E0"/>
<path d="M59.9808 70.6153V76.5518H60.9283V70.6153H59.9808Z" fill="#4FC6E0"/>
<path d="M20.196 70.6129V76.5493H21.1501V70.6129H20.196Z" fill="#F47932"/>
<path d="M37.2517 70.6154V76.5518H38.1991V70.6154H37.2517Z" fill="#FFE22E"/>
<path d="M38.1991 70.6154V76.5518H39.1465V70.6154H38.1991Z" fill="#FDB515"/>
</svg>
