<svg width="137" height="31" viewBox="0 0 137 31" fill="none" xmlns="http://www.w3.org/2000/svg">
<path fill-rule="evenodd" clip-rule="evenodd" d="M136.043 18.5695V17.9108C136.043 17.3838 135.912 16.9886 135.648 16.7251C135.385 16.4616 134.99 16.3298 134.464 16.3298L132.753 16.4616C132.621 16.4616 132.621 16.4616 132.49 16.5933C132.358 16.5933 132.226 16.7251 132.095 16.7251C131.963 16.7251 131.963 16.7251 131.832 16.5933C131.7 16.4616 131.568 16.4616 131.437 16.4616C130.91 16.4616 130.252 16.7251 129.463 17.2521C129.331 17.3838 129.068 17.5156 128.936 17.6473C128.804 17.779 128.673 17.779 128.541 17.9108C128.41 18.0425 128.278 18.0425 128.278 18.0425H127.883C127.62 18.0425 127.488 17.9108 127.357 17.779L127.094 17.6473C127.094 17.6473 127.094 17.5156 126.962 17.5156H126.83C126.83 17.5156 126.699 17.5156 126.699 17.3838C126.567 17.3838 126.567 17.2521 126.435 17.2521C126.304 17.2521 126.304 17.1203 126.172 17.1203H125.909C125.777 17.1203 125.646 17.1203 125.514 17.2521C124.725 17.3838 124.198 17.779 123.803 18.5695C123.803 18.7013 123.672 18.833 123.672 18.9648C123.54 19.0965 123.54 19.36 123.408 19.4918C123.277 19.6235 123.277 19.887 123.145 20.0187C123.014 20.1505 123.014 20.2822 123.014 20.414L120.776 24.4981C120.645 24.6299 120.645 24.7616 120.513 24.8934L120.118 25.2886C119.986 25.5521 119.855 25.6838 119.723 25.8156C119.592 25.9473 119.592 26.0791 119.46 26.2108L119.065 27.0013C118.934 27.2648 118.934 27.5283 118.934 27.7918C118.934 27.9235 119.065 28.0553 119.197 28.187C119.328 28.3188 119.592 28.4505 119.855 28.714C120.118 28.8458 120.25 28.9775 120.513 29.1093C120.776 29.241 120.908 29.241 120.908 29.241C121.039 29.241 121.039 29.241 121.171 29.1093C121.303 29.1093 121.434 28.9775 121.566 28.9775C121.697 28.9775 121.829 28.8458 121.961 28.8458H122.092L122.355 28.714L122.487 28.5823L123.277 27.9235C123.277 27.9235 123.408 27.7918 123.408 27.66L123.672 27.3966C123.803 27.2648 123.803 27.1331 123.935 27.1331C124.066 27.0013 124.066 27.0013 124.066 26.8696L124.198 26.7378L124.33 26.6061V26.4743C124.461 26.3426 124.461 26.2108 124.593 26.0791C124.725 25.9473 124.725 25.8156 124.856 25.6838C124.988 25.5521 124.988 25.4204 125.119 25.2886C125.251 25.1569 125.251 25.1569 125.383 25.1569C125.514 25.1569 125.646 25.2886 125.777 25.4204C125.909 25.6838 126.041 25.8156 126.304 26.2108L126.699 27.0013C126.83 27.2648 126.962 27.3966 126.962 27.5283C127.62 28.3188 128.41 28.714 129.463 28.714C129.463 28.5823 129.594 28.4505 129.726 28.4505C129.857 28.4505 129.989 28.5823 130.384 28.714C130.515 28.714 130.515 28.714 130.647 28.5823C130.779 28.5823 130.91 28.4505 131.042 28.3188C131.173 28.187 131.305 28.187 131.305 28.0553C131.437 27.9235 131.437 27.9235 131.437 27.7918C131.437 27.7918 131.437 27.66 131.305 27.5283C131.173 27.3966 131.173 27.3966 131.173 27.2648C131.173 27.1331 131.042 27.1331 131.042 27.1331H131.305C131.305 27.1331 131.437 27.2648 131.437 27.3966L131.7 27.66C131.832 27.7918 131.832 27.7918 131.963 27.7918H132.095V27.3966L132.226 27.2648V27.0013L132.095 26.8696C131.963 26.7378 131.832 26.4743 131.7 26.3426C131.568 26.0791 131.437 25.9473 131.305 25.6838C131.173 25.5521 131.042 25.2886 130.91 25.1569C131.042 25.1569 131.042 25.1569 130.91 25.1569C130.91 25.1569 130.91 25.0251 130.779 24.8934C130.779 24.7616 130.647 24.7616 130.515 24.6299L130.252 24.3664C130.252 24.2346 130.121 24.2346 130.121 24.2346C130.121 24.1029 130.252 23.9711 130.515 23.9711L130.647 23.8394C130.647 23.8394 130.779 23.8394 130.779 23.7076L130.91 23.5759C131.042 23.5759 131.042 23.4442 131.173 23.4442C131.305 23.4442 131.305 23.3124 131.437 23.3124L131.7 23.0489L131.963 22.9172V22.5219H132.621V22.7854L132.49 22.9172C132.358 22.9172 132.358 23.0489 132.226 23.0489C132.095 23.0489 132.095 23.1807 131.963 23.1807V23.3124C131.963 23.3124 131.963 23.4442 131.832 23.4442C131.7 23.4442 131.7 23.5759 131.7 23.5759C131.7 23.5759 131.568 23.5759 131.568 23.7076H131.963L132.095 23.5759L132.226 23.4442L132.358 23.3124H133.016C133.148 23.3124 133.279 23.1807 133.411 23.0489C133.543 22.9172 133.674 22.7854 133.806 22.5219C133.937 22.3902 134.069 22.1267 134.069 21.9949C134.201 21.8632 134.332 21.7314 134.464 21.7314C134.595 21.7314 134.727 21.5997 134.727 21.468C134.859 21.3362 134.859 21.2045 134.99 21.0727C134.99 20.941 135.122 20.8092 135.122 20.6775C135.122 20.5457 135.122 20.5457 135.253 20.414L135.517 19.887V19.7552C135.517 19.6235 135.517 19.6235 135.648 19.4918C135.648 19.36 135.648 19.36 135.78 19.2283C135.78 19.2283 135.78 19.0965 135.78 19.2283C135.78 19.0965 135.912 19.0965 135.912 18.9648L136.043 18.7013V18.5695C136.043 18.7013 136.043 18.7013 136.043 18.5695C136.043 18.5695 135.912 18.5695 136.043 18.5695ZM132.358 18.1743C131.963 19.36 131.305 20.2822 130.515 20.941L126.567 23.7076C126.435 23.8394 126.304 23.8394 126.304 23.7076V23.4442L128.673 20.8092L129.463 20.0187C129.726 19.7552 129.857 19.4918 130.121 19.36C130.384 19.0965 130.515 18.9648 130.779 18.833C130.779 18.5695 130.91 18.5695 131.042 18.5695C131.173 18.5695 131.173 18.5695 131.173 18.4378C131.173 18.4378 131.173 18.306 131.042 18.306L130.91 18.1743C130.91 18.1743 130.91 18.0425 131.042 18.0425C131.173 17.9108 131.173 17.9108 131.042 17.779C130.91 17.6473 130.91 17.6473 130.91 17.5156H131.437L131.568 17.3838L131.7 17.2521H131.832C131.963 17.2521 132.095 17.3838 132.095 17.5156C132.49 17.779 132.358 17.9108 132.358 18.1743ZM119.065 24.8934C119.065 24.8934 119.065 24.7616 118.934 24.7616C118.934 24.6299 118.802 24.6299 118.802 24.6299C118.802 24.6299 118.67 24.4981 118.67 24.6299C118.67 24.6299 118.539 24.6299 118.539 24.7616C118.407 24.7616 118.407 24.6299 118.407 24.4981C118.407 24.3664 118.407 24.1029 118.539 23.8394C118.67 23.5759 118.802 23.1807 119.065 22.7854C119.328 22.3902 119.592 21.9949 119.855 21.468L121.303 19.36C121.566 18.9648 121.697 18.7013 121.697 18.306C121.697 18.1743 121.697 18.0425 121.566 17.9108C121.566 17.5156 121.566 17.3838 121.434 17.2521L121.303 16.9886L120.513 16.5933C120.25 16.4616 119.986 16.3298 119.723 16.3298H119.592C119.46 16.1981 119.328 16.1981 119.197 16.0663C119.065 15.9346 119.065 15.9346 118.934 15.9346C118.802 15.9346 118.802 15.8028 118.67 15.8028H117.881C117.749 15.8028 117.617 15.9346 117.354 15.9346C117.223 16.0663 116.959 16.0663 116.828 16.1981C116.17 16.5933 115.38 17.2521 114.459 18.0425L109.458 22.7854C109.458 22.7854 109.194 22.9172 109.063 22.9172H107.22C106.957 22.9172 106.694 23.0489 106.562 23.0489C106.299 23.1807 106.299 23.3124 106.299 23.5759V24.1029C106.299 24.2346 106.299 24.3664 106.43 24.4981L106.825 25.0251L106.957 25.1569C107.089 25.1569 107.089 25.2886 107.22 25.2886C107.352 25.2886 107.352 25.4204 107.352 25.4204L107.483 25.5521C107.483 25.6838 107.483 25.6838 107.352 25.8156H107.089L106.825 26.0791C106.694 26.2108 106.562 26.2108 106.43 26.3426L106.167 26.6061C106.036 26.7378 106.036 26.7378 106.036 26.8696V27.1331C105.772 27.1331 105.772 27.2648 105.772 27.5283C105.772 27.7918 106.036 28.187 106.43 28.3188C106.825 28.5823 107.22 28.714 107.615 28.714C108.01 28.714 108.273 28.5823 108.405 28.4505C108.931 27.66 109.458 27.0013 110.116 26.3426C110.905 25.6838 111.827 25.2886 112.616 25.2886C112.879 25.2886 113.011 25.2886 113.274 25.4204C113.143 25.4204 113.143 25.4204 113.011 25.5521C112.879 25.6838 112.879 25.8156 112.879 25.9473C112.879 26.0791 112.748 26.2108 112.748 26.3426V26.7378C112.748 26.7378 112.748 26.8696 112.879 26.8696C112.879 26.8696 112.879 27.0013 113.011 27.0013C113.406 27.3966 113.801 27.66 114.327 27.9235C114.854 28.187 115.38 28.3188 115.775 28.187H116.17C116.433 28.187 116.696 28.0553 116.959 27.9235C117.223 27.7918 117.354 27.5283 117.486 27.3966H117.617V27.1331L118.144 26.2108H118.276V25.8156H118.407C118.407 25.6838 118.407 25.6838 118.539 25.6838L118.67 25.5521L118.802 25.2886C118.802 25.1569 118.934 25.1569 118.802 25.0251C119.065 25.0251 119.065 24.8934 119.065 24.8934ZM115.117 22.5219C114.985 22.7854 114.59 22.7854 114.196 22.7854H113.932C113.801 22.7854 113.801 22.7854 113.801 22.6537C113.801 22.6537 113.669 22.6537 113.669 22.5219H113.537C113.406 22.5219 113.406 22.3902 113.406 22.2584V21.9949C113.406 21.8632 113.406 21.8632 113.537 21.7314C113.537 21.7314 113.537 21.5997 113.669 21.5997V21.7314H114.327L114.459 21.5997C114.59 21.5997 114.722 21.468 114.722 21.2045V21.0727C114.722 20.941 114.722 20.8092 114.854 20.8092H114.985C115.117 20.8092 115.248 20.8092 115.248 20.6775L115.512 20.414C115.643 20.2822 115.643 20.1505 115.775 20.1505C115.907 20.0187 115.907 20.0187 116.038 20.0187C116.17 20.0187 116.301 19.887 116.301 19.7552L116.565 19.4918L116.828 19.36V19.2283C116.828 19.0965 116.959 19.0965 117.091 18.9648C117.223 18.833 117.354 18.833 117.486 18.833V19.0965L115.117 22.5219ZM106.036 24.8934L105.641 24.3664C105.509 24.2346 105.509 24.1029 105.509 23.8394V23.1807C105.509 22.9172 105.641 22.6537 105.904 22.3902C106.167 22.2584 106.43 22.1267 106.694 22.1267C106.694 22.1267 106.43 21.9949 106.694 22.1267V21.7314C106.562 21.7314 106.43 21.5997 106.299 21.468L104.983 21.2045H103.798C103.667 21.2045 103.535 21.2045 103.535 21.0727C103.535 21.0727 103.535 20.941 103.667 20.941C103.798 20.941 103.93 20.8092 104.061 20.8092C104.193 20.8092 104.325 20.6775 104.456 20.6775C104.588 20.6775 104.719 20.5457 104.719 20.5457L106.036 19.7552L106.167 19.6235C106.167 19.6235 106.299 19.4918 106.299 19.6235C106.694 19.2283 106.957 18.9648 107.22 18.833L107.615 18.4378C108.01 17.9108 108.273 17.3838 108.273 16.9886V16.7251C108.273 16.1981 108.01 15.9346 107.352 15.6711C106.957 15.5394 106.43 15.4076 105.641 15.4076H105.378C104.719 15.4076 103.93 15.6711 103.14 16.0663C103.009 16.1981 102.745 16.1981 102.614 16.3298C102.35 16.4616 102.219 16.5933 101.956 16.7251C101.692 16.8568 101.561 16.9886 101.298 16.9886C101.034 17.1203 100.903 17.1203 100.64 17.1203C100.245 17.1203 99.9815 16.8568 99.7182 16.4616L99.5866 16.3298L99.3234 15.9346C99.3234 15.9346 99.1918 15.9346 99.1918 15.8028C99.0602 15.8028 99.0602 15.6711 98.9286 15.6711C98.797 15.6711 98.6653 15.5394 98.5337 15.5394H98.2705C98.1389 15.5394 98.0073 15.5394 97.8757 15.6711L97.6124 15.8028C97.2176 16.0663 96.9544 16.3298 96.6912 16.7251C96.5595 17.1203 96.2963 17.5156 96.1647 17.9108C95.9015 18.306 95.6383 18.7013 95.375 19.2283H95.7699L96.2963 20.2822C96.5595 20.8092 96.5595 21.2045 96.4279 21.468L96.5595 22.1267L96.1647 22.2584C96.0331 22.5219 96.0331 22.9172 95.7699 23.1807L95.5066 23.5759L95.2434 23.8394C95.1118 23.9711 95.1118 24.1029 94.9802 24.1029C94.9802 24.2346 94.8486 24.2346 94.8486 24.3664V24.6299L93.006 26.3426C92.8744 26.4743 92.7428 26.6061 92.4796 26.6061C92.4796 26.6061 92.348 26.6061 92.2163 26.7378V27.3966L91.9531 27.5283V27.9235C92.0847 28.0553 92.348 28.0553 92.6112 28.0553C92.8744 28.0553 93.1376 28.187 93.2692 28.187L93.5325 28.3188H94.8486C94.9802 28.3188 95.1118 28.4505 95.375 28.4505L95.7699 28.5823H98.7969L98.9286 28.4505H99.0602C99.0602 28.4505 99.1918 28.4505 99.1918 28.3188V28.187C99.0602 28.0553 99.455 27.9235 100.113 27.7918L100.245 27.9235C100.245 28.0553 100.376 28.0553 100.508 28.0553C100.64 28.0553 100.771 27.9235 101.034 27.9235C101.298 27.7918 101.429 27.66 101.692 27.66C101.824 27.5283 102.087 27.5283 102.087 27.3966C102.877 27.3966 103.403 27.1331 103.535 26.4743H103.798V26.7378H103.93C104.193 26.7378 104.193 26.6061 104.325 26.4743L104.456 26.3426V26.0791C104.456 25.9473 104.456 25.9473 104.588 25.8156C104.588 25.6838 104.719 25.6838 104.851 25.6838C104.983 25.6838 104.983 25.5521 105.114 25.5521C105.246 25.5521 105.246 25.5521 105.246 25.4204L106.036 24.8934ZM101.429 23.9711L100.903 24.8934C100.903 24.8934 100.771 24.8934 100.771 25.0251C100.771 25.1569 100.771 25.1569 100.64 25.1569C100.245 25.6838 99.455 26.2108 98.4021 26.6061H96.9544C96.8228 26.6061 96.8228 26.6061 96.8228 26.4743C96.8228 26.4743 96.9544 26.3426 97.086 26.3426C97.2176 26.3426 97.4808 26.2108 97.6124 26.2108C97.8757 26.2108 98.0073 26.2108 98.2705 26.0791H98.7969L98.6653 25.9473H96.8228C96.6911 25.8156 96.6912 25.8156 96.6912 25.6838C96.6912 25.5521 96.6911 25.4204 96.8228 25.2886L97.2176 24.8934C97.6124 24.4981 97.744 24.2346 97.744 23.8394C97.8757 23.7076 97.8757 23.5759 98.0073 23.4442C98.1389 23.3124 98.1389 23.1807 98.2705 23.1807C98.4021 22.9172 98.5337 22.6537 98.6653 22.5219H99.455C99.7182 22.5219 100.113 22.6537 100.376 22.6537C100.64 22.7854 100.903 22.7854 101.034 22.9172C101.166 23.0489 101.298 23.1807 101.298 23.3124C101.561 23.7076 101.429 23.8394 101.429 23.9711ZM103.403 17.2521C103.272 17.3838 103.272 17.6473 103.14 17.779C103.009 17.9108 103.009 18.1743 102.877 18.306L102.745 18.4378L102.614 18.5695C102.482 18.7013 102.35 18.833 102.219 19.0965C102.087 19.2283 101.824 19.4918 101.561 19.6235C101.298 19.7552 101.166 20.0187 100.903 20.1505C100.64 20.2822 100.508 20.414 100.245 20.5457C100.245 20.414 100.113 20.414 100.113 20.2822C100.113 20.0187 100.245 19.7552 100.376 19.4918C101.034 18.5695 101.956 17.6473 103.14 16.7251H103.272C103.403 16.7251 103.403 16.7251 103.403 16.8568C103.535 16.9886 103.535 17.1203 103.403 17.2521ZM29.0426 19.36L29.3058 18.833C29.569 18.306 29.7007 17.6473 29.7007 16.9886L29.9639 16.8568V16.4616C29.9639 16.1981 29.9639 16.0663 30.0955 15.9346C30.2271 15.8028 30.0955 15.6711 29.9639 15.4076L29.569 14.4854C29.4374 14.4854 29.1742 14.3536 28.6478 13.9584L26.1471 13.2997L23.3833 13.0362C22.9884 13.0362 22.8568 12.9044 22.9884 12.7727C23.1201 12.5092 23.3833 12.3774 23.6465 12.2457C24.0413 12.1139 24.4362 11.8505 24.9626 11.4552L27.4632 9.7425L27.5949 9.47901C27.7265 9.47901 27.7265 9.47901 27.7265 9.34726L27.8581 9.21552C27.9897 9.21552 28.2529 9.08377 28.5161 8.82028L29.3058 8.0298C29.569 7.7663 29.8323 7.37106 29.9639 7.10757C30.6219 6.71233 30.7535 6.58059 30.7535 6.58059C31.28 6.0536 31.5432 5.39487 31.8064 4.60439C32.0697 3.81391 32.2013 3.15517 32.2013 2.49644C32.2013 1.44247 31.6748 0.651987 30.6219 0.125L22.462 1.04723C22.1988 1.17897 21.8039 1.44247 21.2775 1.70596C20.8826 1.96945 20.3562 2.23295 19.9614 2.49644C19.4349 2.75993 19.0401 3.02343 18.5136 3.15517C18.1188 3.28692 17.5923 3.41867 17.3291 3.41867C16.5395 3.41867 16.013 2.89168 15.4866 1.96945L15.3549 1.70596L14.6969 1.31072C14.6969 1.31072 14.5653 1.17897 14.302 1.17897C14.1704 1.04723 13.9072 1.04723 13.644 0.91548C13.5124 0.651987 13.2492 0.651987 12.9859 0.52024C12.7227 0.388493 12.5911 0.388493 12.3279 0.388493C12.0646 0.388493 11.8014 0.52024 11.5382 0.651987L11.1434 0.91548C10.3537 1.44247 9.82724 2.1012 9.56402 2.89168C9.16918 3.68216 8.77434 4.47264 8.37951 5.52661C7.98467 6.44884 7.45822 7.50281 6.80016 8.55678C5.87888 10.2695 5.22082 11.587 4.69437 12.5092C4.16792 13.4314 3.9047 13.9584 3.77309 14.2219C1.53568 18.9648 0.482788 22.9172 0.482788 26.3426V27.1331C0.482788 27.5283 0.6144 27.7918 0.6144 28.3188C0.877624 28.4505 1.27246 28.5823 1.79891 28.714C2.45697 28.8458 2.8518 28.9775 3.11503 29.1093L3.50986 29.3728L5.22082 29.5045C5.48404 29.5045 5.74727 29.5045 6.01049 29.6362C6.27372 29.768 6.66855 29.768 6.93178 29.8997L7.58984 30.1632L9.03757 30.295C9.4324 30.295 9.82724 30.295 10.2221 30.4267H13.2492C13.2492 30.295 13.3808 30.295 13.3808 30.295L13.644 30.1632C13.7756 30.1632 13.7756 30.0315 13.9072 30.0315V29.768C13.7756 29.3728 14.302 28.9775 15.6182 28.714C15.6182 28.714 15.6182 28.8458 15.7498 28.9775C15.7498 29.241 15.8814 29.3728 16.2762 29.241C16.5395 29.1093 16.9343 28.9775 17.1975 28.8458C17.724 28.5823 18.1188 28.4505 18.382 28.187C18.7769 27.9235 19.0401 27.7918 19.3033 27.66C21.0143 27.66 21.9355 27.0013 22.0672 25.6838H22.3304C22.462 25.6838 22.462 25.6838 22.5936 25.8156C22.5936 25.9473 22.7252 26.0791 22.7252 26.2108C22.7252 26.3426 22.7252 26.4743 22.8568 26.4743C22.8568 26.6061 22.9884 26.6061 23.1201 26.6061C23.5149 26.6061 23.7781 26.3426 23.9097 25.9473L24.1729 25.8156V25.2886C24.1729 25.0251 24.1729 24.8934 24.3046 24.7616L24.6994 24.3664C24.831 24.2346 25.0942 24.1029 25.2258 24.1029C25.3575 23.9711 25.4891 23.9711 25.4891 23.8394L27.7265 21.3362C27.7265 21.2045 27.7265 21.2045 27.8581 20.941C27.9897 20.8092 27.9897 20.5457 28.1213 20.414C28.2529 20.2822 28.3845 20.0187 28.5161 19.7552L29.0426 19.36ZM18.9085 19.2283L17.9872 21.3362C17.8556 21.3362 17.724 21.468 17.724 21.5997C17.724 21.7314 17.5923 21.8632 17.5923 21.8632C16.8027 23.0489 15.3549 24.1029 13.2492 25.2886H13.1175C12.7227 25.1569 12.4595 25.1569 12.3279 25.1569H10.4853C10.2221 25.1569 10.0905 25.0251 10.0905 24.8934C10.0905 24.7616 10.2221 24.6299 10.6169 24.4981C11.0117 24.3664 11.275 24.2346 11.8014 24.2346C12.1963 24.1029 12.7227 24.1029 13.1175 24.1029C13.5124 24.1029 13.9072 23.9711 14.1704 23.9711L14.0388 23.7076C13.7756 23.7076 13.3808 23.7076 12.8543 23.8394C12.3279 23.9711 11.933 23.9711 11.6698 23.9711H10.2221C10.0905 23.8394 9.95885 23.5759 9.95885 23.4442C9.95885 23.1807 10.0905 22.9172 10.3537 22.6537L11.1434 21.7314C11.8014 20.8092 12.1963 20.1505 12.0646 19.4918C12.1963 19.2283 12.3279 18.9648 12.5911 18.7013C12.7227 18.4378 12.8543 18.1743 13.1175 17.9108C13.5124 17.3838 13.7756 16.8568 13.7756 16.3298C14.1704 16.3298 14.8285 16.3298 15.3549 16.4616C16.013 16.5933 16.5395 16.5933 17.0659 16.8568C17.5923 16.9886 18.1188 17.2521 18.5136 17.5156C18.9085 17.779 19.0401 18.0425 19.1717 18.4378C19.1717 18.7013 19.0401 18.9648 18.9085 19.2283ZM22.8568 4.0774C22.7252 4.47264 22.5936 4.86788 22.3304 5.39487C22.1988 5.7901 21.9355 6.18535 21.8039 6.44884C21.6723 6.71233 21.5407 6.84408 21.6723 6.84408L21.4091 7.23932C21.1459 7.63456 20.8826 7.89805 20.4878 8.42504L19.3033 9.61076C18.9085 10.006 18.382 10.4012 17.9872 10.6647C17.5923 11.06 17.0659 11.3235 16.6711 11.587C16.5395 11.4552 16.5395 11.1917 16.5395 10.9282C16.5395 10.4012 16.6711 9.7425 17.1975 8.95202C18.382 6.71233 20.2246 4.73613 22.462 2.75993H22.7252C22.8568 2.75993 22.9884 2.89168 22.9884 3.02343C23.1201 3.28692 22.9884 3.68216 22.8568 4.0774ZM48.2579 17.779V17.1203C48.2579 15.2759 47.7315 13.9584 46.9418 13.0362C46.0205 11.9822 44.4412 11.4552 42.3354 11.4552H41.809C41.5457 11.4552 41.4141 11.4552 41.1509 11.587C40.8877 11.587 40.7561 11.7187 40.6244 11.8504C40.4928 11.9822 40.3612 11.9822 40.3612 12.1139C40.3612 12.2457 40.4928 12.3774 40.8877 12.6409L41.0193 12.9044L40.7561 13.1679C40.7561 13.1679 40.7561 13.2997 40.8877 13.2997C41.0193 13.2997 41.0193 13.4314 41.0193 13.4314C41.0193 13.5632 40.8877 13.6949 40.7561 13.6949C40.6244 13.8266 40.4928 13.6949 40.3612 13.5632L40.2296 13.4314H40.098C39.9664 13.4314 39.7032 13.4314 39.4399 13.2997H39.3083L39.1767 13.4314L38.9135 13.5632C38.6503 13.6949 38.5187 13.6949 38.387 13.8266C38.2554 13.8266 38.2554 13.9584 38.387 14.2219H38.1238C37.9922 14.0901 37.9922 14.0901 37.729 14.0901C37.5974 14.0901 37.3341 14.2219 37.2025 14.2219C37.0709 14.3536 36.8077 14.3536 36.6761 14.4854V14.6171H36.1496L36.018 14.7489C35.7548 15.0124 35.36 15.2759 34.9651 15.6711C34.4387 16.0663 33.9122 16.5933 33.3858 16.9886C32.8593 17.5156 32.3329 17.9108 31.8064 18.306C31.28 18.7013 31.0168 19.0965 30.7535 19.2283L30.4903 19.4918L29.9639 20.414C29.4374 21.3362 29.1742 22.1267 29.0426 22.6537C28.7794 23.4442 28.6478 24.2346 28.6478 25.0251C28.6478 25.2886 28.6478 25.6838 28.7794 25.8156C28.911 26.0791 29.0426 26.2108 29.1742 26.4743C29.3058 26.6061 29.4374 26.7378 29.7007 26.8696C29.8323 27.0013 30.0955 27.1331 30.2271 27.2648L30.3587 27.3966C30.4903 27.3966 30.7535 27.3966 30.8852 27.5283C31.8064 27.66 32.4645 27.7918 32.8593 28.0553C33.5174 28.3188 33.9122 28.8458 34.0438 29.3728C34.4387 29.6362 34.7019 29.768 34.9651 30.0315C35.2284 30.1632 35.6232 30.295 36.1496 30.295H37.2025C37.3341 30.295 37.4658 30.295 37.5974 30.1632C37.729 30.0315 37.8606 30.0315 37.9922 29.8997C38.1238 29.768 38.2554 29.6362 38.387 29.6362C38.5187 29.5045 38.7819 29.5045 38.9135 29.5045L39.5716 29.3728V29.241C39.5716 29.1093 39.5715 29.1093 39.7032 28.9775L40.098 28.714C40.2296 28.5823 40.3612 28.5823 40.3612 28.5823C40.3612 28.5823 40.3612 28.4505 40.098 28.4505C40.2296 28.0553 40.4928 27.66 40.7561 27.3966C40.7561 27.3966 40.8877 27.3966 41.0193 27.2648C41.1509 27.1331 41.4141 27.1331 41.6773 27.0013L42.467 26.6061H42.3354C42.5986 26.6061 42.9935 26.4743 43.3883 26.2108C44.178 25.6838 45.0993 24.8934 45.8889 23.7076C47.5999 21.8632 48.2579 19.7552 48.2579 17.779ZM42.0722 16.7251C42.0722 16.8568 41.9406 16.9886 41.9406 17.2521V18.306L41.809 18.5695C41.6773 18.833 41.6773 18.9648 41.5457 19.0965C41.5457 19.2283 41.4141 19.36 41.4141 19.4918C41.4141 19.7552 41.4141 19.887 41.2825 20.0187C41.2825 20.1505 41.2825 20.2822 41.1509 20.414L40.4928 22.3902L40.3612 22.5219C40.2296 22.6537 40.2296 22.9172 40.098 23.0489C39.9664 23.1807 39.9664 23.4442 39.8348 23.5759C39.1767 25.0251 38.1238 25.8156 36.6761 25.8156C36.2812 25.8156 35.8864 25.8156 35.36 25.6838C35.36 25.0251 35.4916 24.3664 35.7548 23.4442C35.8864 23.1807 36.018 22.7854 36.1496 22.3902C36.2812 21.9949 36.4129 21.5997 36.6761 21.2045C36.8077 20.8092 37.0709 20.414 37.2025 20.1505C37.3341 19.7552 37.4658 19.6235 37.729 19.36C37.729 19.2283 37.729 19.2283 37.5974 19.0965C37.3341 18.9648 37.3341 18.833 37.3341 18.833C37.3341 18.833 37.3341 18.7013 37.4658 18.7013C37.5974 18.7013 37.729 18.5695 37.8606 18.5695C37.9922 18.5695 38.1238 18.4378 38.2554 18.4378C38.387 18.306 38.387 18.306 38.387 18.1743L38.6503 18.0425C39.0451 16.8568 39.5715 16.0663 40.3612 15.8028C40.4928 15.6711 40.6244 15.4076 40.6244 15.1441L41.0193 14.3536C41.1509 14.0901 41.2825 13.9584 41.4141 13.8266C41.5457 13.6949 41.6773 13.6949 41.809 13.8266C41.9406 13.9584 41.9406 14.0901 42.0722 14.3536C42.0722 14.4854 42.0722 14.7489 42.2038 14.8806V15.8028C42.2038 15.8028 42.3354 15.8028 42.3354 15.9346V16.3298C42.2038 16.4616 42.2038 16.5933 42.0722 16.7251ZM42.467 26.7378C42.3354 26.7378 42.3354 26.7378 42.467 26.7378L42.3354 26.6061C42.2038 26.7378 42.2038 26.7378 42.467 26.7378C42.3354 26.7378 42.467 26.7378 42.467 26.7378C42.467 26.7378 42.467 26.8696 42.467 26.7378ZM74.712 19.4918L74.9752 19.2283C74.712 19.36 74.712 19.4918 74.712 19.4918ZM74.9752 19.2283C74.9752 19.2283 75.1068 19.2283 75.2384 19.0965L74.9752 19.2283ZM74.5803 19.2283C74.5803 19.0965 74.712 18.833 74.8436 18.833L74.9752 18.5695V18.306C74.9752 17.9108 75.2384 17.6473 75.6332 17.6473C75.6332 17.3838 75.6332 17.2521 75.7648 17.1203L75.8965 16.9886L76.0281 16.8568V16.7251C76.0281 16.5933 76.0281 16.4616 76.1597 16.1981C76.2913 15.9346 76.2913 15.8028 76.2913 15.6711C76.2913 15.5394 76.1597 15.2759 76.0281 15.0124C75.8965 14.7489 75.7648 14.6171 75.7648 14.4854V14.3536C75.7648 14.2219 75.6332 14.2219 75.5016 14.0901C75.37 13.9584 75.1068 13.9584 74.9752 13.8266C74.712 13.6949 74.5803 13.6949 74.3171 13.5632C74.1855 13.4314 74.0539 13.2997 73.9223 13.2997H73.3958L73.2642 13.1679H73.1326C73.001 13.1679 73.001 13.0362 73.001 12.9044L72.2113 12.1139C71.9481 11.8505 71.5533 11.7187 71.29 11.7187C71.0268 11.7187 70.8952 11.7187 70.632 11.8504C70.3688 11.9822 70.2371 12.1139 69.9739 12.2457C69.7107 12.3774 69.5791 12.5092 69.4475 12.6409C69.3159 12.7727 69.0526 12.9044 68.921 13.0362C67.3417 14.4854 66.0256 15.8028 64.9727 16.8568C63.9198 17.9108 63.1301 18.833 62.6036 19.36C62.3404 19.6235 62.2088 19.7552 61.9456 19.7552C61.5508 19.7552 61.2875 19.4918 61.2875 19.0965V18.833C61.1559 18.833 61.1559 18.7013 61.0243 18.306C60.8927 17.9108 60.8927 17.5156 60.6295 16.9886C60.6295 16.8568 60.6295 16.7251 60.4979 16.5933V16.3298L60.3662 16.0663V15.9346C60.3662 15.8028 60.3662 15.8028 60.2346 15.5394C60.2346 15.4076 60.103 15.2759 60.103 15.1441C59.9714 15.0124 59.9714 14.8806 59.9714 14.6171C59.9714 14.4854 59.8398 14.3536 59.8398 14.2219L59.7082 14.0901V13.9584C59.7082 13.9584 59.7082 13.8266 59.5766 13.6949L59.445 13.5632C59.1817 12.6409 58.2604 12.1139 56.5495 12.1139C56.1547 12.1139 55.8914 12.2457 55.4966 12.3774C55.2334 12.5092 54.9701 12.6409 54.8385 12.9044C54.5753 13.0362 54.4437 13.2997 54.3121 13.5632C54.1805 13.8266 54.0489 13.9584 53.9173 14.0901C53.5224 14.4854 53.1276 14.7489 52.4695 14.8806L52.3379 15.0124C52.0747 15.0124 51.9431 15.1441 51.6799 15.4076L51.1534 15.9346C51.1534 15.9346 51.0218 16.0663 50.8902 16.3298C50.7586 16.5933 50.627 16.8568 50.3637 17.1203C50.2321 17.3838 49.9689 17.779 49.8373 18.0425C49.7057 18.306 49.5741 18.5695 49.5741 18.7013L49.1792 19.887C49.0476 20.2822 48.916 20.6775 48.6528 21.2045C48.6528 21.3362 48.3896 21.5997 48.2579 21.9949C47.9947 22.3902 47.8631 22.7854 47.5999 23.3124C47.3367 23.8394 47.0734 24.2346 46.9418 24.6299C46.6786 25.0251 46.547 25.4204 46.547 25.5521C46.2838 26.3426 46.0205 27.1331 46.0205 27.7918V28.4505C46.0205 28.714 46.1521 28.8458 46.1521 29.1093C46.2838 29.3728 46.4154 29.5045 46.547 29.6362C46.6786 29.768 46.9418 29.768 47.0734 29.768L47.3367 30.0315C47.4683 30.1632 47.8631 30.295 48.5212 30.295C49.0476 30.295 49.5741 30.1632 49.8373 29.8997L49.9689 29.768V29.5045C49.9689 29.3727 49.9689 29.241 50.1005 28.9775C50.2321 28.714 50.2321 28.714 50.2321 28.5823C50.2321 28.4505 50.1005 28.3188 49.9689 28.187C49.8373 28.0553 49.7057 27.9235 49.7057 27.7918V27.5283C49.8373 27.5283 49.9689 27.5283 49.9689 27.66L50.2321 27.9235C50.2321 28.0553 50.3637 28.187 50.3637 28.3188C50.3637 28.3188 50.4953 28.187 50.627 27.9235L50.8902 27.7918V27.66C50.8902 27.5283 50.8902 27.5283 51.0218 27.3966C51.1534 27.2648 51.1534 27.1331 51.1534 27.0013C51.1534 26.8696 51.1534 26.8696 51.0218 26.8696C50.8902 26.8696 50.8902 26.7378 50.8902 26.7378C50.8902 26.6061 51.0218 26.6061 51.1534 26.4743C51.285 26.3426 51.4166 26.2108 51.4166 26.0791C51.4166 25.9473 51.4166 25.9473 51.285 25.8156C51.285 25.6838 51.285 25.6838 51.4166 25.6838H51.5482C51.5482 25.6838 51.4166 25.5521 51.4166 25.4204C51.4166 25.2886 51.4166 25.1569 51.5482 25.1569C51.8115 25.2886 51.8115 25.1569 51.9431 25.1569C52.0747 25.1569 52.2063 25.0251 52.2063 25.0251C52.3379 25.0251 52.3379 24.8934 52.3379 24.8934C52.3379 24.8934 52.2063 24.7616 51.9431 24.6299L51.8115 24.4981C51.8115 24.1029 51.9431 23.8394 52.3379 23.8394C52.4695 23.8394 52.6011 23.8394 52.6011 23.7076V23.4442C52.6011 23.4442 52.6011 23.3124 52.7327 23.3124H52.996V23.1807C52.8644 23.0489 52.8644 22.9172 52.8644 22.9172C52.8644 22.9172 52.8644 22.7854 52.996 22.7854C53.1276 22.7854 53.1276 22.7854 53.1276 22.6537V22.2584C53.1276 22.1267 53.1276 22.1267 53.2592 22.1267L53.3908 21.9949C53.3908 21.9949 53.3908 21.7314 53.5224 21.5997C53.5224 21.3362 53.654 21.0727 53.7856 20.8092C53.9173 20.5457 54.0489 20.2822 54.0489 20.1505C54.1805 19.887 54.1805 19.887 54.3121 19.887C54.4437 19.887 54.5753 20.2822 54.5753 21.2045V24.2346C54.5753 24.7616 54.5753 25.2886 54.7069 25.6838C54.7069 26.0791 54.8385 26.4743 54.8385 26.8696C55.1018 27.9235 55.365 28.4505 56.023 28.8458H56.4179C56.5495 28.8458 56.8127 28.9775 56.9443 28.9775C57.0759 28.9775 57.3392 29.1093 57.4708 29.1093H57.8656C58.5237 29.1093 58.9185 28.8458 59.0501 28.3188C59.1817 28.3188 59.445 28.3188 59.5766 28.187C59.7082 28.0553 59.8398 27.9235 59.8398 27.7918C59.9714 27.66 59.9714 27.5283 59.9714 27.3966C59.9714 27.2648 60.103 27.2648 60.103 27.2648L60.7611 26.6061C61.0243 26.2108 61.4191 25.9473 61.814 25.5521C62.2088 25.1569 62.472 24.7616 62.7353 24.4981C62.9985 24.2346 62.9985 23.9711 62.9985 23.9711C62.8669 23.8394 62.8669 23.8394 62.8669 23.7076V23.0489C62.8669 23.0489 62.8669 22.9172 62.9985 22.9172H63.2617C63.3933 22.9172 63.3933 22.9172 63.3933 23.0489V23.3124C63.3933 23.3124 63.5249 23.3124 63.5249 23.4442C63.5249 23.4442 63.5249 23.5759 63.6565 23.5759L63.7882 23.4442C63.7882 23.3124 63.9198 23.3124 63.9198 23.1807C63.9198 23.0489 64.0514 22.9172 64.0514 22.7854C64.0514 22.6537 64.183 22.5219 64.183 22.5219C64.4462 21.9949 64.7094 21.7314 64.8411 21.5997L64.9727 21.468C64.9727 21.2045 65.1043 20.941 65.4991 20.5457L66.1572 20.414L66.4204 20.2822C66.6836 20.2822 66.8152 20.1505 66.8152 20.1505V20.0187C66.8152 19.887 66.6836 19.887 66.6836 19.7552V19.4918C66.6836 19.36 66.6836 19.36 66.8152 19.36L66.9468 19.2283C66.9468 19.2283 66.9468 19.0965 67.0785 19.0965C67.2101 19.0965 67.3417 18.9648 67.3417 18.9648C67.4733 18.9648 67.6049 18.9648 67.6049 19.0965C67.7365 19.2283 67.7365 19.36 67.7365 19.4918C67.7365 19.6235 67.6049 19.7552 67.4733 19.887C67.3417 20.414 67.0785 20.941 66.8152 21.468C66.552 21.9949 66.2888 22.3902 66.0256 22.9172C65.7623 23.3124 65.4991 23.7076 65.3675 24.1029C65.1043 24.4981 65.1043 24.7616 65.1043 25.0251C65.1043 25.2886 65.1043 25.4204 64.9727 25.6838C64.841 25.8156 64.841 26.0791 64.7094 26.2108C64.5778 26.3426 64.4462 26.4743 64.4462 26.6061C64.3146 26.7378 64.3146 26.8696 64.3146 27.0013C64.3146 27.1331 64.4462 27.2648 64.5778 27.3966V29.1093C64.5778 29.1093 65.1043 29.3728 66.2888 29.768C66.9468 30.0315 67.6049 30.1632 68.1314 30.1632H68.3946C68.3946 30.1632 68.6578 30.0315 68.7894 29.8997C69.0526 29.768 69.3159 29.5045 69.5791 29.241C69.8423 28.9775 70.1055 28.8458 70.3688 28.5823L70.8952 28.0553L71.0268 27.9235C71.0268 27.7918 71.1584 27.66 71.29 27.66L71.6849 26.8696C71.8165 26.6061 71.9481 26.2108 72.0797 25.8156L72.8694 23.4442C73.6591 21.3362 74.3171 20.0187 74.8436 19.4918C74.4487 19.4918 74.4487 19.36 74.5803 19.2283ZM50.8902 27.3966C50.7586 27.3966 50.7586 27.3966 50.8902 27.3966C50.7586 27.3966 50.8902 27.3966 50.8902 27.3966ZM92.8744 24.1029C92.8744 23.9711 93.006 23.8394 93.006 23.8394C93.006 23.7076 93.1376 23.5759 93.2692 23.4442L93.4008 23.1807L93.5325 22.9172C93.9273 22.5219 93.9273 22.1267 93.9273 21.7314L94.1905 21.5997V21.3362C94.1905 21.2045 94.1905 21.0727 94.3221 21.0727V20.6775L94.0589 20.1505C93.9273 20.1505 93.7957 20.0187 93.4008 19.887L91.5583 19.4918L89.5841 19.36C89.3209 19.36 89.1893 19.36 89.1893 19.2283L89.4525 18.9648C89.5841 18.833 89.7157 18.833 89.9789 18.7013C90.1106 18.5695 90.3738 18.5695 90.5054 18.4378C90.637 18.306 90.7686 18.306 90.9002 18.306L92.7428 17.2521L92.8744 17.1203C92.8744 17.1203 93.006 16.9886 93.1376 17.1203C93.6641 16.7251 94.0589 16.3298 94.3221 16.0663C94.5854 15.8028 94.8486 15.6711 94.9802 15.5394C95.6383 14.8806 95.9015 14.2219 95.9015 13.5632V13.2997C95.9015 12.6409 95.5066 12.1139 94.717 11.8504C94.0589 11.587 93.2692 11.4552 92.348 11.4552H92.0847C91.0318 11.4552 89.9789 11.7187 88.7944 12.3774L88.0048 12.7727C87.7415 12.9044 87.4783 13.0362 87.0835 13.2997C86.8203 13.4314 86.4254 13.5632 86.1622 13.6949C85.899 13.8266 85.5041 13.8266 85.2409 13.8266C84.7145 13.8266 84.3196 13.5632 83.9248 12.9044L83.7932 12.7727L83.2667 12.5092C83.2667 12.5092 83.1351 12.5092 83.0035 12.3774C82.8719 12.3774 82.7403 12.2457 82.6087 12.2457C82.4771 12.2457 82.3454 12.1139 82.0822 12.1139C81.9506 12.1139 81.819 11.9822 81.6874 11.9822C81.5558 11.9822 81.2925 11.9822 81.1609 12.1139L80.7661 12.3774C80.108 12.6409 79.7132 13.0362 79.5816 13.5632C79.3184 13.9584 79.0551 14.4854 78.7919 15.0124C78.5287 15.5394 78.1339 16.1981 77.6074 16.8568C76.9494 17.779 76.4229 18.5695 76.1597 19.0965C75.7648 19.6235 75.6332 20.0187 75.5016 20.0187C73.7907 22.7854 73.001 25.1569 73.001 27.1331V27.66C73.001 27.7918 73.001 28.0553 73.1326 28.3188C73.3958 28.4505 73.6591 28.4505 74.0539 28.5823C74.4487 28.5823 74.712 28.714 74.9752 28.8458L75.2384 28.9775H76.4229C76.5545 28.9775 76.8177 28.9775 76.9494 29.1093C77.2126 29.1093 77.3442 29.241 77.6074 29.241L78.1339 29.3728L79.1868 29.5045H82.3454L82.4771 29.3728H82.7403C82.8719 29.3728 82.8719 29.3728 82.8719 29.241V29.1093C82.7403 28.8458 83.1351 28.714 84.0564 28.5823C84.0564 28.5823 84.0564 28.714 84.188 28.714C84.188 28.8458 84.3196 28.9775 84.5829 28.8458C84.8461 28.8458 84.9777 28.714 85.2409 28.5823C85.6357 28.4505 85.899 28.3188 86.1622 28.187C86.4254 28.0553 86.6886 27.9235 86.8203 27.9235C88.0048 27.9235 88.6628 27.5283 88.7944 26.7378H89.0577C89.1893 26.7378 89.1893 26.7378 89.1893 26.8696L89.3209 27.0013C89.3209 27.1331 89.3209 27.1331 89.4525 27.1331L89.5841 27.2648C89.8473 27.2648 90.1105 27.1331 90.1105 26.8696L90.2422 26.7378V26.4743C90.2422 26.3426 90.2422 26.2108 90.3738 26.0791L90.637 25.8156C90.7686 25.8156 90.9002 25.6838 91.0318 25.6838C91.1635 25.6838 91.2951 25.5521 91.2951 25.5521L92.8744 24.1029C92.7428 24.1029 92.7428 24.2346 92.8744 24.1029ZM86.2938 23.0489L85.6357 24.2346C85.5041 24.2346 85.5041 24.2346 85.5041 24.3664C85.5041 24.4981 85.3725 24.4981 85.3725 24.4981C84.8461 25.1569 83.7932 25.8156 82.2138 26.4743H80.3713C80.2397 26.4743 80.108 26.4743 80.108 26.3426C80.108 26.2108 80.2397 26.2108 80.5029 26.0791C80.7661 26.0791 81.0293 25.9473 81.2925 25.9473C81.5558 25.9473 81.9506 25.8156 82.2138 25.8156H83.0035L82.8719 25.6838C82.7403 25.6838 82.3454 25.6838 82.0822 25.8156C81.6874 25.8156 81.4242 25.9473 81.2925 25.9473H80.2397C80.108 25.8156 80.108 25.6838 80.108 25.6838C80.108 25.5521 80.2397 25.4204 80.3713 25.1569L80.8977 24.6299C81.4242 24.1029 81.6874 23.7076 81.5558 23.3124L81.9506 22.9172L82.3454 22.5219C82.6087 22.1267 82.7403 21.8632 82.8719 21.5997H84.0564C84.4512 21.5997 84.9777 21.7314 85.3725 21.7314C85.7674 21.8632 86.1622 21.9949 86.4254 22.1267C86.6886 22.2584 86.8203 22.5219 86.8203 22.6537C86.4254 22.7854 86.2938 22.9172 86.2938 23.0489ZM89.0577 14.2219L88.6628 15.0124C88.5312 15.2759 88.3996 15.4076 88.268 15.6711C88.1364 15.8028 88.1364 15.9346 88.1364 15.9346L88.0048 16.1981C87.8732 16.4616 87.6099 16.5933 87.3467 16.8568C87.0835 17.1203 86.8203 17.3838 86.4254 17.5156C86.1622 17.779 85.7674 17.9108 85.5041 18.1743C85.2409 18.4378 84.8461 18.5695 84.5829 18.7013C84.4512 18.5695 84.4512 18.4378 84.4512 18.306C84.4512 18.0425 84.5828 17.6473 84.8461 17.2521C85.7674 15.9346 86.9519 14.7489 88.6628 13.6949H88.7944C88.926 13.6949 89.0577 13.6949 89.0577 13.8266C89.1893 13.8266 89.1893 13.9584 89.0577 14.2219Z" fill="white"/>
</svg>
