<svg width="93" height="89" viewBox="0 0 93 89" fill="none" xmlns="http://www.w3.org/2000/svg">
<path d="M62.0667 22.9885C62.6027 21.4735 63.5719 20.1319 64.8647 19.1154C66.1575 18.0989 67.7222 17.4479 69.3821 17.2362L71.6832 12.085L63.7599 4.51894L59.0873 7.42101C57.3127 6.46101 55.4231 5.70931 53.4596 5.18227L52.2983 0H40.9018L39.7404 5.18227C37.7872 5.70445 35.9068 6.44914 34.1398 7.40028L29.4673 4.49821L21.5494 12.085L23.807 17.2259C25.4815 17.4616 27.054 18.1383 28.3482 19.18C29.6423 20.2217 30.6068 21.5872 31.1333 23.1233L31.676 22.0246C32.9905 19.308 35.0893 17.0058 37.7261 15.3883C40.3628 13.7709 43.4281 12.9054 46.562 12.8934C49.6959 12.8815 52.7683 13.7235 55.4185 15.3208C58.0688 16.918 60.1868 19.2041 61.524 21.9106L62.0667 22.9885Z" fill="#EFBC5F"/>
<path d="M58.8918 38.9814L52.5858 37.4733V36.7944C53.9693 35.8718 55.0999 34.6447 55.882 33.2169C56.6642 31.789 57.0748 30.2023 57.0792 28.5908V26.0878C57.0792 20.5375 52.5207 15.889 46.9255 15.7232C45.5231 15.6822 44.1263 15.9107 42.8181 16.3949C41.5099 16.8791 40.3168 17.6092 39.3096 18.542C38.3024 19.4748 37.5016 20.5913 36.9547 21.8251C36.4079 23.059 36.126 24.3852 36.126 25.725V28.5857C36.1285 30.1976 36.5377 31.7852 37.3189 33.2141C38.1002 34.643 39.2304 35.8711 40.614 36.7944V37.4785L34.308 38.9814C32.6873 39.3658 31.2481 40.2576 30.2202 41.5144C29.1923 42.7712 28.6349 44.3206 28.6368 45.9153V48.4391L32.8156 47.5529C35.737 46.933 38.7785 47.0654 41.6289 47.9364L48.483 50.0093C49.2175 50.0113 49.948 50.1107 50.6538 50.3047L60.0586 52.8958H61.5564L64.5521 51.393V45.9153C64.5547 44.322 63.9988 42.7737 62.973 41.5171C61.9472 40.2605 60.5105 39.3678 58.8918 38.9814Z" fill="#EFBC5F"/>
<path d="M93 37.1623H89.6353L84.6209 39.6809C84.06 39.3747 83.4598 39.1395 82.8354 38.9813L76.5293 37.4732V36.7944C77.9129 35.8718 79.0435 34.6447 79.8256 33.2168C80.6077 31.7889 81.0184 30.2022 81.0228 28.5908V26.0878C81.0228 20.5375 76.4642 15.889 70.8691 15.7232C69.4667 15.6822 68.0699 15.9107 66.7617 16.3949C65.4534 16.8791 64.2603 17.6092 63.2532 18.542C62.246 19.4748 61.4452 20.5913 60.8983 21.8251C60.3514 23.059 60.0696 24.3852 60.0695 25.725V28.5856C60.0727 30.198 60.4827 31.7859 61.2649 33.2148C62.0471 34.6437 63.1784 35.8716 64.563 36.7944V37.4784L58.5934 38.9087L58.9082 38.9865C60.2518 39.3108 61.4737 39.9875 62.4357 40.9402L67.575 39.7172V35.1827L66.826 34.7681C65.6903 34.1401 64.7469 33.2388 64.0899 32.154C63.4328 31.0692 63.0851 29.8388 63.0815 28.5856V25.725C63.0817 24.7679 63.2833 23.8206 63.6742 22.9393C64.0651 22.058 64.6375 21.2607 65.3572 20.5947C66.077 19.9286 66.9295 19.4074 67.8642 19.062C68.7989 18.7166 69.7968 18.554 70.7985 18.5838C74.7982 18.6978 78.0489 22.0663 78.0489 26.0878V28.5856C78.0447 29.8387 77.6968 31.0689 77.0398 32.1536C76.3828 33.2383 75.4397 34.1397 74.3043 34.7681L73.5554 35.1827V39.7068L81.0337 41.4895L61.1983 51.455H60.2812L51.0555 48.9416C50.331 48.7556 49.5858 48.6529 48.8359 48.6359L42.0577 46.563C38.9557 45.6191 35.6477 45.4742 32.4683 46.1432L23.9698 47.9622L24.0892 47.558L24.1434 44.915L16.2527 40.5204L19.6554 39.7068V35.1827L18.9065 34.7681C17.7708 34.1401 16.8274 33.2388 16.1703 32.154C15.5133 31.0692 15.1656 29.8388 15.1619 28.5856V25.725C15.1621 24.7675 15.3639 23.8197 15.7551 22.9381C16.1464 22.0564 16.7192 21.2589 17.4395 20.5928C18.1599 19.9266 19.0131 19.4056 19.9484 19.0604C20.8837 18.7153 21.8822 18.5532 22.8844 18.5838C26.884 18.6978 30.1348 22.0663 30.1348 26.0878V28.5856C30.1306 29.8387 29.7826 31.0689 29.1256 32.1536C28.4687 33.2383 27.5255 34.1397 26.3902 34.7681L25.6413 35.1827V39.7068L30.7806 40.9402C31.7427 39.9877 32.9645 39.311 34.308 38.9865L34.6228 38.9087L28.6532 37.4784V36.7944C30.0367 35.8718 31.1673 34.6447 31.9495 33.2168C32.7316 31.7889 33.1422 30.2022 33.1467 28.5908V26.0878C33.1467 20.5375 28.5881 15.889 22.9929 15.7232C21.5905 15.6822 20.1938 15.9107 18.8855 16.3949C17.5773 16.8791 16.3842 17.6092 15.377 18.542C14.3698 19.4748 13.569 20.5913 13.0222 21.8251C12.4753 23.059 12.1935 24.3852 12.1934 25.725V28.5856C12.1941 30.1962 12.6008 31.7829 13.3791 33.2117C14.1575 34.6404 15.2846 35.8693 16.6652 36.7944V37.4784L12.5516 38.4527L5.08416 34.3017H0.199951V63.9184L14.9231 68.5825H17.7885L18.1467 67.3854L22.6619 69.9765C22.6983 71.1055 23.1828 72.179 24.0171 72.9796C24.8515 73.7802 25.9733 74.248 27.1554 74.2882C27.1985 75.4117 27.6851 76.4781 28.5176 77.2731C29.3502 78.0681 30.4669 78.5328 31.6434 78.5739C31.6865 79.6975 32.1732 80.7638 33.0057 81.5588C33.8382 82.3538 34.9549 82.8186 36.1315 82.8597C36.1585 83.6558 36.409 84.4304 36.8568 85.1024C37.3046 85.7745 37.9333 86.3193 38.677 86.68C39.4207 87.0406 40.2523 87.2039 41.0847 87.1527C41.9171 87.1015 42.7198 86.8377 43.409 86.3888L44.7331 87.5082C45.565 88.2088 46.6359 88.5957 47.7451 88.5965H48.0218C49.2178 88.5939 50.3647 88.1426 51.2154 87.3399C52.0662 86.5372 52.5525 85.4475 52.5696 84.3056C53.7546 84.2895 54.8864 83.8328 55.7245 83.0325C56.5625 82.2322 57.0408 81.1515 57.0576 80.0198C58.2436 80.0037 59.3762 79.5463 60.2144 78.7449C61.0526 77.9435 61.5302 76.8614 61.5457 75.7289C62.7454 75.7019 63.8866 75.2284 64.7261 74.4094C65.5655 73.5904 66.0366 72.4906 66.0391 71.3447C66.0469 71.2014 66.0469 71.0578 66.0391 70.9145L93 58.0417V37.1623ZM3.1956 37.1623H4.28098L15.048 43.1582L9.62106 63.8873L3.1956 61.8559V37.1623ZM15.3953 65.7478L12.4485 64.8098L17.7234 44.6559L21.1369 46.5578V46.9672L15.5364 65.7478H15.3953ZM25.6304 69.8625C25.6302 69.4375 25.8057 69.0296 26.1188 68.7276L28.7509 66.2142C29.0661 65.9125 29.4939 65.7427 29.9402 65.7423C30.3865 65.7418 30.8147 65.9106 31.1306 66.2116C31.4465 66.5126 31.6243 66.9211 31.6248 67.3473C31.6253 67.7734 31.4485 68.1823 31.1333 68.484L28.5121 70.9974C28.2776 71.2225 27.9783 71.3758 27.6523 71.438C27.3263 71.5003 26.9882 71.4685 26.6811 71.3469C26.374 71.2253 26.1117 71.0192 25.9276 70.7549C25.7434 70.4906 25.6456 70.18 25.6467 69.8625H25.6304ZM30.1185 74.1483C30.1182 73.7233 30.2937 73.3154 30.6069 73.0134L33.2552 70.4792C33.5697 70.1789 33.9962 70.0102 34.441 70.0102C34.8858 70.0102 35.3123 70.1789 35.6268 70.4792C35.9413 70.7795 36.1179 71.1868 36.1179 71.6115C36.1179 72.0363 35.9413 72.4436 35.6268 72.7439L32.9947 75.2573C32.7602 75.4823 32.4609 75.6356 32.1349 75.6979C31.8089 75.7601 31.4709 75.7284 31.1638 75.6067C30.8567 75.4851 30.5944 75.2791 30.4102 75.0148C30.226 74.7505 30.1282 74.4398 30.1293 74.1224L30.1185 74.1483ZM34.6065 78.434C34.6063 78.009 34.7818 77.6011 35.0949 77.2991L37.727 74.7857C37.8827 74.637 38.0676 74.519 38.271 74.4386C38.4745 74.3581 38.6925 74.3167 38.9128 74.3167C39.133 74.3167 39.3511 74.3581 39.5545 74.4386C39.758 74.519 39.9428 74.637 40.0985 74.7857C40.2543 74.9344 40.3778 75.1109 40.4621 75.3052C40.5463 75.4995 40.5897 75.7077 40.5897 75.918C40.5897 76.1283 40.5463 76.3366 40.4621 76.5308C40.3778 76.7251 40.2543 76.9017 40.0985 77.0504L37.4665 79.5638C37.232 79.7888 36.9327 79.9421 36.6067 80.0043C36.2806 80.0666 35.9426 80.0349 35.6355 79.9132C35.3284 79.7916 35.0661 79.5855 34.882 79.3212C34.6978 79.0569 34.6 78.7463 34.6011 78.4288L34.6065 78.434ZM40.7932 84.3263C40.4607 84.3273 40.1354 84.234 39.8587 84.0581C39.5819 83.8822 39.3661 83.6317 39.2387 83.3385C39.1114 83.0452 39.0782 82.7224 39.1433 82.4111C39.2085 82.0998 39.3691 81.814 39.6047 81.59L42.2367 79.0766C42.5541 78.7756 42.9837 78.6074 43.431 78.6088C43.8783 78.6103 44.3067 78.7813 44.6219 79.0844C44.9371 79.3875 45.1133 79.7977 45.1118 80.2248C45.1102 80.652 44.9311 81.061 44.6137 81.362L41.9871 83.8599C41.6695 84.1602 41.2401 84.3279 40.7932 84.3263ZM48.0327 85.7566H47.7559C47.376 85.7569 47.0091 85.6242 46.7248 85.3835L45.6068 84.4403L46.7302 83.3676C47.1266 82.9837 47.4466 82.5341 47.6745 82.0409L49.0421 83.124C49.2882 83.3204 49.4651 83.5843 49.5487 83.8799C49.6324 84.1756 49.6188 84.4887 49.5098 84.7767C49.4007 85.0647 49.2016 85.3137 48.9393 85.4899C48.677 85.6662 48.3642 85.7611 48.0435 85.7618L48.0327 85.7566ZM61.4534 72.8942H61.1929C60.8162 72.8925 60.4518 72.7661 60.1618 72.5366L52.0215 66.0795L50.1275 68.2767L58.0073 74.5473C58.2534 74.7437 58.4303 75.0076 58.514 75.3033C58.5976 75.5989 58.584 75.912 58.475 76.2C58.366 76.488 58.1668 76.737 57.9045 76.9132C57.6422 77.0895 57.3295 77.1844 57.0088 77.1851H56.6832C56.3181 77.1843 55.9648 77.0614 55.6846 76.8379L47.5443 70.3704L45.6394 72.5521L53.5193 78.8227C53.7664 79.0182 53.9442 79.2818 54.0285 79.5774C54.1127 79.8731 54.0993 80.1864 53.99 80.4745C53.8807 80.7626 53.6809 81.0114 53.4179 81.187C53.155 81.3625 52.8416 81.4563 52.5207 81.4553C51.9459 81.454 51.3894 81.2616 50.9469 80.9112L47.604 78.2526C47.2341 77.527 46.6645 76.9112 45.9561 76.4711C45.2477 76.0311 44.4272 75.7835 43.5826 75.7548C43.5395 74.6312 43.0529 73.5649 42.2204 72.7699C41.3878 71.9749 40.2711 71.5102 39.0946 71.469C39.0515 70.3455 38.5648 69.2791 37.7323 68.4841C36.8998 67.6892 35.7831 67.2244 34.6065 67.1833C34.5755 66.3162 34.2799 65.4767 33.7559 64.7679C33.232 64.0592 32.5026 63.5121 31.6574 63.1938C30.8122 62.8756 29.8881 62.8002 28.9986 62.9768C28.1091 63.1534 27.293 63.5744 26.6507 64.1879L24.0186 66.7013C23.8673 66.854 23.7277 67.0168 23.6008 67.1885L19.0042 64.5559L23.0364 51.0819L33.1413 48.9365C35.8036 48.3718 38.5751 48.4916 41.1731 49.2837L43.3764 49.9574L35.9035 53.528C35.0698 53.9236 34.3687 54.5343 33.8795 55.2908C33.3904 56.0473 33.1328 56.9194 33.1358 57.8085V58.0936C33.1358 58.9413 33.3714 59.7738 33.8186 60.5061C34.2658 61.2383 34.9086 61.8441 35.6812 62.2615C36.4539 62.6789 37.3287 62.8929 38.2164 62.8818C39.104 62.8706 39.9726 62.6346 40.7335 62.1979L46.3069 59.0056C46.8659 58.6953 47.5128 58.5604 48.1564 58.6199C48.8 58.6794 49.4078 58.9303 49.8941 59.3373L62.5388 70.2201C62.7718 70.4323 62.9337 70.7058 63.0039 71.0059C63.0742 71.306 63.0497 71.6192 62.9335 71.906C62.8173 72.1928 62.6147 72.4402 62.3512 72.6171C62.0878 72.7939 61.7753 72.8921 61.4534 72.8993V72.8942ZM90.0043 56.3108L64.7801 68.3286C64.6987 68.2457 64.6119 68.1679 64.525 68.0902L51.8804 57.2074C50.9217 56.382 49.7107 55.8726 48.4259 55.7541C47.141 55.6356 45.8504 55.9143 44.744 56.5492L39.1705 59.7415C38.8642 59.9165 38.5148 60.0109 38.1579 60.0149C37.801 60.0189 37.4493 59.9325 37.1388 59.7645C36.8282 59.5965 36.5699 59.3528 36.3901 59.0584C36.2103 58.7639 36.1154 58.4292 36.1152 58.0884V57.8033C36.1138 57.4446 36.2179 57.0928 36.4155 56.7877C36.6131 56.4826 36.8964 56.2366 37.2331 56.0776L45.5797 52.0925C47.0276 51.4059 48.6912 51.2581 50.2469 51.6779L59.6517 54.269L61.931 54.326L89.9989 40.2198L90.0043 56.3108Z" fill="#010101"/>
</svg>
