<svg width="94" height="94" viewBox="0 0 94 94" fill="none" xmlns="http://www.w3.org/2000/svg">
<path d="M62.0886 29.3183C63.9367 29.3183 65.4349 27.8273 65.4349 25.988C65.4349 24.1487 63.9367 22.6577 62.0886 22.6577C60.2404 22.6577 58.7422 24.1487 58.7422 25.988C58.7422 27.8273 60.2404 29.3183 62.0886 29.3183Z" fill="white"/>
<path d="M82.7753 16.7324L80.5154 16.9054L82.6014 34.4652L77.5601 34.8977L75.2133 17.684L69.3897 18.203L68.7813 13.2724L78.0816 12.3209C78.0816 12.3209 67.9608 0.383655 47.1628 0.816163C18.1075 1.24867 8.02495 22.009 8.02495 22.009H12.3709L11.5017 27.3721C11.5017 27.3721 3.679 25.1231 2.98365 33.9462C2.2883 42.7694 13.4139 39.4823 13.4139 39.4823L15.3261 44.4994C15.3261 44.4994 5.41738 47.7 0.723755 41.6449V45.3454C0.723755 45.3454 1.94062 47.181 6.11273 47.6135C7.59035 50.987 9.24181 54.0146 9.24181 54.0146L15.3261 46.4025C17.315 46.4743 19.3042 46.2705 21.2366 45.7969C21.0628 49.257 19.759 67.5953 19.759 67.5953H14.2831L15.4131 54.7066L8.80722 63.5297L3.2444 53.2361L2.72289 62.5782C2.72289 62.5782 12.5934 93.7395 47.1628 93.7395C81.7322 93.7395 94 62.4917 94 48.4785C94 34.4652 88.6857 24.6906 82.7753 16.7324ZM49.3984 16.2999L49.746 21.0575L41.4018 22.182L41.6626 26.1611L49.9199 24.8636L50.1806 29.9672L42.3579 31.2214L42.7925 34.9842L51.1367 33.9462L50.0068 39.0498L38.5335 40.4338L35.6026 18.2445L49.3984 16.2999ZM17.673 43.7209L14.5439 20.971L19.3244 20.3655L20.2805 29.1021L27.6686 27.9776L26.4518 19.241L31.58 18.722L34.7091 41.4719L29.8416 42.0774L28.364 32.9947L21.2366 33.9462L22.5404 43.1154L17.673 43.7209ZM35.467 69.0451L23.9398 68.2233L25.3201 45.8869L39.2271 46.5997L38.6552 51.3365L30.2484 50.8538L29.7547 54.8069L38.0989 55.1028L37.3757 60.1614L29.4557 59.9053L29.1602 63.682L37.5496 64.2494L35.467 69.0451ZM54.0816 70.2786L53.5844 66.8185L45.0907 65.803L43.7921 69.7717L38.0728 69.0797L47.2584 47.065L53.8451 47.8505L60.0546 71.0329L54.0816 70.2786ZM72.345 72.1816L62.0885 71.3166C62.0885 71.3166 62.1755 66.559 59.6548 61.1959C60.3502 52.4593 60.8717 48.4802 60.8717 48.4802H65.913L64.783 66.559L72.345 66.8185V72.1816ZM68.6944 36.37L67.4775 33.0829L58.9595 33.8615L58.5249 38.0135L52.7882 38.5325L57.1342 15.0906L63.74 14.4851L74.6918 35.851L68.6944 36.37Z" fill="white"/>
<path d="M49.4418 62.5542C51.29 62.5542 52.7882 61.0632 52.7882 59.2239C52.7882 57.3846 51.29 55.8936 49.4418 55.8936C47.5937 55.8936 46.0955 57.3846 46.0955 59.2239C46.0955 61.0632 47.5937 62.5542 49.4418 62.5542Z" fill="white"/>
</svg>
