<svg width="233" height="180" viewBox="0 0 233 180" fill="none" xmlns="http://www.w3.org/2000/svg">
<path d="M57.3844 49.3989L54.1916 46.3853C56.7378 43.0186 58.2418 38.9037 58.2418 34.461C58.2418 23.1145 48.4622 13.8838 36.4408 13.8838C24.4195 13.8838 14.6394 23.1145 14.6394 34.461C14.6394 45.8075 24.4195 55.0382 36.4408 55.0382C41.2965 55.0382 45.7859 53.5306 49.4133 50.9873L52.557 53.9545C53.2237 54.5833 54.0974 54.8978 54.9707 54.8978C55.844 54.8978 56.7177 54.5833 57.3844 53.9545C58.7169 52.6964 58.7169 50.657 57.3844 49.3989ZM36.4408 48.5952C28.183 48.5952 21.4656 42.2544 21.4656 34.461C21.4656 26.6676 28.1834 20.3268 36.4408 20.3268C44.6982 20.3268 51.4156 26.6676 51.4156 34.461C51.4156 37.1224 50.6315 39.6133 49.2713 41.7412L45.6193 38.2942C44.2859 37.0365 42.1252 37.0365 40.7923 38.2942C39.4594 39.5527 39.4594 41.5921 40.7923 42.8502L44.5094 46.3586C42.1789 47.7718 39.4107 48.5952 36.4408 48.5952Z" fill="black"/>
<path d="M220.394 0.000858586L12.607 0C5.65571 0 0 5.33775 0 11.8992V57.0242C0 63.5853 5.65571 68.9235 12.607 68.9235L144.583 68.923C146.468 68.923 147.996 67.4811 147.996 65.7016C147.996 63.922 146.468 62.4801 144.583 62.4801H73.0237V6.44379H220.394C223.581 6.44379 226.174 8.89081 226.174 11.8988V57.0255C226.174 60.0331 223.581 62.4801 220.394 62.4801H201.085C200.011 62.4801 198.999 62.9573 198.354 63.7691L187.296 77.6893L176.233 63.7687C175.588 62.9573 174.577 62.4801 173.503 62.4801H160.51C158.625 62.4801 157.097 63.922 157.097 65.7016C157.097 67.4811 158.625 68.923 160.51 68.923H171.796L184.566 84.9917C185.211 85.8031 186.223 86.2803 187.297 86.2803C188.371 86.2803 189.383 85.8027 190.027 84.9913L202.792 68.923H220.394C227.345 68.923 233 63.5857 233 57.0255V11.8988C233 5.33775 227.345 0.000858586 220.394 0.000858586ZM6.82617 57.0242V11.8992C6.82617 8.89038 9.41921 6.44293 12.607 6.44293H66.1957V62.4805H12.607C9.41921 62.4805 6.82617 60.0327 6.82617 57.0242Z" fill="black"/>
<path d="M203.579 34.4618C203.579 32.6822 202.052 31.2402 200.166 31.2402H86.6196C84.7342 31.2402 83.2065 32.6822 83.2065 34.4618C83.2065 36.2414 84.7342 37.6834 86.6196 37.6834H200.166C202.051 37.6834 203.579 36.2414 203.579 34.4618Z" fill="black"/>
<path d="M212.578 23.7981C214.463 23.7981 215.991 22.3564 215.991 20.5771C215.991 18.7977 214.463 17.356 212.578 17.356H129.371C127.486 17.356 125.958 18.7977 125.958 20.5771C125.958 22.3564 127.486 23.7981 129.371 23.7981H212.578Z" fill="black"/>
<path d="M86.6196 23.7981H113.282C115.168 23.7981 116.695 22.3564 116.695 20.5771C116.695 18.7977 115.168 17.356 113.282 17.356H86.6196C84.7342 17.356 83.2065 18.7977 83.2065 20.5771C83.2065 22.3564 84.7342 23.7981 86.6196 23.7981Z" fill="black"/>
<path d="M116.5 51.5669H184.996C186.881 51.5669 188.409 50.125 188.409 48.3455C188.409 46.5659 186.881 45.124 184.996 45.124H116.5C114.615 45.124 113.087 46.5659 113.087 48.3455C113.087 50.125 114.615 51.5669 116.5 51.5669Z" fill="black"/>
<path d="M86.6196 45.124C84.7342 45.124 83.2065 46.5659 83.2065 48.3455C83.2065 50.125 84.7342 51.5669 86.6196 51.5669H100.411C102.296 51.5669 103.824 50.125 103.824 48.3455C103.824 46.5659 102.296 45.124 100.411 45.124H86.6196Z" fill="black"/>
<path d="M200.515 110.178C200.504 110.148 200.492 110.119 200.479 110.09C199.822 108.581 198.28 107.606 196.551 107.606C196.55 107.606 196.549 107.606 196.548 107.606C194.818 107.608 193.276 108.585 192.621 110.097C192.61 110.121 192.6 110.145 192.59 110.17L178.781 144.392C178.109 146.055 178.994 147.916 180.755 148.55C182.516 149.183 184.489 148.349 185.16 146.686L187.762 140.237H205.238L207.813 146.676C208.328 147.966 209.627 148.761 211.007 148.761C211.407 148.761 211.814 148.694 212.211 148.553C213.975 147.925 214.865 146.066 214.199 144.402L200.515 110.178ZM190.362 133.794L196.541 118.483L202.662 133.794H190.362Z" fill="black"/>
<path d="M220.393 93.721L12.6057 93.7197C5.65526 93.7197 0 99.0592 0 105.622V150.745C0 157.307 5.65526 162.647 12.6057 162.647H30.2081L42.973 178.711C43.6174 179.523 44.6291 180 45.703 180H45.7035C46.7775 180 47.7891 179.523 48.4335 178.712L61.2035 162.647H73.6822C75.5675 162.647 77.0952 161.205 77.0952 159.425C77.0952 157.646 75.5675 156.204 73.6822 156.204H59.4974C58.4234 156.204 57.4117 156.681 56.7674 157.492L45.704 171.41L34.6451 157.492C34.0007 156.681 32.9886 156.204 31.9146 156.204H12.6057C9.41875 156.204 6.82617 153.755 6.82617 150.745V105.622C6.82617 102.612 9.41875 100.163 12.6057 100.163H159.976V156.204H89.6094C87.724 156.204 86.1964 157.646 86.1964 159.425C86.1964 161.205 87.724 162.647 89.6094 162.647L220.393 162.645C227.344 162.645 233 157.307 233 150.746V105.62C233 99.0592 227.344 93.721 220.393 93.721ZM226.174 150.746C226.174 153.755 223.581 156.202 220.393 156.202H166.804V100.164H220.393C223.581 100.164 226.174 102.611 226.174 105.62V150.746Z" fill="black"/>
<path d="M32.8339 131.403H146.38C148.266 131.403 149.794 129.962 149.794 128.182C149.794 126.403 148.266 124.961 146.38 124.961H32.8339C30.9485 124.961 29.4208 126.403 29.4208 128.182C29.4208 129.962 30.9489 131.403 32.8339 131.403Z" fill="black"/>
<path d="M107.042 114.298C107.042 112.518 105.514 111.076 103.629 111.076H20.4221C18.5367 111.076 17.009 112.518 17.009 114.298C17.009 116.077 18.5367 117.519 20.4221 117.519H103.629C105.514 117.519 107.042 116.077 107.042 114.298Z" fill="black"/>
<path d="M146.38 117.519C148.266 117.519 149.793 116.077 149.793 114.298C149.793 112.518 148.266 111.076 146.38 111.076H119.718C117.832 111.076 116.305 112.518 116.305 114.298C116.305 116.077 117.832 117.519 119.718 117.519H146.38Z" fill="black"/>
<path d="M48.0039 145.289H116.5C118.385 145.289 119.913 143.847 119.913 142.068C119.913 140.288 118.385 138.846 116.5 138.846H48.0039C46.1185 138.846 44.5908 140.288 44.5908 142.068C44.5908 143.847 46.119 145.289 48.0039 145.289Z" fill="black"/>
<path d="M146.381 138.846H132.589C130.704 138.846 129.176 140.288 129.176 142.068C129.176 143.847 130.704 145.289 132.589 145.289H146.381C148.266 145.289 149.794 143.847 149.794 142.068C149.794 140.288 148.266 138.846 146.381 138.846Z" fill="black"/>
</svg>
