<svg width="97" height="93" viewBox="0 0 97 93" fill="none" xmlns="http://www.w3.org/2000/svg">
<path d="M70.7141 81.9113C71.1591 81.0627 71.8816 80.3771 72.7713 79.9593C72.0267 78.4551 70.7741 77.2361 69.2164 76.4999C69.0321 76.413 68.8676 76.2919 68.7324 76.1437C68.5971 75.9954 68.4939 75.823 68.4284 75.6363C68.363 75.4496 68.3368 75.2524 68.3513 75.0559C68.3658 74.8595 68.4207 74.6678 68.5129 74.4918L69.6215 72.3456C70.205 71.2319 70.4705 69.9899 70.3909 68.7459C70.3114 67.5019 69.8896 66.3003 69.1685 65.2633L68.321 64.0625C67.6297 63.0775 67.2587 61.9181 67.2551 60.7309V59.995C67.2481 56.0222 65.6 52.2138 62.6714 49.4031C59.7428 46.5924 55.7722 45.0084 51.6285 44.9976H45.3715C41.2249 45.0043 37.2503 46.5866 34.3183 49.3977C31.3862 52.2088 29.7359 56.0195 29.7289 59.995V60.7309C29.7259 61.9182 29.3548 63.0778 28.6629 64.0625L27.8155 65.2633C27.0944 66.3003 26.6726 67.5019 26.593 68.7459C26.5135 69.9899 26.7789 71.2319 27.3625 72.3456L28.4711 74.4918C28.5596 74.677 28.6087 74.8773 28.6155 75.081C28.6223 75.2846 28.5867 75.4875 28.5108 75.6778C28.4349 75.8681 28.3201 76.042 28.1733 76.1893C28.0265 76.3366 27.8505 76.4544 27.6556 76.5357C26.1416 77.2717 24.9292 78.4737 24.2126 79.9491C25.1021 80.3672 25.8246 81.0527 26.2699 81.9011L26.4991 82.3405H34.7494C35.7465 81.6674 36.8192 81.1035 37.9472 80.6594C38.316 79.869 38.914 79.1968 39.6699 78.723C40.4258 78.2492 41.3079 77.9937 42.211 77.9869C42.4463 77.9873 42.6813 78.0027 42.9145 78.0329C41.277 77.1015 39.9208 75.7771 38.9797 74.1903C38.0386 72.6034 37.545 70.8088 37.5475 68.9833V64.1391C37.55 62.5084 38.1056 60.9226 39.1304 59.6211C40.1552 58.3196 41.5938 57.373 43.2289 56.924L45.8351 56.2086C47.3617 57.8672 49.475 58.9249 51.7671 59.1775L55.258 59.5352C56.408 59.6596 57.4699 60.1859 58.2407 61.0135C59.0115 61.8411 59.4372 62.9121 59.4365 64.0216V68.9833C59.4348 70.8109 58.9359 72.6064 57.9891 74.1926C57.0422 75.7787 55.6802 77.1007 54.0375 78.0278C54.2707 77.9976 54.5057 77.9822 54.741 77.9818C55.6441 77.9886 56.5262 78.2441 57.2821 78.7179C58.038 79.1917 58.636 79.8639 59.0048 80.6543C60.1328 81.0984 61.2055 81.6623 62.2026 82.3354H70.4316L70.7141 81.9113Z" fill="#EFBC5F"/>
<path d="M23.4505 27.0006C23.6585 26.9966 23.8653 27.0323 24.0587 27.1056C24.2522 27.179 24.4285 27.2885 24.5773 27.4279C24.7262 27.5672 24.8446 27.7336 24.9256 27.9173C25.0067 28.101 25.0487 28.2983 25.0494 28.4978H28.1779C28.1369 27.3308 27.6245 26.2248 26.7489 25.4131C25.8733 24.6015 24.7031 24.1478 23.4851 24.1478C22.2672 24.1478 21.097 24.6015 20.2214 25.4131C19.3458 26.2248 18.8334 27.3308 18.7924 28.4978H21.9049C21.9063 28.1038 22.069 27.726 22.3581 27.446C22.6473 27.1659 23.0396 27.006 23.4505 27.0006Z" fill="#010101"/>
<path d="M35.986 27.0008C36.4016 27.0008 36.8001 27.1591 37.094 27.4408C37.3878 27.7225 37.5529 28.1046 37.5529 28.5031H40.6814C40.6404 27.336 40.128 26.23 39.2524 25.4183C38.3768 24.6067 37.2066 24.153 35.9887 24.153C34.7707 24.153 33.6005 24.6067 32.7249 25.4183C31.8493 26.23 31.3369 27.336 31.2959 28.5031H34.4244C34.4244 28.1055 34.5888 27.7242 34.8815 27.4426C35.1742 27.161 35.5713 27.0021 35.986 27.0008Z" fill="#010101"/>
<path d="M35.6554 38.4878L35.8207 38.171L33.0439 36.8271L32.8787 37.1439C32.5886 37.7014 32.1422 38.1703 31.5896 38.4981C31.0369 38.8258 30.4 38.9994 29.7502 38.9994C29.1004 38.9994 28.4634 38.8258 27.9108 38.4981C27.3582 38.1703 26.9118 37.7014 26.6217 37.1439L26.4564 36.8271L23.6317 38.171L23.7969 38.4878C24.3464 39.5447 25.1923 40.4338 26.2396 41.0553C27.287 41.6768 28.4944 42.0061 29.7262 42.0061C30.958 42.0061 32.1653 41.6768 33.2127 41.0553C34.2601 40.4338 35.106 39.5447 35.6554 38.4878Z" fill="#010101"/>
<path d="M61.0141 27.0006C61.4296 27.0006 61.8282 27.1588 62.122 27.4406C62.4159 27.7223 62.581 28.1044 62.581 28.5029H65.7095C65.7307 27.8993 65.6251 27.2977 65.3988 26.7341C65.1725 26.1704 64.8302 25.6562 64.3924 25.222C63.9545 24.7878 63.43 24.4425 62.8501 24.2067C62.2701 23.9709 61.6467 23.8494 61.0167 23.8494C60.3868 23.8494 59.7633 23.9709 59.1834 24.2067C58.6035 24.4425 58.079 24.7878 57.6411 25.222C57.2032 25.6562 56.861 26.1704 56.6347 26.7341C56.4084 27.2977 56.3027 27.8993 56.324 28.5029H59.4525C59.4525 28.1053 59.6168 27.724 59.9095 27.4424C60.2022 27.1608 60.5994 27.0019 61.0141 27.0006Z" fill="#010101"/>
<path d="M73.5494 27.0008C73.965 27.0008 74.3635 27.1591 74.6574 27.4408C74.9512 27.7225 75.1163 28.1046 75.1163 28.5031H78.2448C78.2038 27.336 77.6914 26.23 76.8158 25.4183C75.9402 24.6067 74.77 24.153 73.552 24.153C72.3341 24.153 71.1638 24.6067 70.2883 25.4183C69.4127 26.23 68.9003 27.336 68.8593 28.5031H71.9505C71.9504 28.3032 71.992 28.1053 72.0727 27.921C72.1535 27.7367 72.2718 27.5697 72.4207 27.4298C72.5696 27.2899 72.7461 27.1799 72.9399 27.1062C73.1337 27.0325 73.3409 26.9967 73.5494 27.0008Z" fill="#010101"/>
<path d="M62.5809 34.2363L62.501 34.0063L59.5323 34.9619L59.6123 35.1867C60.1488 36.7272 61.1771 38.0669 62.5516 39.0162C63.926 39.9654 65.5771 40.4762 67.2711 40.4762C68.965 40.4762 70.6161 39.9654 71.9905 39.0162C73.365 38.0669 74.3933 36.7272 74.9298 35.1867L75.0098 34.9568L72.0411 34.0012L71.9505 34.2363C71.6225 35.1809 70.9928 36.0026 70.1505 36.5849C69.3082 37.1672 68.2961 37.4806 67.2577 37.4806C66.2193 37.4806 65.2072 37.1672 64.3649 36.5849C63.5227 36.0026 62.8929 35.1809 62.5649 34.2363H62.5809Z" fill="#010101"/>
<path d="M89.7303 51.5537C88.587 50.8281 87.3533 50.2428 86.0582 49.8112C89.097 45.9953 90.7415 41.3265 90.7376 36.5255V22.4835C90.7339 17.9293 89.2877 13.4836 86.5905 9.73477C83.8933 5.98597 80.0723 3.11085 75.6332 1.48999C71.1942 -0.130869 66.3464 -0.421045 61.7315 0.65787C57.1167 1.73679 52.9524 4.13392 49.7898 7.53198C48.0842 5.20723 45.8208 3.30952 43.1903 1.99873C40.5599 0.687936 37.6394 0.00244451 34.6748 0L24.7776 0C19.8674 0.00540966 15.1599 1.87795 11.6878 5.20684C8.21576 8.53573 6.26268 13.0491 6.25703 17.7569C6.26511 20.6737 6.70658 23.5747 7.56813 26.3721C6.72599 27.4096 6.26673 28.6856 6.26236 30.0002C6.26377 31.5899 6.92271 33.1142 8.09468 34.2388C9.26664 35.3634 10.856 35.9965 12.5141 35.9992H13.1696C14.4284 40.2137 17.3778 43.7783 21.372 45.9124L20.5725 49.7499L12.3862 51.4924C8.87409 52.2408 5.73306 54.1148 3.48129 56.8051C1.22953 59.4953 0.00156352 62.8412 0 66.2906L0 82.4992C0.00282207 85.2833 1.15765 87.9527 3.21102 89.9214C5.2644 91.8901 8.04856 92.9973 10.9525 93H86.0529C88.9545 92.9946 91.7357 91.8871 93.7874 89.9199C95.8392 87.9528 96.9944 85.2863 97 82.5043V64.4715C96.9988 61.9089 96.3333 59.3869 95.0634 57.132C93.7936 54.8772 91.9591 52.9603 89.725 51.5537H89.7303ZM67.2711 3.00973C72.6592 3.01512 77.8255 5.06757 81.6385 8.71757C85.4515 12.3676 87.6003 17.3176 87.6144 22.4835V36.5153C87.6139 41.1222 85.8589 45.5704 82.6792 49.0243L76.3582 48.1607L75.4148 44.5327C78.1524 43.1198 80.44 41.0228 82.0352 38.4643C83.6303 35.9057 84.4735 32.981 84.4753 30.0002V25.1355C84.4726 23.2283 83.7132 21.3934 82.3513 20.0032C80.9894 18.613 79.1269 17.7715 77.1416 17.6496L68.902 17.1386C66.3426 16.9768 63.9426 15.8899 62.1867 14.0973C60.4307 12.3047 59.4498 9.94004 59.4418 7.48088H56.3133C56.3124 9.39873 56.7681 11.2915 57.6457 13.0149C55.8973 13.7349 54.344 14.8291 53.1048 16.2137C52.9206 14.1564 52.3595 12.1464 51.4473 10.276C53.3551 8.01057 55.766 6.18182 58.5044 4.92301C61.2427 3.66421 64.2396 3.00707 67.2764 2.99951L67.2711 3.00973ZM46.8585 32.9997C46.9064 32.4887 46.9384 32.0084 46.9384 31.4974V27.0007C47.7681 27.0007 48.5639 27.3167 49.1506 27.8792C49.7373 28.4417 50.0669 29.2046 50.0669 30.0002C50.0669 30.7957 49.7373 31.5586 49.1506 32.1211C48.5639 32.6837 47.7681 32.9997 46.9384 32.9997H46.8585ZM53.1954 24.0676C53.1939 22.2175 53.7878 20.412 54.8962 18.8976C56.0046 17.3831 57.5734 16.2335 59.3885 15.6056C60.5382 16.9339 61.9592 18.0226 63.5642 18.8047C65.1691 19.5868 66.9239 20.0458 68.7208 20.1534L76.9604 20.6644C78.151 20.7383 79.2677 21.2435 80.0842 22.0776C80.9007 22.9116 81.3559 24.0121 81.3574 25.156V30.0206C81.3574 31.7935 80.9932 33.549 80.2856 35.187C79.5779 36.8249 78.5407 38.3132 77.2332 39.5668C75.9257 40.8204 74.3734 41.8148 72.665 42.4933C70.9566 43.1717 69.1256 43.5209 67.2764 43.5209C65.4273 43.5209 63.5963 43.1717 61.8879 42.4933C60.1795 41.8148 58.6272 40.8204 57.3197 39.5668C56.0121 38.3132 54.9749 36.8249 54.2673 35.187C53.5597 33.549 53.1954 31.7935 53.1954 30.0206V24.0676ZM12.5141 32.9997C11.6843 32.9997 10.8886 32.6837 10.3019 32.1211C9.71516 31.5586 9.38555 30.7957 9.38555 30.0002C9.38555 29.2046 9.71516 28.4417 10.3019 27.8792C10.8886 27.3167 11.6843 27.0007 12.5141 27.0007V31.5025C12.5141 32.0135 12.5727 32.5244 12.6207 33.0048L12.5141 32.9997ZM12.5567 24.0165H12.5141C11.7362 24.0201 10.966 24.164 10.2436 24.4406C9.67869 22.2677 9.39057 20.0371 9.38555 17.7977C9.38205 15.8569 9.77748 13.9344 10.5492 12.1402C11.321 10.3459 12.454 8.71506 13.8834 7.34078C15.3128 5.9665 17.0107 4.87575 18.88 4.13085C20.7493 3.38595 22.7533 3.00152 24.7776 2.99951H34.6748C38.7558 3.00356 42.6684 4.55966 45.554 7.32632C48.4397 10.093 50.0627 13.8442 50.0669 17.7569C50.062 19.9963 49.7739 22.2268 49.2088 24.3997C48.482 24.1365 47.71 24.0065 46.9331 24.0165H46.7732C46.4137 22.322 45.4554 20.7983 44.0602 19.7026C42.6649 18.6069 40.918 18.0063 39.1144 18.0021H25.7903C24.8651 18.004 23.9694 17.6897 23.2641 17.1156C22.5588 16.5415 22.0899 15.7452 21.9416 14.8696C21.7934 13.994 21.9754 13.0964 22.4552 12.3379C22.9349 11.5794 23.6808 11.0096 24.5591 10.7308L25.5238 10.4242L24.5165 7.57797L23.5518 7.88456C22.1542 8.33021 20.9386 9.18669 20.0775 10.3324C19.2165 11.478 18.7538 12.8547 18.7551 14.2668C18.7562 14.5264 18.7722 14.7857 18.8031 15.0435L17.8491 15.5903C16.3186 16.4761 15.0367 17.7066 14.1144 19.175C13.1922 20.6433 12.6575 22.3052 12.5567 24.0165ZM15.6426 24.6297C15.6466 23.331 16.0005 22.0553 16.67 20.9264C17.3395 19.7974 18.302 18.8535 19.464 18.1861L19.901 17.9357C20.539 18.8774 21.4125 19.6512 22.4421 20.1866C23.4716 20.7221 24.6244 21.0023 25.7956 21.0016H39.1198C40.3647 21.003 41.5581 21.4777 42.4384 22.3217C43.3187 23.1657 43.8138 24.3099 43.8152 25.5035V31.5025C43.817 33.8319 43.1851 36.1216 41.9818 38.1453L40.2497 34.829C39.7342 33.8265 38.9352 32.983 37.9439 32.3948C36.9525 31.8066 35.8087 31.4974 34.6429 31.5025H24.8043C23.6379 31.4952 22.4929 31.8022 21.4997 32.3885C20.5065 32.9749 19.7051 33.817 19.1868 34.8188L17.4547 38.1351C16.2514 36.1114 15.6194 33.8217 15.6213 31.4923L15.6426 24.6297ZM19.5706 40.828L22.0062 36.1576C22.2642 35.6578 22.663 35.2372 23.1576 34.9437C23.6522 34.6502 24.2226 34.4954 24.8043 34.4969H34.6429C35.2239 34.4949 35.794 34.6489 36.2885 34.9415C36.783 35.2341 37.1822 35.6536 37.4409 36.1525L39.8766 40.8229C38.5669 42.1418 36.9914 43.1919 35.2456 43.9093C33.4999 44.6268 31.6203 44.9968 29.7209 44.9968C27.8215 44.9968 25.9419 44.6268 24.1962 43.9093C22.4504 43.1919 20.8749 42.1418 19.5652 40.8229L19.5706 40.828ZM21.6331 52.5808L26.9895 55.6467L22.5285 59.0703L19.7944 52.9385L21.6331 52.5808ZM3.12852 82.4992V66.2906C3.12996 63.5239 4.11492 60.8402 5.92093 58.6823C7.72694 56.5244 10.2461 55.0211 13.063 54.4203L16.6925 53.6538L21.276 63.9094L30.006 57.2052C30.3318 55.5674 30.9426 53.9937 31.8128 52.5501L29.7236 53.7509L23.6531 50.2558L24.3033 47.1438C27.8216 48.2795 31.6309 48.2795 35.1492 47.1438L35.4157 48.4366C36.286 47.7498 37.2313 47.1553 38.2351 46.6635L38.0752 45.9072C40.5478 44.5856 42.645 42.7031 44.183 40.4243C44.4827 42.0021 44.9598 43.544 45.606 45.0232H49.0649C47.6781 42.3906 46.9482 39.485 46.9331 36.5357V36.0247C48.3331 36.0182 49.6895 35.5571 50.7811 34.7166C52.1061 38.9242 55.1197 42.455 59.1593 44.5327L58.6264 46.5766C59.6134 47.0487 60.5459 47.619 61.4085 48.2782L62.08 45.7233C65.4785 46.7689 69.133 46.7689 72.5315 45.7233L73.4429 49.2236L73.299 49.428C72.4218 50.7155 71.1148 51.6796 69.5919 52.1623C68.0689 52.645 66.4201 52.6178 64.9154 52.0851C65.6116 53.1419 66.1667 54.2784 66.5676 55.4679C66.8127 55.4679 67.0579 55.5036 67.3031 55.5036C68.9955 55.4979 70.6605 55.0932 72.1513 54.3251C73.6421 53.5569 74.913 52.449 75.8519 51.0989L82.5033 52.0085C84.5117 52.2854 86.4275 52.9985 88.1048 54.0933C89.8838 55.2281 91.3423 56.7672 92.3504 58.5735C93.3584 60.3799 93.8846 62.3973 93.8821 64.4459V71.9984H87.6144V62.9998H84.4859V81.002H80.4407L79.103 79.7143C78.435 79.0739 77.6213 78.5906 76.7258 78.3024C75.8303 78.0142 74.8773 77.9289 73.9416 78.0532C73.006 78.1774 72.113 78.5079 71.3329 79.0186C70.5529 79.5294 69.9069 80.2065 69.4456 80.9969H68.8434C67.3802 81.0026 65.9663 81.5039 64.8514 82.4123C63.4521 81.2219 61.8703 80.2447 60.1613 79.515C59.5643 78.5238 58.6841 77.7171 57.6244 77.19C59.8022 74.9792 61.0184 72.0551 61.0247 69.0142V64.0269C61.0242 62.546 60.4523 61.1176 59.4191 60.0166C58.386 58.9157 56.9646 58.2201 55.4286 58.0637L51.9376 57.6907C50.3719 57.5198 48.8978 56.8951 47.7122 55.8999C46.5265 54.9046 45.6858 53.5863 45.3022 52.1209L42.2696 52.8516C42.4978 53.7222 42.8436 54.5605 43.2982 55.3452L42.7653 55.4883C40.8067 56.0299 39.0842 57.1659 37.8561 58.7257C36.628 60.2855 35.9606 62.185 35.954 64.1393V68.9835C35.9603 72.0245 37.1764 74.9486 39.3543 77.1593C38.2946 77.6864 37.4144 78.4932 36.8174 79.4843C35.1082 80.2137 33.5263 81.1909 32.1273 82.3816C31.0123 81.4733 29.5984 80.9719 28.1353 80.9662H27.5597C27.0958 80.1772 26.4474 79.5019 25.6655 78.9936C24.8836 78.4852 23.9894 78.1575 23.0531 78.0362C22.1169 77.9149 21.1641 78.0033 20.2694 78.2944C19.3748 78.5856 18.5628 79.0716 17.897 79.7143L16.5593 80.9969H12.5141V62.9998H9.38555V81.002H6.25703V84.0015H15.6426V90.0005H10.9525C8.87786 89.9991 6.88863 89.2084 5.42166 87.8019C3.95469 86.3954 3.12993 84.4882 3.12852 82.4992ZM33.9926 84.8753C34.6375 84.3071 35.333 83.7941 36.0712 83.3423C36.2742 84.7729 37.0094 86.0851 38.1416 87.0372C39.2737 87.9893 40.7264 88.5172 42.2323 88.5237C42.4029 89.0533 42.6467 89.5585 42.9571 90.026H33.5769C34.0546 89.2639 34.343 88.4067 34.4197 87.5206C34.4964 86.6345 34.3594 85.7433 34.0193 84.9162L33.9926 84.8753ZM45.3662 80.6034C47.4158 81.1292 49.5736 81.1292 51.6232 80.6034V80.9969C51.6232 81.7924 51.2936 82.5553 50.7069 83.1178C50.1202 83.6804 49.3244 83.9964 48.4947 83.9964C47.6649 83.9964 46.8692 83.6804 46.2825 83.1178C45.6958 82.5553 45.3662 81.7924 45.3662 80.9969V80.6034ZM54.7517 80.9969V79.4946C55.5814 79.4946 56.3772 79.8106 56.9639 80.3731C57.5506 80.9356 57.8802 81.6985 57.8802 82.4941C57.8802 83.2896 57.5506 84.0525 56.9639 84.615C56.3772 85.1776 55.5814 85.4936 54.7517 85.4936C54.4624 85.4879 54.1753 85.4432 53.899 85.3607L53.0142 85.1206C54.1259 84.0119 54.7483 82.5347 54.7517 80.9969ZM48.5 78.0025C47.2661 78.0011 46.0445 77.7668 44.905 77.3128C43.7656 76.8588 42.7305 76.1941 41.859 75.3567C40.9875 74.5192 40.2965 73.5253 39.8256 72.4318C39.3547 71.3383 39.113 70.1666 39.1144 68.9835V64.1393C39.1184 62.8369 39.5625 61.5708 40.3802 60.5307C41.1979 59.4906 42.3452 58.7326 43.65 58.3703L45.3875 57.8951C47.0954 59.4349 49.2775 60.4029 51.6072 60.6544L55.0981 61.0274C55.8647 61.108 56.5732 61.4572 57.0876 62.008C57.602 62.5587 57.8862 63.2723 57.8856 64.0116V68.9835C57.887 70.1666 57.6453 71.3383 57.1744 72.4318C56.7035 73.5253 56.0125 74.5192 55.141 75.3567C54.2695 76.1941 53.2344 76.8588 52.095 77.3128C50.9555 77.7668 49.7339 78.0011 48.5 78.0025ZM42.243 79.5048V81.0071C42.2464 82.5449 42.8688 84.0222 43.9804 85.1308L43.0957 85.3709C42.8194 85.4534 42.5323 85.4981 42.243 85.5038C41.4132 85.5038 40.6175 85.1878 40.0308 84.6253C39.4441 84.0627 39.1144 83.2998 39.1144 82.5043C39.1144 81.7088 39.4441 80.9458 40.0308 80.3833C40.6175 79.8208 41.4132 79.5048 42.243 79.5048ZM45.089 86.7864V86.0148C46.1045 86.6593 47.2955 87.003 48.5133 87.003C49.7312 87.003 50.9221 86.6593 51.9376 86.0148V86.7864C51.9376 87.6537 51.5783 88.4855 50.9386 89.0988C50.2989 89.7122 49.4313 90.0567 48.5266 90.0567C47.622 90.0567 46.7544 89.7122 46.1147 89.0988C45.475 88.4855 45.1157 87.6537 45.1157 86.7864H45.089ZM54.7677 88.5033C56.2736 88.4968 57.7263 87.9688 58.8584 87.0168C59.9905 86.0647 60.7258 84.7525 60.9288 83.3219C61.6664 83.7745 62.3618 84.2874 63.0074 84.8548C62.666 85.6818 62.5284 86.5731 62.6051 87.4594C62.6819 88.3457 62.9709 89.203 63.4497 89.9647H54.0429C54.3516 89.5083 54.597 89.0153 54.773 88.4982L54.7677 88.5033ZM18.7711 90.0056V83.1226L20.1088 81.84C20.443 81.516 20.8529 81.2731 21.3047 81.1316C21.7565 80.9902 22.2369 80.9541 22.7061 81.0266C23.1753 81.0991 23.6197 81.278 24.0022 81.5483C24.3848 81.8187 24.6945 82.1727 24.9056 82.5809L25.6464 84.0015H28.178C29.0077 84.0015 29.8035 84.3175 30.3902 84.88C30.9769 85.4425 31.3065 86.2055 31.3065 87.001C31.3065 87.7965 30.9769 88.5594 30.3902 89.122C29.8035 89.6845 29.0077 90.0005 28.178 90.0005L18.7711 90.0056ZM86.0475 90.0056H68.8327C68.003 90.0056 67.2072 89.6896 66.6205 89.1271C66.0338 88.5646 65.7042 87.8016 65.7042 87.0061C65.7042 86.2106 66.0338 85.4476 66.6205 84.8851C67.2072 84.3226 68.003 84.0066 68.8327 84.0066H71.3643L72.1051 82.5912C72.3157 82.1825 72.625 81.828 73.0073 81.5572C73.3896 81.2863 73.8339 81.1069 74.3031 81.0339C74.7723 80.961 75.253 80.9965 75.705 81.1376C76.157 81.2787 76.5673 81.5212 76.9018 81.8451L79.1563 84.0066H90.7536V81.0071H87.6251V74.9979H93.8875V82.4992C93.8847 84.4873 93.0593 86.3932 91.5924 87.7986C90.1256 89.204 88.1372 89.994 86.0635 89.9954L86.0475 90.0056Z" fill="#010101"/>
<path d="M43.8046 67.5013C44.67 67.5013 45.3715 66.8287 45.3715 65.999C45.3715 65.1693 44.67 64.4967 43.8046 64.4967C42.9392 64.4967 42.2377 65.1693 42.2377 65.999C42.2377 66.8287 42.9392 67.5013 43.8046 67.5013Z" fill="#010101"/>
<path d="M53.1955 67.5013C54.0608 67.5013 54.7624 66.8287 54.7624 65.999C54.7624 65.1693 54.0608 64.4967 53.1955 64.4967C52.3301 64.4967 51.6285 65.1693 51.6285 65.999C51.6285 66.8287 52.3301 67.5013 53.1955 67.5013Z" fill="#010101"/>
<path d="M51.6284 70.1431C51.3383 70.7006 50.8919 71.1695 50.3393 71.4973C49.7867 71.825 49.1497 71.9987 48.4999 71.9987C47.8501 71.9987 47.2131 71.825 46.6605 71.4973C46.1079 71.1695 45.6615 70.7006 45.3714 70.1431L45.2062 69.8263L42.4081 71.1702L42.5733 71.487C43.1241 72.5424 43.9705 73.4299 45.0178 74.0502C46.065 74.6705 47.2716 74.9991 48.5026 74.9991C49.7335 74.9991 50.9402 74.6705 51.9874 74.0502C53.0346 73.4299 53.881 72.5424 54.4318 71.487L54.597 71.1702L51.799 69.8263L51.6284 70.1431Z" fill="#010101"/>
</svg>
