<svg width="112" height="55" viewBox="0 0 112 55" fill="none" xmlns="http://www.w3.org/2000/svg">
<circle cx="27.5" cy="27.5" r="27.5" fill="#FEDC3D"/>
<path d="M69.9238 26.1045C70.375 26.1045 70.7692 25.9678 71.1064 25.6943C71.4437 25.4209 71.6305 25.0791 71.667 24.6689H72.8633C72.8405 25.0928 72.6947 25.4961 72.4258 25.8789C72.1569 26.2617 71.7969 26.5671 71.3457 26.7949C70.8991 27.0228 70.4251 27.1367 69.9238 27.1367C68.9167 27.1367 68.1146 26.8018 67.5176 26.1318C66.9251 25.4574 66.6289 24.5368 66.6289 23.3701V23.1582C66.6289 22.4382 66.7611 21.7979 67.0254 21.2373C67.2897 20.6768 67.668 20.2415 68.1602 19.9316C68.6569 19.6217 69.2425 19.4668 69.917 19.4668C70.7464 19.4668 71.4346 19.7152 71.9814 20.2119C72.5329 20.7087 72.8268 21.3535 72.8633 22.1465H71.667C71.6305 21.668 71.4482 21.276 71.1201 20.9707C70.7965 20.6608 70.3955 20.5059 69.917 20.5059C69.2744 20.5059 68.7754 20.7383 68.4199 21.2031C68.069 21.6634 67.8936 22.3311 67.8936 23.2061V23.4453C67.8936 24.2975 68.069 24.9538 68.4199 25.4141C68.7708 25.8743 69.2721 26.1045 69.9238 26.1045ZM78.5439 25.3252L81.0596 19.6035H82.6387V27H81.374V21.6201L78.9814 27H78.1064L75.666 21.5039V27H74.4014V19.6035H76.042L78.5439 25.3252ZM88.9346 25.3252L91.4502 19.6035H93.0293V27H91.7646V21.6201L89.3721 27H88.4971L86.0566 21.5039V27H84.792V19.6035H86.4326L88.9346 25.3252ZM68.3379 35.6035V41.9678H71.0449V35.6035H72.3096V41.9678H75.0098V35.6035H76.2812V43H67.0664V35.6035H68.3379ZM80.5811 39.8486H79.6582V43H78.3867V35.6035H79.6582V38.7344H80.4854L82.9736 35.6035H84.5049L81.5791 39.1582L84.751 43H83.1445L80.5811 39.8486ZM85.3525 39.2334C85.3525 38.5088 85.4938 37.8571 85.7764 37.2783C86.0635 36.6995 86.46 36.2529 86.9658 35.9385C87.4762 35.624 88.0573 35.4668 88.709 35.4668C89.7161 35.4668 90.5296 35.8154 91.1494 36.5127C91.7738 37.21 92.0859 38.1374 92.0859 39.2949V39.3838C92.0859 40.1038 91.9469 40.751 91.6689 41.3252C91.3955 41.8949 91.0013 42.3392 90.4863 42.6582C89.9759 42.9772 89.388 43.1367 88.7227 43.1367C87.7201 43.1367 86.9066 42.7881 86.2822 42.0908C85.6624 41.3936 85.3525 40.4707 85.3525 39.3223V39.2334ZM86.624 39.3838C86.624 40.2041 86.8132 40.8626 87.1914 41.3594C87.5742 41.8561 88.0846 42.1045 88.7227 42.1045C89.3652 42.1045 89.8757 41.8538 90.2539 41.3525C90.6322 40.8467 90.8213 40.1403 90.8213 39.2334C90.8213 38.4222 90.6276 37.766 90.2402 37.2646C89.8574 36.7588 89.347 36.5059 88.709 36.5059C88.0846 36.5059 87.5811 36.7542 87.1982 37.251C86.8154 37.7477 86.624 38.4587 86.624 39.3838ZM99.626 35.6035V43H98.3545V36.6494H95.8389L95.6885 39.418C95.6064 40.6895 95.3923 41.5986 95.0459 42.1455C94.7041 42.6924 94.1595 42.9772 93.4121 43H92.9062V41.8857L93.2686 41.8584C93.6787 41.8128 93.9727 41.5758 94.1504 41.1475C94.3281 40.7191 94.4421 39.9261 94.4922 38.7686L94.6289 35.6035H99.626ZM106.223 43C106.15 42.8542 106.09 42.5944 106.045 42.2207C105.457 42.8314 104.755 43.1367 103.939 43.1367C103.21 43.1367 102.611 42.9316 102.142 42.5215C101.677 42.1068 101.444 41.5827 101.444 40.9492C101.444 40.179 101.736 39.582 102.319 39.1582C102.907 38.7298 103.732 38.5156 104.794 38.5156H106.024V37.9346C106.024 37.4925 105.892 37.1416 105.628 36.8818C105.364 36.6175 104.974 36.4854 104.459 36.4854C104.008 36.4854 103.63 36.5993 103.324 36.8271C103.019 37.055 102.866 37.3307 102.866 37.6543H101.595C101.595 37.2852 101.725 36.9297 101.984 36.5879C102.249 36.2415 102.604 35.9681 103.051 35.7676C103.502 35.5671 103.996 35.4668 104.534 35.4668C105.386 35.4668 106.054 35.681 106.537 36.1094C107.02 36.5332 107.271 37.1188 107.289 37.8662V41.2705C107.289 41.9495 107.376 42.4896 107.549 42.8906V43H106.223ZM104.124 42.0361C104.521 42.0361 104.896 41.9336 105.252 41.7285C105.607 41.5234 105.865 41.2568 106.024 40.9287V39.4111H105.033C103.484 39.4111 102.709 39.8646 102.709 40.7715C102.709 41.168 102.841 41.4779 103.105 41.7012C103.37 41.9245 103.709 42.0361 104.124 42.0361Z" fill="black"/>
</svg>
