<svg width="107" height="92" viewBox="0 0 107 92" fill="none" xmlns="http://www.w3.org/2000/svg">
<path d="M53.1646 78.6446C74.0035 78.6446 90.8968 64.0284 90.8968 45.9983C90.8968 27.9683 74.0035 13.3521 53.1646 13.3521C32.3257 13.3521 15.4325 27.9683 15.4325 45.9983C15.4325 64.0284 32.3257 78.6446 53.1646 78.6446Z" fill="#EEBC60"/>
<path d="M42.8763 68.2591C44.24 68.2574 45.5473 67.7879 46.5116 66.9536C47.4759 66.1193 48.0185 64.9882 48.0204 63.8083V4.45101C48.0185 3.27111 47.4759 2.14001 46.5116 1.30569C45.5473 0.471376 44.24 0.00191895 42.8763 0.000244141L5.14413 0.000244141C3.78042 0.00191895 2.47311 0.471376 1.50882 1.30569C0.544527 2.14001 0.00193572 3.27111 0 4.45101L0 63.8051C0.00193572 64.985 0.544527 66.1161 1.50882 66.9504C2.47311 67.7848 3.78042 68.2542 5.14413 68.2559H42.8763V68.2591ZM44.5922 53.4221H3.43186V11.8711H44.5922V53.4221ZM5.14413 2.96953H42.8763C43.3311 2.97037 43.767 3.12706 44.0886 3.4053C44.4101 3.68354 44.5912 4.06068 44.5922 4.45418V8.90494H3.43186V4.45101C3.43378 4.05861 3.6148 3.68276 3.9355 3.40529C4.2562 3.12782 4.6906 2.9712 5.14413 2.96953ZM3.43186 63.8051V56.3882H44.5922V63.8083C44.5922 64.202 44.4114 64.5797 44.0896 64.8581C43.7678 65.1365 43.3314 65.2929 42.8763 65.2929H5.14413C4.91879 65.2925 4.69575 65.2537 4.48775 65.1787C4.27975 65.1037 4.09085 64.994 3.93185 64.8559C3.77286 64.7177 3.64686 64.5538 3.56107 64.3735C3.47529 64.1932 3.43138 64.0001 3.43186 63.8051Z" fill="#010101"/>
<path d="M18.8643 60.8383C18.8643 61.7186 19.166 62.5792 19.7312 63.3111C20.2964 64.043 21.0998 64.6135 22.0398 64.9504C22.9798 65.2873 24.0141 65.3754 25.012 65.2037C26.0098 65.0319 26.9264 64.608 27.6458 63.9856C28.3653 63.3631 28.8552 62.57 29.0537 61.7066C29.2522 60.8433 29.1503 59.9483 28.7609 59.135C28.3716 58.3218 27.7123 57.6266 26.8663 57.1376C26.0204 56.6485 25.0258 56.3875 24.0084 56.3875C22.6447 56.3891 21.3374 56.8586 20.3731 57.6929C19.4088 58.5273 18.8662 59.6584 18.8643 60.8383ZM24.0084 59.3536C24.3478 59.3536 24.6795 59.4407 24.9617 59.6039C25.2439 59.767 25.4638 59.9989 25.5937 60.2702C25.7236 60.5415 25.7576 60.84 25.6913 61.128C25.6251 61.416 25.4617 61.6805 25.2217 61.8882C24.9818 62.0958 24.676 62.2372 24.3431 62.2945C24.0103 62.3518 23.6653 62.3224 23.3517 62.21C23.0382 62.0976 22.7702 61.9073 22.5816 61.6632C22.3931 61.419 22.2925 61.132 22.2925 60.8383C22.2925 60.6431 22.337 60.4498 22.4234 60.2694C22.5099 60.0891 22.6366 59.9253 22.7963 59.7874C22.9561 59.6495 23.1457 59.5402 23.3543 59.4657C23.5629 59.3913 23.7864 59.3532 24.012 59.3536H24.0084Z" fill="#010101"/>
<path d="M32.5881 4.45068H22.2961V7.41997H32.5881V4.45068Z" fill="#010101"/>
<path d="M18.8679 4.45068H15.436V7.41997H18.8679V4.45068Z" fill="#010101"/>
<path d="M101.185 23.7412H63.4565C62.0928 23.7429 60.7855 24.2123 59.8212 25.0467C58.8569 25.881 58.3143 27.0121 58.3124 28.192V87.5462C58.3143 88.7261 58.8569 89.8572 59.8212 90.6915C60.7855 91.5258 62.0928 91.9953 63.4565 91.997H101.185C102.549 91.9953 103.856 91.5258 104.82 90.6915C105.785 89.8572 106.327 88.7261 106.329 87.5462V28.192C106.327 27.0121 105.785 25.881 104.82 25.0467C103.856 24.2123 102.549 23.7429 101.185 23.7412ZM63.4565 26.7105H101.185C101.64 26.7113 102.076 26.868 102.397 27.1463C102.719 27.4245 102.9 27.8017 102.901 28.1952V32.6459H61.7406V28.192C61.7415 27.7988 61.9228 27.422 62.2445 27.1442C62.5661 26.8665 63.002 26.7105 63.4565 26.7105ZM102.901 35.6121V77.16H61.7406V35.6121H102.901ZM101.185 89.0309H63.4565C63.0014 89.0309 62.565 88.8744 62.2432 88.596C61.9214 88.3176 61.7406 87.94 61.7406 87.5462V80.1261H102.901V87.5462C102.901 87.94 102.72 88.3176 102.398 88.596C102.077 88.8744 101.64 89.0309 101.185 89.0309Z" fill="#010101"/>
<path d="M87.4648 84.5805C87.4648 83.7002 87.1631 82.8397 86.5978 82.1077C86.0326 81.3758 85.2292 80.8053 84.2892 80.4684C83.3493 80.1316 82.3149 80.0434 81.3171 80.2152C80.3192 80.3869 79.4026 80.8108 78.6832 81.4333C77.9638 82.0557 77.4738 82.8488 77.2754 83.7122C77.0769 84.5756 77.1787 85.4705 77.5681 86.2838C77.9574 87.0971 78.6168 87.7922 79.4627 88.2813C80.3087 88.7704 81.3032 89.0314 82.3206 89.0314C83.6844 89.0297 84.9917 88.5602 85.956 87.7259C86.9203 86.8916 87.4628 85.7605 87.4648 84.5805ZM82.3206 86.0652C81.9813 86.0652 81.6495 85.9781 81.3673 85.815C81.0851 85.6518 80.8652 85.42 80.7353 85.1487C80.6055 84.8774 80.5715 84.5789 80.6377 84.2909C80.7039 84.0029 80.8673 83.7383 81.1073 83.5307C81.3473 83.323 81.653 83.1817 81.9859 83.1244C82.3187 83.0671 82.6638 83.0965 82.9773 83.2088C83.2909 83.3212 83.5588 83.5115 83.7474 83.7557C83.9359 83.9998 84.0366 84.2869 84.0366 84.5805C84.0366 84.9743 83.8558 85.3519 83.534 85.6303C83.2122 85.9088 82.7757 86.0652 82.3206 86.0652Z" fill="#010101"/>
<path d="M90.8967 28.1921H80.6047V31.1611H90.8967V28.1921Z" fill="#010101"/>
<path d="M77.1767 28.1921H73.7449V31.1611H77.1767V28.1921Z" fill="#010101"/>
<path d="M70.3165 66.7736V68.2583C70.3165 68.652 70.4973 69.0296 70.8191 69.3081C71.1409 69.5865 71.5774 69.7429 72.0325 69.7429H92.6126C93.0677 69.7429 93.5042 69.5865 93.826 69.3081C94.1478 69.0296 94.3286 68.652 94.3286 68.2583V66.7736C94.3254 64.6229 93.5513 62.5259 92.113 60.7717C90.6746 59.0176 88.6429 57.6926 86.2977 56.9794C87.9973 56.2097 89.3495 54.9693 90.1382 53.4563C90.927 51.9434 91.1067 50.2454 90.6486 48.6337C90.1906 47.022 89.1213 45.5897 87.6116 44.5657C86.1019 43.5418 84.239 42.9854 82.3207 42.9854C80.4024 42.9854 78.5396 43.5418 77.0299 44.5657C75.5202 45.5897 74.4508 47.022 73.9928 48.6337C73.5348 50.2454 73.7145 51.9434 74.5032 53.4563C75.292 54.9693 76.6442 56.2097 78.3437 56.9794C75.9992 57.6931 73.9683 59.0183 72.5306 60.7724C71.093 62.5266 70.3194 64.6232 70.3165 66.7736ZM82.3207 45.9981C83.3381 45.9981 84.3327 46.2591 85.1786 46.7482C86.0246 47.2372 86.6839 47.9323 87.0733 48.7456C87.4626 49.5589 87.5645 50.4538 87.366 51.3171C87.1675 52.1805 86.6776 52.9736 85.9582 53.596C85.2387 54.2185 84.3221 54.6424 83.3243 54.8141C82.3264 54.9858 81.2921 54.8977 80.3521 54.5608C79.4122 54.2239 78.6088 53.6535 78.0435 52.9216C77.4783 52.1896 77.1766 51.3291 77.1766 50.4488C77.1785 49.2689 77.7211 48.1378 78.6854 47.3035C79.6497 46.4692 80.957 45.9997 82.3207 45.9981ZM82.3207 59.3535C84.5946 59.3552 86.7748 60.1375 88.3827 61.5287C89.9906 62.9199 90.8948 64.8062 90.8967 66.7736H73.7447C73.7467 64.8062 74.6508 62.9199 76.2587 61.5287C77.8666 60.1375 80.0468 59.3552 82.3207 59.3535Z" fill="#010101"/>
<path d="M12.0042 43.0324V44.517C12.0042 44.9108 12.1849 45.2884 12.5067 45.5668C12.8285 45.8453 13.265 46.0017 13.7201 46.0017H34.3003C34.7554 46.0017 35.1918 45.8453 35.5136 45.5668C35.8354 45.2884 36.0162 44.9108 36.0162 44.517V43.0324C36.0133 40.882 35.2397 38.7853 33.8021 37.0312C32.3644 35.2771 30.3335 33.9519 27.989 33.2382C29.6885 32.4685 31.0408 31.2281 31.8295 29.7151C32.6182 28.2022 32.798 26.5042 32.3399 24.8925C31.8819 23.2808 30.8125 21.8485 29.3029 20.8245C27.7932 19.8006 25.9303 19.2441 24.012 19.2441C22.0937 19.2441 20.2308 19.8006 18.7211 20.8245C17.2114 21.8485 16.1421 23.2808 15.6841 24.8925C15.226 26.5042 15.4058 28.2022 16.1945 29.7151C16.9832 31.2281 18.3355 32.4685 20.035 33.2382C17.6898 33.9514 15.6581 35.2764 14.2197 37.0305C12.7814 38.7847 12.0073 40.8816 12.0042 43.0324ZM24.012 22.2569C25.0291 22.2575 26.0232 22.519 26.8685 23.0083C27.7139 23.4976 28.3727 24.1927 28.7616 25.0059C29.1505 25.819 29.252 26.7136 29.0534 27.5767C28.8548 28.4398 28.365 29.2325 27.6458 29.8548C26.9266 30.4771 26.0103 30.9009 25.0128 31.0727C24.0153 31.2446 22.9813 31.1567 22.0415 30.8202C21.1016 30.4837 20.2982 29.9138 19.7327 29.1823C19.1672 28.4509 18.8649 27.5908 18.8642 26.7108C18.8652 25.5298 19.4078 24.3974 20.373 23.5623C21.3382 22.7272 22.647 22.2577 24.012 22.2569ZM24.012 35.6123C26.2859 35.614 28.4661 36.3963 30.074 37.7875C31.6819 39.1786 32.586 41.065 32.588 43.0324H15.436C15.4379 41.065 16.3421 39.1786 17.95 37.7875C19.5579 36.3963 21.7381 35.614 24.012 35.6123Z" fill="#010101"/>
<path d="M97.7567 20.7749H101.189C101.182 15.2669 98.6498 9.98611 94.1481 6.09132C89.6465 2.19653 83.5429 0.00586544 77.1766 0L51.4523 0V2.96921H77.1766C82.633 2.97423 87.8643 4.8518 91.7225 8.18994C95.5808 11.5281 97.7509 16.0541 97.7567 20.7749Z" fill="#010101"/>
<path d="M8.57602 71.2246H5.14417C5.15094 76.7327 7.68295 82.0136 12.1846 85.9085C16.6863 89.8033 22.7899 91.994 29.1562 91.9999H54.8805V89.0338H29.1562C23.6991 89.0287 18.4673 87.1507 14.6089 83.8118C10.7506 80.473 8.58086 75.9461 8.57602 71.2246Z" fill="#010101"/>
</svg>
