<svg width="111" height="57" viewBox="0 0 111 57" fill="none" xmlns="http://www.w3.org/2000/svg">
<circle cx="28.5" cy="28.5" r="28.5" fill="#F9B85A"/>
<path d="M71.9238 27.1045C72.375 27.1045 72.7692 26.9678 73.1064 26.6943C73.4437 26.4209 73.6305 26.0791 73.667 25.6689H74.8633C74.8405 26.0928 74.6947 26.4961 74.4258 26.8789C74.1569 27.2617 73.7969 27.5671 73.3457 27.7949C72.8991 28.0228 72.4251 28.1367 71.9238 28.1367C70.9167 28.1367 70.1146 27.8018 69.5176 27.1318C68.9251 26.4574 68.6289 25.5368 68.6289 24.3701V24.1582C68.6289 23.4382 68.7611 22.7979 69.0254 22.2373C69.2897 21.6768 69.668 21.2415 70.1602 20.9316C70.6569 20.6217 71.2425 20.4668 71.917 20.4668C72.7464 20.4668 73.4346 20.7152 73.9814 21.2119C74.5329 21.7087 74.8268 22.3535 74.8633 23.1465H73.667C73.6305 22.668 73.4482 22.276 73.1201 21.9707C72.7965 21.6608 72.3955 21.5059 71.917 21.5059C71.2744 21.5059 70.7754 21.7383 70.4199 22.2031C70.069 22.6634 69.8936 23.3311 69.8936 24.2061V24.4453C69.8936 25.2975 70.069 25.9538 70.4199 26.4141C70.7708 26.8743 71.2721 27.1045 71.9238 27.1045ZM80.5439 26.3252L83.0596 20.6035H84.6387V28H83.374V22.6201L80.9814 28H80.1064L77.666 22.5039V28H76.4014V20.6035H78.042L80.5439 26.3252ZM90.9346 26.3252L93.4502 20.6035H95.0293V28H93.7646V22.6201L91.3721 28H90.4971L88.0566 22.5039V28H86.792V20.6035H88.4326L90.9346 26.3252ZM70.3379 36.6035V42.9678H73.0449V36.6035H74.3096V42.9678H77.0098V36.6035H78.2812V44H69.0664V36.6035H70.3379ZM82.5811 40.8486H81.6582V44H80.3867V36.6035H81.6582V39.7344H82.4854L84.9736 36.6035H86.5049L83.5791 40.1582L86.751 44H85.1445L82.5811 40.8486ZM87.3525 40.2334C87.3525 39.5088 87.4938 38.8571 87.7764 38.2783C88.0635 37.6995 88.46 37.2529 88.9658 36.9385C89.4762 36.624 90.0573 36.4668 90.709 36.4668C91.7161 36.4668 92.5296 36.8154 93.1494 37.5127C93.7738 38.21 94.0859 39.1374 94.0859 40.2949V40.3838C94.0859 41.1038 93.9469 41.751 93.6689 42.3252C93.3955 42.8949 93.0013 43.3392 92.4863 43.6582C91.9759 43.9772 91.388 44.1367 90.7227 44.1367C89.7201 44.1367 88.9066 43.7881 88.2822 43.0908C87.6624 42.3936 87.3525 41.4707 87.3525 40.3223V40.2334ZM88.624 40.3838C88.624 41.2041 88.8132 41.8626 89.1914 42.3594C89.5742 42.8561 90.0846 43.1045 90.7227 43.1045C91.3652 43.1045 91.8757 42.8538 92.2539 42.3525C92.6322 41.8467 92.8213 41.1403 92.8213 40.2334C92.8213 39.4222 92.6276 38.766 92.2402 38.2646C91.8574 37.7588 91.347 37.5059 90.709 37.5059C90.0846 37.5059 89.5811 37.7542 89.1982 38.251C88.8154 38.7477 88.624 39.4587 88.624 40.3838ZM101.626 36.6035V44H100.354V37.6494H97.8389L97.6885 40.418C97.6064 41.6895 97.3923 42.5986 97.0459 43.1455C96.7041 43.6924 96.1595 43.9772 95.4121 44H94.9062V42.8857L95.2686 42.8584C95.6787 42.8128 95.9727 42.5758 96.1504 42.1475C96.3281 41.7191 96.4421 40.9261 96.4922 39.7686L96.6289 36.6035H101.626ZM108.223 44C108.15 43.8542 108.09 43.5944 108.045 43.2207C107.457 43.8314 106.755 44.1367 105.939 44.1367C105.21 44.1367 104.611 43.9316 104.142 43.5215C103.677 43.1068 103.444 42.5827 103.444 41.9492C103.444 41.179 103.736 40.582 104.319 40.1582C104.907 39.7298 105.732 39.5156 106.794 39.5156H108.024V38.9346C108.024 38.4925 107.892 38.1416 107.628 37.8818C107.364 37.6175 106.974 37.4854 106.459 37.4854C106.008 37.4854 105.63 37.5993 105.324 37.8271C105.019 38.055 104.866 38.3307 104.866 38.6543H103.595C103.595 38.2852 103.725 37.9297 103.984 37.5879C104.249 37.2415 104.604 36.9681 105.051 36.7676C105.502 36.5671 105.996 36.4668 106.534 36.4668C107.386 36.4668 108.054 36.681 108.537 37.1094C109.02 37.5332 109.271 38.1188 109.289 38.8662V42.2705C109.289 42.9495 109.376 43.4896 109.549 43.8906V44H108.223ZM106.124 43.0361C106.521 43.0361 106.896 42.9336 107.252 42.7285C107.607 42.5234 107.865 42.2568 108.024 41.9287V40.4111H107.033C105.484 40.4111 104.709 40.8646 104.709 41.7715C104.709 42.168 104.841 42.4779 105.105 42.7012C105.37 42.9245 105.709 43.0361 106.124 43.0361Z" fill="black"/>
</svg>
