<svg width="107" height="84" viewBox="0 0 107 84" fill="none" xmlns="http://www.w3.org/2000/svg">
<path d="M101.562 42.8291H90.8034L87.7851 22.9764C90.226 24.6292 93.1667 25.3464 96.0809 24.9998C98.9952 24.6533 101.693 23.2654 103.691 21.0847C105.689 18.9039 106.858 16.0726 106.988 13.0973C107.118 10.122 106.2 7.19696 104.4 4.8455C102.599 2.49404 100.033 0.869647 97.16 0.262992C94.2873 -0.343662 91.2957 0.107011 88.7204 1.53437C86.1452 2.96173 84.1544 5.27262 83.1042 8.05354C82.0541 10.8345 82.0131 13.9039 82.9887 16.7127L76.3021 10.8889C74.939 9.70732 73.2048 9.05916 71.4123 9.06131H47.277C45.8835 9.06131 44.5471 9.62316 43.5618 10.6233C42.5765 11.6234 42.0229 12.9798 42.0229 14.3942C42.0229 15.8085 42.5765 17.1649 43.5618 18.1651C44.5471 19.1652 45.8835 19.727 47.277 19.727H68.9431L50.7323 34.2525C49.0241 35.6149 47.6616 37.3722 46.7586 39.3778C45.8556 41.3833 45.4382 43.579 45.5413 45.7816C45.6444 47.9842 46.265 50.1299 47.3513 52.0395C48.4375 53.9491 49.958 55.5674 51.7858 56.7593L68.0353 67.3757L54.3371 73.1692C53.2004 73.6567 52.2646 74.5279 51.688 75.6352C51.1113 76.7426 50.9293 78.0181 51.1728 79.246C51.4162 80.4739 52.0702 81.5787 53.0239 82.3735C53.9776 83.1683 55.1726 83.6042 56.4066 83.6074C57.1491 83.6079 57.8833 83.4503 58.562 83.1449L77.4452 74.6859C78.671 74.1061 79.741 73.2347 80.5644 72.1457C81.3877 71.0568 81.9401 69.7823 82.1748 68.4304C82.4094 67.0785 82.3193 65.6892 81.9121 64.3801C81.505 63.0711 80.7928 61.8811 79.8359 60.9111L69.1074 50.0141L79.2233 41.0243L80.004 47.3638C80.213 49.0544 81.0222 50.6098 82.2799 51.7384C83.5376 52.867 85.1576 53.4914 86.8363 53.4948H101.566C102.959 53.4948 104.295 52.9329 105.281 51.9328C106.266 50.9327 106.82 49.5763 106.82 48.1619C106.82 46.7475 106.266 45.3911 105.281 44.391C104.295 43.3909 102.959 42.8291 101.566 42.8291H101.562ZM94.5576 3.71519C96.2894 3.71519 97.9823 4.23643 99.4223 5.213C100.862 6.18956 101.984 7.57759 102.647 9.20156C103.31 10.8255 103.483 12.6125 103.145 14.3365C102.808 16.0605 101.974 17.6441 100.749 18.887C99.5246 20.1299 97.9644 20.9764 96.2659 21.3193C94.5674 21.6622 92.8068 21.4862 91.2068 20.8136C89.6069 20.1409 88.2393 19.0018 87.2772 17.5402C86.3151 16.0787 85.8015 14.3604 85.8015 12.6026C85.8035 10.2462 86.7267 7.98677 88.3683 6.32049C90.01 4.6542 92.236 3.7172 94.5576 3.71519ZM101.562 49.9383H86.8288C86.0032 49.9366 85.2064 49.6296 84.5876 49.0748C83.9688 48.52 83.5704 47.7554 83.4668 46.924L81.868 33.9454L63.9748 49.8321L77.3555 63.4135C77.9131 63.9773 78.3289 64.669 78.568 65.4301C78.807 66.1913 78.8622 66.9996 78.7288 67.7869C78.5955 68.5743 78.2776 69.3175 77.802 69.954C77.3263 70.5905 76.7068 71.1015 75.9958 71.4441L57.1537 79.8917C56.9252 80.0298 56.6702 80.1167 56.4059 80.1467C56.1416 80.1767 55.874 80.1491 55.6211 80.0656C55.3681 79.9822 55.1357 79.8449 54.9392 79.6629C54.7428 79.4809 54.5869 79.2585 54.482 79.0104C54.3771 78.7623 54.3256 78.4944 54.331 78.2245C54.3363 77.9546 54.3984 77.6889 54.5131 77.4454C54.6277 77.2018 54.7923 76.9859 54.9958 76.8121C55.1994 76.6383 55.4371 76.5106 55.6931 76.4376L70.5755 70.1436C71.0523 69.9427 71.4657 69.6132 71.7711 69.1908C72.0765 68.7684 72.2622 68.2692 72.308 67.7473C72.3538 67.2254 72.258 66.7008 72.0309 66.2303C71.8039 65.7597 71.4543 65.3613 71.02 65.078L53.6797 53.7677C52.3215 52.8811 51.1918 51.6777 50.3848 50.2579C49.5779 48.8381 49.117 47.2431 49.0406 45.6059C48.9642 43.9686 49.2745 42.3365 49.9457 40.8457C50.6168 39.3549 51.6294 38.0485 52.899 37.0355L74.4268 19.8787L70.766 16.1705H47.277C46.8123 16.1705 46.3667 15.9832 46.0382 15.6497C45.7096 15.3162 45.525 14.8639 45.525 14.3923C45.525 13.9206 45.7096 13.4683 46.0382 13.1349C46.3667 12.8014 46.8123 12.614 47.277 12.614H71.4123C72.3702 12.61 73.2978 12.9544 74.0271 13.5847L84.1729 22.419L87.8038 46.3818H101.562C102.026 46.3818 102.472 46.5691 102.801 46.9026C103.129 47.2361 103.314 47.6884 103.314 48.16C103.314 48.6316 103.129 49.0839 102.801 49.4174C102.472 49.7509 102.026 49.9383 101.562 49.9383Z" fill="black"/>
<path d="M25.7753 79.2591C25.3295 79.787 24.6953 80.1135 24.0122 80.1669C23.3292 80.2202 22.6533 79.9959 22.1331 79.5434C21.613 79.0909 21.2913 78.4472 21.2387 77.7539C21.1862 77.0607 21.4071 76.3746 21.853 75.8467L45.1291 47.4971L42.4395 45.2222L19.1559 73.5793C18.2009 74.8331 17.7572 76.4116 17.9167 77.9882C18.0763 79.5647 18.8268 81.0187 20.013 82.0493C21.1992 83.0799 22.7303 83.6083 24.2896 83.5251C25.8489 83.4418 27.317 82.7534 28.3902 81.6023L48.5621 58.2045L45.9472 55.8651L25.7753 79.2591Z" fill="black"/>
<path d="M52.5328 23.28H14.0082V26.8365H52.5328V23.28Z" fill="black"/>
<path d="M10.5079 23.28H3.50378V26.8365H10.5079V23.28Z" fill="black"/>
<path d="M43.7766 30.3889H17.5121V33.9454H43.7766V30.3889Z" fill="black"/>
<path d="M14.0082 30.3889H7.00403V33.9454H14.0082V30.3889Z" fill="black"/>
<path d="M42.0246 37.498H19.2603V41.0545H42.0246V37.498Z" fill="black"/>
<path d="M15.7602 37.498H10.5081V41.0545H15.7602V37.498Z" fill="black"/>
<path d="M40.2766 16.1709H10.5081V19.727H40.2766V16.1709Z" fill="black"/>
<path d="M7.00414 16.1709H0V19.727H7.00414V16.1709Z" fill="black"/>
<path d="M40.2764 19.7275H3.50378V23.284H40.2764V19.7275Z" fill="#EEBB60"/>
<path d="M52.5328 26.8364H7.00403V30.3929H52.5328V26.8364Z" fill="#EEBB60"/>
<path d="M43.7767 33.9458H10.5081V37.4987H43.7767V33.9458Z" fill="#EEBB60"/>
<path d="M42.0247 41.0508H14.0082V44.6073H42.0247V41.0508Z" fill="#EEBB60"/>
</svg>
