<svg width="182" height="43" viewBox="0 0 182 43" fill="none" xmlns="http://www.w3.org/2000/svg">
<path d="M7.17763 0.585335C9.13889 0.585335 11.1023 0.549324 13.0698 0.585335C14.8406 0.613561 16.53 1.33897 17.7758 2.60608C19.0216 3.87319 19.7247 5.58114 19.7343 7.36386C19.7512 9.30421 19.6565 11.2488 19.7533 13.1828C19.9195 16.4937 17.1439 19.7495 13.9474 19.9973C11.34 20.1986 8.68645 20.2664 6.08967 19.9656C2.71638 19.5864 0.401589 16.8813 0.296371 13.4645C0.178527 9.42072 0.275327 5.36208 0.252179 1.30555C0.250075 0.670066 0.532059 0.542969 1.0813 0.542969C3.11411 0.562033 5.14481 0.542969 7.18394 0.542969L7.17763 0.585335Z" fill="white"/>
<path d="M0.189527 41.32C0.189527 39.1148 0.16217 36.8313 0.189527 34.5414C0.223196 32.4232 0.246344 30.3049 0.416798 28.2035C0.68826 24.8439 2.82208 22.4227 6.17853 22.1029C8.86308 21.8583 11.5656 21.8959 14.2424 22.2151C17.399 22.5837 19.6591 25.5472 19.6591 28.7818C19.6591 30.9001 19.6591 33.0184 19.6591 35.1367C19.6401 38.1828 16.8413 41.2289 13.8195 41.2797C9.41925 41.3835 5.00851 41.32 0.189527 41.32Z" fill="white"/>
<path d="M83.9433 0.854347H88.4992L91.4684 14.763C91.6684 13.795 91.8009 13.115 91.9482 12.4329C92.7423 8.78805 93.5377 5.14388 94.3346 1.50042C94.4482 0.981444 94.6902 0.737841 95.2626 0.767497C96.4831 0.831045 98.0172 0.390441 98.84 0.979326C99.5829 1.51102 99.5955 3.12939 99.8501 4.28809C100.591 7.6477 101.292 11.0179 102.06 14.6253L105.018 0.835282H109.692C109.513 1.62329 109.362 2.33079 109.191 3.03195C107.948 8.11584 106.666 13.2103 105.479 18.3154C105.281 19.1627 104.93 19.3576 104.139 19.3279C102.601 19.2686 101.06 19.311 99.3892 19.311L96.7798 7.06305L94.1536 19.3046C92.3291 19.3046 90.5173 19.3195 88.7054 19.2813C88.5265 19.2813 88.2509 18.9678 88.1983 18.756C86.7336 12.846 85.2844 6.93313 83.8507 1.01745C83.8443 0.992035 83.8822 0.966616 83.9433 0.854347Z" fill="white"/>
<path d="M53.571 19.2537H49.4928V0.792812C51.5088 0.792812 53.4911 0.763156 55.4839 0.828823C55.7385 0.828823 56.0521 1.28849 56.2162 1.59988C58.1101 5.20097 60.0041 8.83596 61.879 12.4561C62.0558 12.795 62.2515 13.1234 62.584 13.7144V0.88178H66.8201V19.3109C64.762 19.3109 62.7418 19.3384 60.7174 19.2749C60.467 19.2749 60.1577 18.8173 59.9978 18.5081C58.087 14.8201 56.1931 11.1343 54.2907 7.43577C54.1056 7.07566 53.9056 6.7219 53.5689 6.10336L53.571 19.2537Z" fill="white"/>
<path d="M115.677 19.2836H110.397C110.479 18.9468 110.532 18.6482 110.624 18.3664C112.409 12.8059 114.202 7.24964 115.972 1.68065C116.197 0.966789 116.5 0.670229 117.283 0.702003C118.893 0.769789 120.509 0.687175 122.123 0.752842C122.459 0.76767 122.979 1.09177 123.078 1.38833C125.031 7.22634 126.935 13.0834 128.846 18.9362C128.867 19.0486 128.877 19.1629 128.874 19.2773H123.634C123.39 18.3707 123.105 17.4725 122.914 16.5553C122.788 15.9452 122.493 15.7588 121.898 15.7694C120.391 15.7976 118.883 15.7976 117.375 15.7694C116.816 15.7588 116.561 15.9812 116.433 16.5108C116.216 17.4301 115.93 18.3368 115.677 19.2836ZM119.717 4.10821L119.545 4.12304L117.697 11.7044H121.66L119.717 4.10821Z" fill="white"/>
<path d="M71.1361 0.784502C74.5873 0.784502 77.91 0.771792 81.237 0.814158C81.4643 0.814158 81.8684 1.23782 81.8684 1.48989C81.942 2.50455 81.8999 3.52769 81.8999 4.66733H76.0077V7.68165H81.338V11.6831H76.014V15.2842H81.8031V19.2454H71.1361V0.784502Z" fill="white"/>
<path d="M49.9536 23.4013C51.8097 22.9459 52.1632 23.0793 53.1102 24.5325C55.9889 28.9936 58.8775 33.4526 61.7759 37.9095C61.9379 38.1594 62.1336 38.3903 62.4072 38.7568V23.2975C62.7229 23.2785 63.0638 23.2721 63.4005 23.234C64.0549 23.162 64.2633 23.4691 64.2422 24.0961C64.2106 25.1193 64.2422 26.1424 64.2422 27.1655C64.2422 31.5772 64.2422 35.9882 64.2422 40.3985C64.2422 40.8221 64.2422 41.2246 64.2422 41.6123C62.1379 42.0084 62.0284 41.966 60.9741 40.3413L52.4831 27.2227C52.2937 26.9283 52.0937 26.6423 51.7634 26.1487V41.68H49.9641L49.9536 23.4013Z" fill="white"/>
<path d="M182.006 23.3127V41.638C180.548 42.0214 179.603 41.7228 178.761 40.3459C176.059 35.9335 173.183 31.6312 170.371 27.2887C170.161 26.9689 169.951 26.6532 169.593 26.1385V41.6867H167.831V23.3847C169.761 22.9611 170.001 23.0649 171.022 24.6409C173.871 29.0441 176.723 33.4452 179.578 37.8442C179.748 38.1068 179.934 38.361 180.247 38.8122V23.3127H182.006Z" fill="white"/>
<path d="M146.537 32.4192C146.68 31.305 146.716 30.1654 146.983 29.0829C148.212 24.124 152.091 22.4718 156.512 23.0649C160.685 23.6262 163.21 26.666 163.429 31.1991C163.53 32.6743 163.431 34.1565 163.137 35.6051C161.996 40.5958 158.221 42.5214 153.602 41.8965C149.425 41.3309 146.914 38.3632 146.678 34.0185C146.649 33.4911 146.678 32.9594 146.678 32.4341L146.537 32.4192ZM155.071 40.1807C158.303 40.1807 160.371 38.6343 160.948 35.4505C161.25 33.7211 161.306 31.9571 161.112 30.212C160.757 26.9329 158.656 24.9502 155.771 24.8252C151.983 24.6621 149.816 26.2105 149.037 29.729C148.607 31.6273 148.631 33.6014 149.107 35.4886C149.906 38.6491 151.866 40.187 155.071 40.1807Z" fill="white"/>
<path d="M104.776 41.7203H102.805V23.2403C105.572 23.3208 108.341 22.9311 111.047 23.6831C112.853 24.1851 113.983 25.3946 114.254 27.3244C114.555 29.4639 114.149 31.3343 112.249 32.6201C111.79 32.9315 111.275 33.1603 110.677 33.4844L115.54 41.6377C113.343 42.002 113.341 42.0041 112.356 40.3032C111.279 38.4475 110.187 36.6004 109.143 34.7257C108.827 34.1601 108.446 33.925 107.805 33.9695C107.07 34.0144 106.334 34.0144 105.599 33.9695C104.949 33.9356 104.757 34.2046 104.757 34.8358C104.776 37.0897 104.776 39.3436 104.776 41.7203ZM104.816 32.4443C106.691 32.2452 108.472 32.2049 110.18 31.83C111.586 31.5207 112.19 30.3091 112.205 28.6271C112.219 26.9452 111.693 25.975 110.412 25.4836C108.598 24.7888 106.721 25.0599 104.816 25.096V32.4443Z" fill="white"/>
<path d="M83.2782 23.3805C83.2782 27.7378 83.394 32.0443 83.2404 36.3402C83.1267 39.5049 80.5805 41.7418 77.1819 41.9515C76.1342 42.0117 75.083 41.9406 74.0527 41.7397C71.5906 41.2652 69.6188 39.3333 69.4926 36.8422C69.2821 32.5145 69.3263 28.172 69.3053 23.8338C69.3053 23.6347 69.682 23.3233 69.9366 23.2597C70.3259 23.1623 70.7594 23.2343 71.2666 23.2343C71.2897 23.7088 71.3234 24.0816 71.3234 24.4566C71.3234 27.9496 71.3234 31.4469 71.3234 34.9357C71.3234 39.2507 74.966 41.549 78.878 39.6998C80.4268 38.969 81.1928 37.6577 81.2244 35.9822C81.2812 32.2794 81.2602 28.5682 81.2686 24.8696C81.2728 23.0458 81.3086 23.014 83.2782 23.3805Z" fill="white"/>
<path d="M137.293 23.3125V25.0304H131.525V41.6865H129.469V25.0919H123.608V23.3146L137.293 23.3125Z" fill="white"/>
<path d="M91.9609 25.0433H86.1613V23.3296H99.8185V25.0094H94.0568V41.7142H91.9524L91.9609 25.0433Z" fill="white"/>
<path d="M118.798 23.2915H120.692V41.7206H118.798V23.2915Z" fill="white"/>
<path d="M142.35 41.7206H140.456V23.3296H142.35V41.7206Z" fill="white"/>
<path d="M40.8439 39.3499V29.2266H40.8902V39.335L40.8439 39.3499Z" fill="white"/>
<path d="M33.9016 0.585447C31.9403 0.585447 29.977 0.549436 28.0094 0.585447C26.2386 0.613674 24.5493 1.33908 23.3035 2.60619C22.0577 3.8733 21.3546 5.58126 21.3449 7.36397C21.3281 9.30433 21.4228 11.2489 21.326 13.1829C21.1597 16.4938 23.9354 19.7496 27.1319 19.9975C29.7392 20.1987 32.3928 20.2665 34.9896 19.9657C38.3565 19.5759 40.6713 16.8687 40.7765 13.4625C40.8944 9.41024 40.7976 5.34948 40.8207 1.29296C40.8207 0.657469 40.543 0.526135 39.9916 0.530371C37.9588 0.549436 35.9281 0.530371 33.889 0.530371L33.9016 0.585447Z" fill="white"/>
<path d="M40.8797 41.32C40.8797 39.1148 40.9071 36.8313 40.8797 34.5414C40.846 32.4232 40.8229 30.3049 40.6524 28.2035C40.381 24.8439 38.2471 22.4227 34.8907 22.1029C32.2061 21.8583 29.5036 21.8959 26.8268 22.2151C23.6702 22.5837 21.4102 25.5472 21.4102 28.7818C21.4102 30.9001 21.4102 33.0184 21.4102 35.1367C21.4291 38.1828 24.2279 41.2289 27.2498 41.2797C31.6584 41.3835 36.0712 41.32 40.8797 41.32Z" fill="white"/>
</svg>
