<svg width="188" height="65" viewBox="0 0 188 65" fill="none" xmlns="http://www.w3.org/2000/svg">
<path d="M32.6592 64.9685C15.0953 64.9841 0.762939 50.5152 0.762939 32.7574C0.762939 14.5938 15.2128 0.63677 32.2396 0.378018C49.8511 0.117852 64.6241 14.3676 64.6801 32.5368C64.736 50.5731 50.489 64.9516 32.6592 64.9685ZM32.7586 63.3001C49.7182 63.1403 62.7747 49.524 62.9887 33.1307C63.214 15.7109 49.3279 2.27978 33.0789 2.09455C16.4621 1.90508 2.31299 15.4776 2.46687 32.978C2.61237 49.5947 15.8437 63.1785 32.7558 63.2987L32.7586 63.3001Z" fill="white"/>
<path d="M163.384 23.5274V29.7021H160.436V16.6259H163.349V22.3283C164.56 22.2619 165.665 22.5249 166.785 21.8928C169.851 20.1608 172.969 18.522 176.081 16.8733C176.451 16.6912 176.856 16.5914 177.268 16.5806C178.259 16.5344 179.252 16.5817 180.234 16.722L168.575 22.9434L181.623 29.6073L181.581 29.7756C179.873 29.6073 178.167 30.0697 176.458 29.1054C173.13 27.2248 169.713 25.497 166.268 23.8413C165.474 23.4538 164.419 23.6221 163.384 23.5274Z" fill="white"/>
<path d="M101.068 29.6976C102.346 27.9373 103.568 26.2532 104.788 24.5692C106.607 22.0609 108.426 19.5582 110.229 17.0385C110.472 16.6978 110.724 16.5437 111.147 16.5564C112.172 16.5847 113.199 16.5423 114.224 16.5833C114.509 16.6011 114.775 16.7311 114.966 16.9452C118.05 21.0824 121.121 25.23 124.178 29.388C124.249 29.5047 124.314 29.625 124.372 29.7485C123.336 29.7485 122.397 29.7627 121.46 29.7316C121.32 29.7316 121.17 29.5209 121.062 29.3781C120.569 28.722 120.114 28.0348 119.591 27.3985C119.391 27.1671 119.111 27.0223 118.809 26.9942C114.776 26.9687 110.744 26.9687 106.712 26.9942C106.432 26.9942 106.138 27.2614 105.873 27.4339C105.762 27.5046 105.702 27.6545 105.621 27.769C104.006 30.0101 104.006 30.0101 101.068 29.6976ZM118.416 25.8163L112.697 17.8643L107.064 25.8163H118.416Z" fill="white"/>
<path d="M149.193 25.3693H152.014C152.419 27.5086 151.438 29.1432 149.389 29.426C144.663 30.0778 139.911 30.1655 135.184 29.4797C132.412 29.0781 131.468 28.0657 131.212 25.2294C131.044 23.3686 131.219 21.4753 131.275 19.5976C131.299 18.7987 131.779 18.2643 132.439 17.8669C133.716 17.0978 135.137 16.8348 136.578 16.7188C140.295 16.4219 144.018 16.2946 147.738 16.692C148.339 16.7572 148.932 16.8798 149.51 17.0582C151.151 17.5644 151.905 18.8214 151.662 20.6086C151.554 20.6251 151.446 20.6359 151.337 20.6411C150.525 20.6411 149.71 20.6411 148.857 20.6411C148.826 20.4262 148.79 20.248 148.779 20.0755C148.688 18.6814 148.219 18.1144 146.831 17.9645C143.307 17.6001 139.752 17.6476 136.238 18.1059C134.989 18.2628 134.259 18.9246 134.255 20.1844C134.255 22.2926 134.409 24.405 134.575 26.509C134.649 27.4521 135.262 28.0459 136.21 28.1732C137.384 28.3316 138.565 28.5507 139.743 28.5521C142.209 28.5521 144.682 28.514 147.14 28.3259C148.714 28.2057 149.152 27.5369 149.169 25.9321C149.169 25.7653 149.182 25.6026 149.193 25.3693Z" fill="white"/>
<path d="M78.2499 29.7274H75.3121V16.5663H76.0578C79.8573 16.5663 83.6569 16.531 87.4565 16.5861C88.9222 16.6041 90.384 16.7403 91.8283 16.9933C94.4023 17.4529 95.6236 20.0941 94.4401 22.4738C94.2484 22.8822 93.9604 23.2368 93.6013 23.5062C93.2422 23.7757 92.8231 23.9519 92.3808 24.0192C90.7986 24.2681 89.201 24.5085 87.6048 24.5566C84.7873 24.6414 81.9642 24.5806 79.1439 24.5806H78.2541L78.2499 29.7274ZM78.2779 23.3066H79.0641C81.4648 23.3066 83.8668 23.3363 86.2674 23.2939C87.5246 23.2708 88.7796 23.1763 90.0264 23.0111C91.4044 22.8287 91.9737 22.0906 91.9709 20.7092C91.9709 18.9601 91.4953 18.3055 90.0264 18.0651C89.6144 17.9896 89.1972 17.9466 88.7785 17.9364C85.3996 17.911 82.0201 17.8945 78.6403 17.887C78.5189 17.8934 78.398 17.9062 78.2779 17.9251V23.3066Z" fill="white"/>
<path d="M118.951 37.2441V44.1258H117.219V36.4693C118.141 36.4693 119.062 36.4523 119.981 36.4848C120.157 36.4848 120.341 36.6814 120.499 36.8114C123.042 38.9088 125.584 41.0085 128.124 43.1106C128.208 43.1799 128.302 43.2392 128.495 43.3792V36.5018H130.241V44.1541C128.878 44.0975 127.583 44.4906 126.324 43.3552C124.011 41.2512 121.513 39.3467 118.951 37.2441Z" fill="white"/>
<path d="M182.289 38.5433H180.632C180.591 37.2962 179.689 37.1788 178.76 37.1859C177.133 37.1986 175.503 37.2142 173.882 37.3273C173.042 37.3853 172.603 38.0894 172.902 38.8289C173.032 39.1513 173.448 39.5359 173.768 39.5698C175.153 39.7282 176.554 39.7536 177.946 39.8526C179.035 39.9318 180.129 39.994 181.209 40.1623C182.158 40.3037 182.572 40.8551 182.624 41.8095C182.682 42.894 182.298 43.5981 181.414 43.8654C180.903 44.0281 180.372 44.118 179.837 44.1326C177.65 44.151 175.461 44.1863 173.279 44.0888C171.642 44.0153 171.04 43.321 171.085 41.8406H172.713C173.074 43.2913 173.125 43.3776 174.623 43.4186C176.226 43.4624 177.832 43.4313 179.437 43.396C180.083 43.3818 180.696 43.239 180.89 42.4514C181.117 41.5493 180.781 40.9244 179.866 40.8537C178.196 40.7236 176.519 40.7123 174.847 40.5921C174.082 40.5506 173.323 40.4293 172.582 40.2301C171.526 39.9275 171.081 39.2588 171.158 38.3369C171.235 37.415 171.78 36.7674 172.837 36.6514C174.36 36.4832 175.898 36.3828 177.431 36.3687C178.571 36.3727 179.709 36.4635 180.836 36.6401C181.882 36.79 182.348 37.4602 182.289 38.5433Z" fill="white"/>
<path d="M164.64 38.5432H163.017C162.707 37.4417 162.493 37.2098 161.354 37.2013C159.635 37.19 157.912 37.2254 156.196 37.3342C155.407 37.3837 155.114 37.8913 155.2 38.6605C155.26 39.1936 155.515 39.5556 156.069 39.5937C157.468 39.6899 158.857 39.7549 160.249 39.8525C161.316 39.9274 162.389 39.984 163.445 40.1438C164.543 40.3092 164.965 40.8776 164.973 41.9819C164.981 43.0862 164.502 43.7705 163.468 43.9614C162.6 44.1355 161.718 44.2269 160.833 44.2343C158.904 44.2103 156.968 44.1693 155.05 43.9812C153.799 43.8582 153.371 43.1625 153.434 41.8306H155.057C155.109 42.0005 155.149 42.1739 155.177 42.3495C155.238 42.9632 155.597 43.3393 156.166 43.3478C158.187 43.3789 160.208 43.3944 162.227 43.3237C162.985 43.2969 163.314 42.7369 163.291 41.9338C163.272 41.2028 162.849 40.8748 162.172 40.8408C160.493 40.7546 158.815 40.7221 157.151 40.5948C156.318 40.5378 155.494 40.3841 154.696 40.1367C153.783 39.844 153.45 39.2402 153.503 38.3749C153.556 37.5096 153.958 36.9101 154.877 36.7446C156.088 36.5159 157.316 36.3934 158.548 36.3784C160.105 36.3823 161.662 36.4767 163.209 36.6612C164.24 36.7701 164.671 37.4346 164.64 38.5432Z" fill="white"/>
<path d="M137.359 44.1285V36.4932H147.152L147.229 37.1577H139.138V39.8032H146.795L146.837 40.5639H139.13V43.3833H147.171L147.209 44.1242L137.359 44.1285Z" fill="white"/>
<path d="M84.2194 39.8836V40.6302H76.8049V44.1523H75.0884V36.5015H84.4013L84.4348 37.1745H76.8343V39.8836H84.2194Z" fill="white"/>
<path d="M105.933 37.2733V44.138H104.181V37.3298H99.2274V36.4814H110.818V37.2676L105.933 37.2733Z" fill="white"/>
<path d="M92.7866 44.1466H91.1008V36.5112H92.7866V44.1466Z" fill="white"/>
<path d="M187.358 19.7933C186.988 19.6773 186.988 19.6773 186.777 17.4235L185.878 19.8781L185.598 19.8527L184.758 17.4871L184.575 19.7636L184.427 19.8357C184.346 19.7099 184.19 19.5798 184.197 19.4596C184.244 18.5688 184.322 17.6809 184.41 16.5469C184.708 16.7802 184.97 16.8848 185.055 17.0714C185.319 17.6936 185.515 18.344 185.766 19.0722C186.026 18.3539 186.237 17.7106 186.499 17.0927C186.57 16.9258 186.8 16.8268 186.956 16.6982C187.043 16.8608 187.19 17.0191 187.204 17.1888C187.277 18.0428 187.312 18.9025 187.358 19.7933Z" fill="white"/>
<path d="M183.936 16.9976L183.02 17.1475C183.02 17.8544 183.034 18.601 183.008 19.3419C183.008 19.4989 182.847 19.6502 182.762 19.8043C182.692 19.6544 182.568 19.5073 182.563 19.3561C182.542 18.6335 182.554 17.9096 182.554 17.1856L181.628 16.9495L181.664 16.7544H183.902L183.936 16.9976Z" fill="white"/>
<path d="M32.7557 63.3003C15.8437 63.1801 2.61231 49.5963 2.46682 32.9796C2.31293 15.4792 16.462 1.90673 33.0789 2.0962C49.325 2.28142 63.2097 15.7125 62.9831 33.1323C62.7718 49.5242 49.7153 63.1405 32.7557 63.3003ZM40.2947 10.9334C40.0793 10.9221 39.9674 10.9107 39.8554 10.9122C35.2822 10.9678 30.7557 11.8499 26.4898 13.5166C17.7239 16.9016 10.9095 22.7837 5.41303 30.3553C5.02972 30.8842 4.93319 31.3281 5.15282 31.9588C7.30583 38.1462 11.2131 42.9027 16.9335 45.9102C25.8127 50.5762 35.134 51.1517 44.6441 48.1301C50.1896 46.3683 54.8019 43.1813 58.277 38.395C58.5721 37.9892 58.5861 37.7347 58.228 37.3841C57.4418 36.6149 56.7101 35.7877 55.9169 35.0256C52.3803 31.6222 48.5024 28.718 43.9068 26.9293C39.3574 25.1591 34.794 24.8947 30.288 27.0891C29.2667 27.5868 28.3182 28.2316 27.3347 28.8085L27.4383 29.0093C27.6397 28.9654 27.8384 28.9145 28.0412 28.8778C29.7787 28.5568 31.5078 28.1708 33.2579 27.9333C36.7302 27.4624 39.4553 28.8551 41.5118 31.6194C43.1808 33.8619 43.5753 36.4452 43.3095 39.1869C42.8898 43.4853 39.4134 47.0625 35.1731 47.5094C30.8363 47.9661 26.1428 45.3262 24.4193 41.1565C22.0481 35.4201 22.3824 29.7516 25.5077 24.3475C27.8943 20.2216 31.3162 17.0727 35.127 14.3396C36.7707 13.1632 38.5026 12.1154 40.2947 10.9334Z" fill="#F30401"/>
<path d="M40.2948 10.9332C38.5028 12.1152 36.7708 13.163 35.1257 14.3436C31.3149 17.0782 27.893 20.227 25.5064 24.3515C22.3811 29.7556 22.0468 35.4241 24.418 41.1605C26.1415 45.3303 30.8406 47.9701 35.1774 47.5134C39.4177 47.0666 42.8955 43.4879 43.3138 39.1909C43.581 36.4493 43.1865 33.8646 41.5161 31.6235C39.4568 28.8592 36.7331 27.4664 33.2622 27.9373C31.5135 28.1748 29.7844 28.5608 28.0455 28.8818C27.8427 28.9186 27.644 28.9695 27.4426 29.0133L27.339 28.8125C28.3183 28.2356 29.271 27.5895 30.2923 27.0932C34.7983 24.8987 39.3617 25.1631 43.9111 26.9334C48.5025 28.7206 52.3846 31.6277 55.917 35.0282C56.7088 35.7904 57.4419 36.6175 58.2281 37.3867C58.5862 37.7374 58.5736 37.9919 58.2771 38.3977C54.802 43.1782 50.1897 46.3709 44.6442 48.1327C35.1341 51.1543 25.8128 50.5746 16.9336 45.9086C11.2132 42.9011 7.30593 38.1446 5.15293 31.9571C4.93329 31.3265 5.02982 30.8825 5.41314 30.3537C10.9097 22.7806 17.724 16.8986 26.4885 13.5122C30.7544 11.8454 35.2809 10.9634 39.8541 10.9077C39.9661 10.9105 40.0738 10.9219 40.2948 10.9332Z" fill="white"/>
</svg>
