<svg width="108" height="93" viewBox="0 0 108 93" fill="none" xmlns="http://www.w3.org/2000/svg">
<path d="M98.5687 3.00165H105.277V0H98.3736L53.3122 9.00175H16.2993C11.9779 9.00599 7.83497 10.4999 4.77932 13.1557C1.72367 15.8116 0.00487241 19.4125 0 23.1684L0 42.8327C0.00487241 46.5887 1.72367 50.1895 4.77932 52.8454C7.83497 55.5012 11.9779 56.9951 16.2993 56.9994H18.9833V88.2287C18.9852 89.4936 19.5642 90.7062 20.5933 91.6007C21.6223 92.4951 23.0175 92.9983 24.4728 93H32.4807C33.9363 92.9992 35.332 92.4962 36.3613 91.6016C37.3906 90.707 37.9693 89.4939 37.9702 88.2287V69.0028H44.1593C44.9831 69.0022 45.7883 68.7895 46.4731 68.3914C47.1579 67.9933 47.6916 67.4278 48.0067 66.7662C48.3219 66.1046 48.4045 65.3767 48.2439 64.6744C48.0834 63.9721 47.687 63.3269 47.1047 62.8203L45.0834 61.0635C44.9505 60.9453 44.8753 60.7871 44.8736 60.6218V56.9994H53.3085L97.987 65.9595L105.277 65.9979V62.9995H98.5687L55.2267 54.3081V11.693L98.5687 3.00165ZM16.2993 54.0009C12.8926 53.9975 9.62654 52.8198 7.21765 50.7261C4.80876 48.6324 3.45373 45.7937 3.44983 42.8327V23.1684C3.45373 20.2075 4.80876 17.3687 7.21765 15.275C9.62654 13.1813 12.8926 12.0036 16.2993 12.0002H51.7732V54.0009H16.2993ZM34.5167 88.2415C34.5157 88.7106 34.3009 89.1602 33.9193 89.4919C33.5377 89.8236 33.0204 90.0103 32.4807 90.0111H24.4728C23.9331 90.0103 23.4158 89.8236 23.0342 89.4919C22.6526 89.1602 22.4378 88.7106 22.4368 88.2415V57.0026H34.5167V88.2415ZM42.6387 63.1915L44.66 64.9483C44.7609 65.035 44.8299 65.1458 44.858 65.2666C44.8862 65.3874 44.8724 65.5128 44.8183 65.6267C44.7642 65.7407 44.6723 65.8381 44.5542 65.9065C44.4362 65.9748 44.2975 66.0111 44.1556 66.0107H37.9702V57.0026H41.4237V60.625C41.4272 61.5828 41.8636 62.5011 42.6387 63.1819V63.1915Z" fill="#010101"/>
<path d="M39.6933 36.0007C39.6913 35.1496 39.4089 34.3168 38.8796 33.6007L42.4436 28.4422C42.6774 28.4761 42.9136 28.4964 43.1505 28.503C44.3512 28.5109 45.5184 28.1585 46.455 27.5054C47.3915 26.8522 48.0402 25.9382 48.2915 24.9177C48.5429 23.8971 48.3815 22.8324 47.8345 21.9033C47.2876 20.9741 46.3887 20.2374 45.2894 19.8174C44.1901 19.3974 42.9578 19.3199 41.8004 19.5979C40.643 19.8759 39.6314 20.4924 38.9362 21.3434C38.241 22.1943 37.9048 23.2277 37.9844 24.2691C38.064 25.3105 38.5544 26.2961 39.373 27.0597L36.1293 31.7478C35.6108 31.5901 35.0661 31.5069 34.5167 31.5014C33.1753 31.5063 31.8888 31.9655 30.9307 32.7815L27.3925 31.2262C27.5319 30.8287 27.6063 30.4161 27.6134 30.0006C27.6134 28.8073 27.068 27.6629 26.0972 26.8191C25.1264 25.9753 23.8097 25.5013 22.4368 25.5013C21.0639 25.5013 19.7472 25.9753 18.7764 26.8191C17.8056 27.6629 17.2602 28.8073 17.2602 30.0006C17.2607 30.8197 17.5219 31.6227 18.015 32.3207L13.8177 37.7928C12.7859 37.4762 11.6649 37.4533 10.617 37.7273C9.56916 38.0013 8.64882 38.558 7.98922 39.3169C7.32962 40.0758 6.965 40.9974 6.94812 41.9483C6.93125 42.8993 7.26301 43.8303 7.89537 44.6065C8.52774 45.3827 9.42789 45.9638 10.4655 46.2657C11.5032 46.5677 12.6244 46.5748 13.667 46.286C14.7096 45.9973 15.6194 45.4276 16.2648 44.6595C16.9101 43.8914 17.2574 42.9648 17.2565 42.0137C17.2588 41.1903 16.9974 40.3825 16.5017 39.6808L20.699 34.2087C21.4674 34.4595 22.2948 34.5434 23.109 34.453C23.9233 34.3627 24.6998 34.1008 25.3712 33.6903L29.4211 35.4439C29.3879 35.624 29.367 35.8057 29.3585 35.9879C29.3585 37.1812 29.9039 38.3257 30.8747 39.1694C31.8455 40.0132 33.1622 40.4873 34.5351 40.4873C35.908 40.4873 37.2247 40.0132 38.1955 39.1694C39.1663 38.3257 39.7117 37.1812 39.7117 35.9879L39.6933 36.0007ZM43.1468 22.4996C43.4883 22.4996 43.8222 22.5877 44.1061 22.7526C44.3901 22.9175 44.6114 23.1519 44.7421 23.4261C44.8728 23.7004 44.907 24.0021 44.8404 24.2933C44.7738 24.5844 44.6093 24.8518 44.3678 25.0617C44.1263 25.2716 43.8186 25.4146 43.4837 25.4725C43.1487 25.5304 42.8015 25.5006 42.486 25.3871C42.1705 25.2735 41.9008 25.0811 41.7111 24.8343C41.5213 24.5875 41.4201 24.2973 41.4201 24.0005C41.4201 23.6024 41.602 23.2207 41.9258 22.9392C42.2496 22.6578 42.6889 22.4996 43.1468 22.4996ZM12.0799 43.5017C11.7384 43.5017 11.4045 43.4137 11.1206 43.2488C10.8366 43.0839 10.6153 42.8495 10.4846 42.5752C10.3539 42.301 10.3197 41.9992 10.3863 41.7081C10.453 41.417 10.6174 41.1495 10.8589 40.9396C11.1004 40.7297 11.4081 40.5868 11.743 40.5289C12.078 40.471 12.4252 40.5007 12.7407 40.6143C13.0562 40.7279 13.3259 40.9203 13.5157 41.1671C13.7054 41.4139 13.8067 41.7041 13.8067 42.0009C13.8067 42.3989 13.6247 42.7807 13.3009 43.0621C12.9771 43.3436 12.5379 43.5017 12.0799 43.5017ZM20.71 30.0006C20.71 29.7038 20.8113 29.4136 21.001 29.1668C21.1908 28.92 21.4605 28.7276 21.776 28.614C22.0915 28.5004 22.4387 28.4707 22.7737 28.5286C23.1086 28.5865 23.4163 28.7295 23.6578 28.9394C23.8993 29.1493 24.0637 29.4167 24.1304 29.7078C24.197 29.9989 24.1628 30.3007 24.0321 30.5749C23.9014 30.8492 23.6801 31.0836 23.3961 31.2485C23.1121 31.4134 22.7783 31.5014 22.4368 31.5014C21.9788 31.5014 21.5396 31.3433 21.2158 31.0619C20.8919 30.7804 20.71 30.3987 20.71 30.0006ZM34.5167 37.5016C34.1752 37.5016 33.8413 37.4136 33.5574 37.2486C33.2734 37.0837 33.0521 36.8493 32.9214 36.5751C32.7907 36.3008 32.7565 35.9991 32.8231 35.7079C32.8898 35.4168 33.0542 35.1494 33.2957 34.9395C33.5372 34.7296 33.8449 34.5867 34.1798 34.5287C34.5148 34.4708 34.862 34.5006 35.1775 34.6142C35.493 34.7278 35.7627 34.9201 35.9525 35.1669C36.1422 35.4137 36.2435 35.7039 36.2435 36.0007C36.2435 36.3988 36.0615 36.7805 35.7377 37.062C35.4139 37.3435 34.9747 37.5016 34.5167 37.5016Z" fill="#010101"/>
<path d="M107.004 0H98.3735V66.0011H107.004V0Z" fill="#EEBC60"/>
</svg>
