<svg width="82" height="111" viewBox="0 0 82 111" fill="none" xmlns="http://www.w3.org/2000/svg">
<path d="M41.0817 0C33.0227 0 25.1447 2.34944 18.4439 6.75122C11.7431 11.153 6.52046 17.4094 3.43641 24.7293C0.352372 32.0492 -0.454554 40.1038 1.11768 47.8746C2.68991 55.6453 6.57068 62.7832 12.2692 68.3857C17.9678 73.9881 25.2282 77.8033 33.1324 79.349C41.0365 80.8947 49.2294 80.1014 56.6749 77.0694C64.1205 74.0374 70.4843 68.9029 74.9616 62.3152C79.4389 55.7275 81.8287 47.9824 81.8287 40.0594C81.8287 29.435 77.5357 19.2457 69.8942 11.7331C62.2526 4.22053 51.8885 0 41.0817 0ZM66.4846 68.2292C64.6035 69.8694 62.5633 71.3242 60.3933 72.5728C62.5171 70.4916 63.6916 68.2896 65.7744 65.3491C67.8976 62.1539 69.6563 58.7385 71.0188 55.1647C69.9877 59.9246 68.7449 64.4495 66.4846 68.2292ZM29.1519 75.8624C32.3546 74.3787 35.4958 72.7675 38.637 71.163C41.6007 69.639 44.4893 68.5783 47.1593 66.4635C50.2261 64.1199 52.8142 61.227 54.787 57.9374C58.0101 52.3249 59.2461 45.9203 60.1612 39.6096C60.844 35.0377 61.0489 30.4255 62.0596 25.8738C62.4293 23.9954 62.9243 22.143 63.5414 20.3284C63.7053 19.8384 64.3677 17.4618 65.0505 15.4813C65.4466 15.1523 65.8495 14.81 66.2387 14.4877C65.2076 17.6296 64.2311 21.604 64.0809 23.6919C63.6506 29.734 64.8525 34.7289 64.3813 40.771C64.0399 45.1348 63.1931 47.894 61.9708 52.1839C61.6635 53.2514 61.0557 54.6411 60.168 56.7693C58.3235 59.711 56.1297 62.4266 53.6329 64.859C50.8915 67.4801 47.9209 69.8591 44.7556 71.9686C44.0727 72.4184 38.7326 75.7416 35.8782 77.3931C33.5936 77.0844 31.3422 76.5721 29.1519 75.8624ZM10.4686 62.6838C9.88812 61.9319 9.34865 61.1465 8.82966 60.3475C9.0277 59.9515 9.2189 59.5621 9.41693 59.1593C10.4686 56.9841 11.1309 54.7552 12.3806 52.6405C14.0468 49.8141 15.9588 47.0213 17.8436 44.3157C21.3126 39.2605 25.5737 34.984 30.0124 30.7344C32.7064 28.1726 35.6347 25.8601 38.76 23.8262C44.4809 20.3816 50.7472 17.9015 57.2999 16.4883C59.1257 16.11 60.9114 15.5638 62.6332 14.8569L62.92 14.7562L61.9913 15.4276C57.3068 18.8649 52.233 22.4365 47.009 24.9809C46.0599 25.4441 45.0355 25.9678 43.9839 26.5384C41.7393 27.0561 39.5788 27.8786 37.5649 28.9821C33.664 30.8783 30.0397 33.2808 26.7892 36.1253C23.7436 38.9382 21.8862 42.295 19.4552 45.5913C17.9322 47.8686 16.5415 50.2289 15.2896 52.6606C13.9239 55.0775 12.4899 57.4608 11.3358 59.985C10.9082 60.8305 10.6178 61.7366 10.4754 62.6704L10.4686 62.6838ZM2.78625 40.0594C2.78625 39.0457 2.84088 38.0453 2.91599 37.0517C5.64748 34.0978 10.6393 28.1295 12.0187 26.4444C13.7122 24.37 15.2555 22.658 16.9627 20.5768C19.4961 17.4551 21.5038 14.81 24.5152 12.2118C27.7043 9.52644 30.5587 6.84104 34.253 4.7263C35.618 3.82745 37.1149 3.13919 38.6917 2.6854C39.1492 2.59141 39.6204 2.51756 40.0984 2.437C40.4262 2.437 40.7813 2.437 41.0817 2.437C42.2153 2.437 43.3284 2.49742 44.4346 2.59141C42.5692 4.49542 40.4514 6.14384 38.1385 7.49225C36.4723 8.47914 34.9017 9.46602 33.2492 10.426C29.6176 12.5381 26.2092 15.0007 23.0744 17.7773C19.9263 20.55 17.666 22.1277 14.8799 25.2561C11.2607 29.244 7.20443 34.1717 4.99192 39.0994C4.2139 40.7843 3.57006 42.5261 3.06622 44.309C2.9004 42.8893 2.81605 41.4616 2.81356 40.0325L2.78625 40.0594ZM15.037 16.3473C16.4027 14.7361 17.7685 13.1316 19.0454 11.4465C19.627 10.4182 20.1381 9.35289 20.5751 8.25759C22.5989 6.99944 24.739 5.93174 26.9667 5.06868C25.0001 7.24385 23.0471 10.1307 21.5789 11.9232C16.4573 18.1264 11.8275 24.6385 5.99575 30.2778C5.21044 31.0365 4.27491 31.8354 3.51692 32.7014C4.13653 29.6142 5.15067 26.6163 6.53521 23.7792C9.94958 22.1075 12.6333 19.2207 15.037 16.3473ZM6.94494 40.0594C8.88429 35.9373 12.6264 29.4856 15.9588 26.3034C19.7351 22.6916 24.406 20.0062 28.8924 17.3477C32.0883 15.4721 35.1772 13.4259 38.1454 11.2182C41.1469 9.10598 43.7629 6.50918 45.8823 3.53801C46.0599 3.27618 46.2715 3.0345 46.4491 2.77938C48.2965 3.03187 50.1224 3.41783 51.9121 3.9341C51.6524 4.27288 51.3719 4.59573 51.0721 4.90085C48.5941 7.27743 45.868 9.39044 42.9391 11.2048C39.5931 13.3867 36.5748 15.8237 32.9009 17.4484C30.1684 18.6667 27.5037 20.027 24.9181 21.5234C18.0894 25.4576 13.3844 30.5262 10.7554 37.9312C8.49506 44.3023 8.02388 51.0829 8.12631 57.7897C7.99656 58.1052 7.87364 58.3872 7.76438 58.6222C6.15478 55.8378 4.91548 52.8618 4.07687 49.7671C4.41743 46.3853 5.38973 43.0943 6.94494 40.0594ZM61.7454 8.36501C61.1104 8.84838 60.6733 9.76813 60.0861 10.3791C58.9277 11.6287 57.5995 12.7154 56.1391 13.6082C53.7763 15.0516 51.3589 15.3202 48.8187 16.2936C40.8339 19.3508 33.4425 23.7336 26.9667 29.2507C24.5016 31.3721 22.0706 34.4268 19.8581 37.3404L19.9195 37.1457C21.2553 32.612 23.949 28.5788 27.6496 25.5717C31.4396 22.4029 36.1104 20.7715 40.4603 18.4554L43.8747 16.6495C45.6774 15.723 47.4529 14.7697 49.1874 13.8365C50.3915 13.2519 51.5488 12.5787 52.6496 11.8225C53.3972 11.2402 54.0835 10.5857 54.6982 9.86883C55.1899 9.27133 55.7635 8.74096 56.2415 8.13003C56.7296 7.47414 57.1548 6.77519 57.5116 6.04214C58.969 6.72802 60.3808 7.50386 61.7386 8.36501H61.7454ZM61.3152 19.3013C60.6832 21.9245 60.1863 24.5775 59.8266 27.2501C59.2939 30.4054 58.8159 33.6279 58.1535 36.7631C57.3819 40.4085 56.9244 44.7521 55.2991 48.1357C53.988 50.8681 52.6974 53.6072 51.2019 56.2456C49.8361 58.6289 48.5182 60.9451 46.3672 62.7107C44.5864 64.1173 42.6172 65.2762 40.5149 66.1547C37.5411 67.3829 34.4444 68.301 31.2757 68.8938C29.4729 69.2832 27.7043 69.8673 25.9015 70.2365C24.9796 70.4379 24.0372 70.8407 23.088 71.0891C22.6622 71.2013 22.2245 71.2644 21.7838 71.2771C22.8968 70.5185 24.5562 69.3772 25.1298 69.0281C28.6056 66.8865 32.5458 65.6176 36.008 63.5365C39.4701 61.4553 42.7548 59.2264 45.5272 56.1986C51.2838 49.9081 53.4281 39.6096 55.9752 31.681C56.8697 28.8881 57.6209 25.9745 58.891 23.3092C59.3486 22.3559 60.448 20.8051 61.322 19.2811L61.3152 19.3013ZM16.8807 35.9037C15.8906 38.0185 15.515 40.8986 15.3374 43.3423C14.1341 45.0636 13.0416 46.8574 12.0665 48.7131C12.1075 47.894 12.1416 47.075 12.1826 46.2559C12.2376 44.2755 12.4661 42.3034 12.8654 40.3615C13.7327 36.362 15.3715 32.5631 17.6933 29.1701C18.7723 27.6596 24.1123 23.6516 25.7376 22.7252C29.3909 20.644 33.2492 18.885 37.0323 17.1194C40.8154 15.3537 44.8717 13.521 48.5865 11.3391C50.9741 10.0225 53.2207 8.47282 55.2923 6.71349C54.7696 7.49059 54.2043 8.23913 53.5988 8.95579C52.5023 10.1324 51.2089 11.1156 49.7747 11.8627C46.2565 13.9579 42.5704 15.7676 38.7531 17.2738C35.6972 18.4374 32.7818 19.9302 30.0602 21.7248C25.9629 24.3028 22.9719 26.196 20.2814 30.2644C18.9992 32.0561 17.8578 33.9414 16.8671 35.9037H16.8807ZM48.9143 27.4246C46.9408 29.922 45.1926 33.9703 43.8064 36.5549C42.4201 39.1396 41.2456 41.9257 40.0233 44.6716C39.529 45.9573 38.9378 47.205 38.2546 48.4043C37.7015 49.277 37.162 50.2035 36.5611 51.0494C34.2614 54.4634 31.3672 57.4519 28.0115 59.8776C26.6691 60.7406 25.2708 61.5165 23.8255 62.2005C23.5524 62.3482 20.8414 63.4559 18.704 64.2145C20.2609 62.8248 23.4841 59.3472 25.6215 57.6353C28.7462 55.0669 31.6893 52.2923 34.4305 49.3307C37.6878 45.504 40.2691 40.4958 42.6728 36.1857C44.2434 33.3862 46.333 29.781 48.9006 27.4582L48.9143 27.4246ZM29.0973 42.7112C33.6452 37.233 39.436 32.5403 45.3838 28.6129L45.9028 28.2772C45.1105 28.9882 44.3775 29.7605 43.7108 30.5867C41.9899 32.7417 40.5559 35.1653 39.0126 37.5015C36.9606 40.6459 34.6783 43.639 32.1839 46.4573C28.1823 50.9017 23.7368 55.3863 20.0902 59.9783C19.4074 60.8511 18.7655 61.6903 18.0416 62.516C19.0919 59.2915 20.3885 56.1496 21.9203 53.1171C23.9087 49.3848 26.316 45.8831 29.0973 42.6776V42.7112ZM16.9217 66.0674C22.6373 65.0873 28.4759 62.8651 32.8463 59.0451C37.3259 55.1245 39.1902 53.003 41.7782 47.7665C43.144 44.9804 45.0834 39.1598 46.6198 36.4475C47.6031 34.7155 48.3816 32.9498 49.2557 31.1774C50.7785 28.0959 53.7012 24.5445 56.2073 21.7786C56.9722 21.2907 57.7324 20.7962 58.4881 20.2949C58.3174 20.9284 58.1029 21.5497 57.8462 22.1545C57.1634 23.5912 54.4319 30.7813 53.5715 32.9834C51.7072 37.8708 48.7913 42.2278 46.9203 47.1488C45.1994 51.6066 43.8883 53.4192 41.0817 56.1919C39.7638 57.4943 32.6141 62.4354 31.023 63.4492C28.8105 64.859 26.318 65.7989 24.0919 67.1819C22.6237 68.0949 20.7116 69.6793 18.9976 70.834C18.0871 70.1895 17.1926 69.5182 16.3139 68.82C16.4659 67.915 16.6665 67.0187 16.9149 66.1346L16.9217 66.0674ZM69.8989 15.347C70.3542 15.8707 70.8094 16.4078 71.2647 16.9583C71.2169 17.4282 71.1827 17.7706 71.1691 17.9452C71.0188 19.6705 70.8003 21.369 70.5681 23.0877C70.295 25.1353 70.1721 27.1896 69.8853 29.2305C69.3487 33.2568 68.4693 37.2318 67.2562 41.1134C66.8806 42.3554 66.4504 43.6175 65.9792 44.8797C66.6124 42.2308 67.0325 39.5371 67.2357 36.8235C67.5772 29.4386 66.0134 24.4237 69.8853 15.2665L69.8989 15.347ZM11.7524 64.2749C12.6606 61.1666 16.5325 54.7485 17.0105 53.8019C18.6582 50.7372 20.4822 47.7673 22.4734 44.9065C24.1298 42.9058 25.9575 41.0484 27.9364 39.3545C26.1722 41.3704 24.5738 43.521 23.1563 45.786C21.7512 48.0659 20.5187 50.4445 19.4688 52.9023C17.3787 57.6444 15.8969 62.6238 15.0575 67.7257C14.6819 67.3833 14.3063 67.0543 13.9444 66.6784C13.1659 65.913 12.4216 65.1074 11.7114 64.2749H11.7524ZM38.3434 77.6012C72.8148 57.83 72.8899 38.0453 72.9582 20.5366C72.9582 20.1069 72.9582 19.6772 72.9582 19.2476C73.9141 20.657 74.7719 22.1284 75.5258 23.6516C75.8282 25.5715 76.031 27.5052 76.1336 29.4454C76.1704 32.3334 75.8888 35.2169 75.2936 38.0453C74.8429 40.0594 74.2761 42.0734 73.7094 44.0875C72.0568 47.8 70.1106 51.9221 69.1273 53.6743C66.3002 58.7095 63.2614 63.7446 59.2256 67.9204C55.9 71.3845 54.7392 73.0092 52.4857 75.0434C52.1647 75.3321 51.6731 75.8758 50.9902 76.4532C47.7499 77.3086 44.4094 77.742 41.0544 77.7422C40.1394 77.7422 39.238 77.7019 38.3229 77.6348L38.3434 77.6012ZM71.8997 62.375C72.9731 59.8406 73.8519 57.2307 74.5288 54.5672C75.041 52.6338 75.2117 50.6197 75.519 48.6459C76.2288 45.0133 77.1615 41.4263 78.3119 37.9044C78.5236 37.233 78.8036 36.4677 79.0699 35.7359C79.2404 37.1777 79.327 38.628 79.3294 40.0795C79.341 48.1001 76.7344 55.9127 71.8929 62.3683" fill="white"/>
<path d="M8.72725 103.616C9.22958 103.159 9.63024 102.604 9.90406 101.987C10.1779 101.37 10.3189 100.704 10.3183 100.031C10.3212 99.3576 10.1847 98.6907 9.91704 98.0709C9.64937 97.4511 9.25617 96.8914 8.76139 96.4258C8.29343 95.9363 7.72848 95.5462 7.10134 95.2795C6.4742 95.0128 5.79816 94.8751 5.11485 94.875H3.71497V110.316H5.53823V106.738L8.91845 110.316H11.3904L6.41231 105.012C7.29059 104.768 8.09014 104.306 8.73408 103.67L8.72725 103.616ZM5.53823 96.6742C6.28006 96.7706 6.96397 97.1199 7.47076 97.6611C8.11332 98.2858 8.47774 99.1356 8.48414 100.024C8.49054 100.912 8.1384 101.767 7.50491 102.401C6.99758 102.96 6.29609 103.312 5.53823 103.388V96.6742Z" fill="white"/>
<path d="M24.1397 94.6265C23.0897 94.6157 22.0488 94.8189 21.0827 95.2233C20.1166 95.6278 19.2462 96.2246 18.5265 96.9762C17.7798 97.7011 17.1889 98.5661 16.7889 99.5199C16.3889 100.474 16.1879 101.497 16.1979 102.528C16.1814 104.617 17.0063 106.628 18.4923 108.121C19.1796 108.877 20.0214 109.482 20.9628 109.896C21.9042 110.31 22.9239 110.524 23.9553 110.524H24.2353C25.274 110.53 26.3022 110.32 27.2521 109.907C28.202 109.494 29.052 108.887 29.746 108.127C31.23 106.631 32.0523 104.618 32.0337 102.528C32.0457 101.497 31.8476 100.474 31.4512 99.5195C31.0548 98.5648 30.4681 97.6978 29.7256 96.9695C29.0083 96.2188 28.1401 95.6229 27.1762 95.2196C26.2123 94.8162 25.1736 94.6143 24.126 94.6265H24.1397ZM28.394 106.952C27.8441 107.528 27.1803 107.986 26.4433 108.3C25.7064 108.613 24.9119 108.775 24.1089 108.775C23.306 108.775 22.5115 108.613 21.7745 108.3C21.0376 107.986 20.3737 107.528 19.8239 106.952C18.6787 105.779 18.0393 104.215 18.0393 102.589C18.0393 100.962 18.6787 99.3987 19.8239 98.2249C20.376 97.651 21.0413 97.1938 21.7793 96.8813C22.5172 96.5689 23.3123 96.4077 24.1158 96.4077C24.9193 96.4077 25.7143 96.5689 26.4522 96.8813C27.1902 97.1938 27.8556 97.651 28.4076 98.2249C29.5497 99.4003 30.187 100.963 30.187 102.589C30.187 104.214 29.5497 105.777 28.4076 106.952" fill="white"/>
<path d="M44.7215 94.6269C43.6715 94.6161 42.6306 94.8193 41.6645 95.2237C40.6984 95.6281 39.828 96.225 39.1082 96.9766C38.3616 97.7015 37.7707 98.5665 37.3707 99.5202C36.9707 100.474 36.7697 101.497 36.7796 102.529C36.7639 104.617 37.5887 106.628 39.0741 108.121C39.7614 108.877 40.6032 109.482 41.5446 109.896C42.486 110.31 43.5057 110.524 44.5371 110.524H44.8171C45.8557 110.531 46.8839 110.32 47.8339 109.907C48.7838 109.494 49.6338 108.887 50.3278 108.128C51.8118 106.631 52.634 104.619 52.6155 102.529C52.6266 101.497 52.4274 100.474 52.0299 99.5191C51.6323 98.5644 51.0443 97.6976 50.3005 96.9699C49.5858 96.2214 48.7211 95.6267 47.7608 95.2234C46.8005 94.8202 45.7656 94.617 44.7215 94.6269ZM48.9894 106.953C48.4396 107.528 47.7757 107.987 47.0388 108.3C46.3018 108.614 45.5073 108.775 44.7044 108.775C43.9014 108.775 43.107 108.614 42.37 108.3C41.633 107.987 40.9692 107.528 40.4194 106.953C39.2757 105.778 38.6374 104.215 38.6374 102.589C38.6374 100.963 39.2757 99.3999 40.4194 98.2253C40.9719 97.6522 41.6375 97.1958 42.3753 96.8839C43.1132 96.572 43.908 96.4111 44.7112 96.4111C45.5144 96.4111 46.3092 96.572 47.0471 96.8839C47.785 97.1958 48.4505 97.6522 49.0031 98.2253C50.1451 99.4007 50.7824 100.964 50.7824 102.589C50.7824 104.215 50.1451 105.777 49.0031 106.953" fill="white"/>
<path d="M57.0746 96.6272H57.6892H60.3182V110.282H62.162V96.6272H65.3715V94.875H57.0746V96.6272Z" fill="white"/>
<path d="M70.4521 105.482V108.168L70.5477 108.315C70.9889 109.007 71.5993 109.58 72.3231 109.98C73.0545 110.361 73.8722 110.552 74.6995 110.537C75.9531 110.572 77.1734 110.138 78.1139 109.322C78.5767 108.92 78.9409 108.419 79.1792 107.859C79.4186 107.272 79.537 106.645 79.5274 106.013V105.825C79.535 105.159 79.3903 104.501 79.104 103.898C78.8461 103.346 78.4821 102.849 78.0319 102.434C77.6049 102.053 77.1483 101.705 76.6662 101.394C76.1882 101.076 75.7102 100.778 75.2322 100.501C74.8142 100.262 74.4107 99.9998 74.0235 99.7153C73.6948 99.4806 73.4144 99.1867 73.1972 98.8492C73.0394 98.599 72.9544 98.3111 72.9514 98.0168V97.9228C72.9457 97.6937 72.9852 97.4658 73.0675 97.2514C73.1391 97.0743 73.2513 96.9158 73.3952 96.7882C73.548 96.6439 73.7292 96.5319 73.9277 96.4592C74.1262 96.3865 74.3377 96.3545 74.5493 96.3652C76.6935 96.4257 77.9636 98.9164 77.9636 98.9164V96.2914L77.8339 96.1303C77.4611 95.6454 76.9766 95.2543 76.4204 94.989C75.8541 94.7292 75.2356 94.5984 74.6107 94.6063C73.7085 94.5824 72.8279 94.8805 72.1319 95.4455C71.7772 95.738 71.5006 96.1114 71.3261 96.5331C71.1502 96.9779 71.0644 97.4523 71.0735 97.9295V98.0638C71.0685 98.7431 71.2733 99.4079 71.6607 99.9704C72.0206 100.503 72.485 100.959 73.0265 101.313L74.6244 102.34C75.1935 102.703 75.7193 103.05 76.2018 103.381C76.6252 103.674 76.9812 104.051 77.2466 104.489C77.51 104.915 77.6472 105.406 77.6427 105.905V106.073C77.6624 106.442 77.5984 106.81 77.4555 107.151C77.3126 107.493 77.0943 107.798 76.8164 108.047C76.2609 108.553 75.5254 108.826 74.7678 108.805C73.7435 108.805 72.1661 108.134 70.3701 105.496L70.4521 105.482Z" fill="white"/>
</svg>
