<svg width="91" height="94" viewBox="0 0 91 94" fill="none" xmlns="http://www.w3.org/2000/svg">
<path d="M78.5217 21.593C77.9386 20.0571 77.0135 18.6415 75.8017 17.4309C74.59 16.2203 73.1165 15.2395 71.4692 14.5472C71.1927 12.9539 70.5557 11.4271 69.5966 10.0594C68.6376 8.69166 67.3765 7.51145 65.8898 6.59029C62.8428 4.68929 59.0748 3.93782 55.4077 4.49982C52.7674 2.1827 49.2082 0.883667 45.5001 0.883667C41.7919 0.883667 38.2328 2.1827 35.5925 4.49982C31.924 3.9441 28.1572 4.69895 25.1104 6.60041C23.6252 7.52065 22.365 8.69932 21.4061 10.0652C20.4471 11.4311 19.8092 12.9558 19.531 14.5472C17.8854 15.2391 16.413 16.2186 15.2014 17.4273C13.9898 18.636 13.0638 20.0492 12.4785 21.5829C11.8537 23.2384 11.6535 24.9975 11.8926 26.7309C12.1318 28.4644 12.8042 30.1281 13.8606 31.5999C14.567 32.864 15.4963 34.0191 16.6133 35.0216L18.8883 36.5148C19.3241 35.3128 20.1762 34.2644 21.3225 33.5197C22.4688 32.7751 23.8505 32.3724 25.2697 32.3693V27.8745L33.6929 23.3747L38.749 27.8745L45.5001 23.3747L52.2398 27.8745L57.296 23.3747L65.7191 27.8745V32.3743C67.2124 32.3756 68.6628 32.819 69.8418 33.6346C71.0208 34.4502 71.8615 35.5917 72.2313 36.8792L74.2845 35.1076C75.4431 34.0896 76.404 32.9078 77.1283 31.61C78.1872 30.1393 78.8621 28.4759 79.1033 26.7424C79.3444 25.0088 79.1457 23.2492 78.5217 21.593Z" fill="#EFBC5F"/>
<path d="M60.68 66.9453L62.3521 75.8691L55.6124 80.3487L58.9851 84.8485L50.5562 92.3651H47.2063L57.1822 65.6698L60.68 66.9453Z" fill="#EFBC5F"/>
<path d="M30.3202 66.9453L28.6481 75.869L35.3878 80.3486L32.0151 84.8484L40.4382 92.3447H43.7939L33.818 65.6698L30.3202 66.9453Z" fill="#EFBC5F"/>
<path d="M74.3526 70.3015L57.0627 64.0048C56.1321 63.6684 55.3358 63.092 54.7763 62.3496C54.2168 61.6073 53.9197 60.7329 53.9232 59.839V58.7609C59.0866 55.5806 63.0511 51.0873 65.2981 45.8688H65.702C67.7958 45.8795 69.8191 45.1957 71.3772 43.9508C72.9353 42.706 73.9166 40.9892 74.1296 39.1354C74.3427 37.2816 73.7723 35.4236 72.5296 33.9238C71.2869 32.424 69.4611 31.3898 67.4082 31.023V27.0243L57.0342 21.4919L52.0804 25.9006L45.5 21.502L38.9196 25.8955L33.9658 21.4868L23.5918 27.0293V31.0281C21.5388 31.3949 19.713 32.429 18.4704 33.9289C17.2277 35.4287 16.6573 37.2867 16.8704 39.1405C17.0834 40.9943 18.0647 42.711 19.6228 43.9559C21.1809 45.2008 23.2042 45.8846 25.298 45.8739H25.7018C27.9485 51.0925 31.9131 55.5859 37.0768 58.766V59.8441C37.0803 60.738 36.7831 61.6123 36.2236 62.3547C35.6642 63.0971 34.8679 63.6735 33.9373 64.0098L16.6473 70.3065C11.7188 72.0888 7.50088 75.1408 4.53475 79.0711C1.56863 83.0014 -0.0104634 87.6308 5.21794e-05 92.3653V93.8838H90.9999V92.3653C91.0123 87.6298 89.4341 82.999 86.4678 79.0676C83.5015 75.1362 79.2825 72.0835 74.3526 70.3015ZM45.5 73.4903L54.0312 65.8978C54.3706 66.1171 54.7281 66.3133 55.1005 66.485L45.972 90.867H45.0279L35.8938 66.4799C36.2679 66.3081 36.6272 66.1118 36.9687 65.8928L45.5 73.4903ZM63.7 39.6481C63.5805 40.3567 63.4213 41.0653 63.2108 41.8145C62.9017 42.1489 62.5137 42.4189 62.0744 42.6052C61.6351 42.7915 61.1552 42.8896 60.6685 42.8926H53.6786C53.0527 42.8943 52.4387 42.7403 51.906 42.4478C51.3734 42.1553 50.9432 41.7361 50.6642 41.2374L49.9135 39.8556H41.0865L40.3357 41.1969C40.0631 41.7031 39.6358 42.1307 39.1026 42.4306C38.5694 42.7305 37.9521 42.8906 37.3214 42.8926H30.3314C29.8447 42.8936 29.3636 42.7993 28.9224 42.6165C28.4811 42.4337 28.0903 42.1668 27.7778 41.8347C27.5673 41.0856 27.4081 40.3719 27.2886 39.6683C27.0752 38.4288 26.9668 37.1767 26.9644 35.9227V32.3795H64.0412V35.9227C64.0397 37.1767 63.9313 38.4289 63.717 39.6683L63.7 39.6481ZM70.7638 38.3725C70.7601 39.4548 70.3172 40.4995 69.5167 41.3142C68.7162 42.1289 67.6119 42.6589 66.4072 42.8065C66.5039 42.4623 66.5892 42.1131 66.6745 41.7588C66.7352 41.5023 66.7921 41.2475 66.8451 40.9945C67.2103 39.3146 67.4007 37.6083 67.4139 35.8974V34.1511C68.3972 34.4585 69.2493 35.0294 69.8532 35.7853C70.4572 36.5412 70.7832 37.445 70.7866 38.3725H70.7638ZM57.5575 25.2628L64.0355 28.7199V29.3779H52.9392L57.5575 25.2628ZM51.6823 29.3779H39.3234L45.5 25.2527L51.6823 29.3779ZM33.4425 25.2628L38.0607 29.3729H26.9644V28.7199L33.4425 25.2628ZM20.2248 38.3725C20.229 37.4452 20.5553 36.5417 21.1591 35.786C21.763 35.0302 22.6146 34.4592 23.5975 34.1511V35.8974C23.6114 37.6083 23.8018 39.3145 24.1662 40.9945C24.2174 41.2475 24.2743 41.5006 24.3425 41.7638C24.4278 42.1131 24.5131 42.4623 24.6098 42.8065C23.4051 42.6589 22.3008 42.1289 21.5003 41.3142C20.6998 40.4995 20.2569 39.4548 20.2532 38.3725H20.2248ZM29.2793 45.7879C29.6268 45.8415 29.9787 45.8703 30.3314 45.8739H37.3214C38.5029 45.8786 39.6649 45.6053 40.6896 45.0818C41.7144 44.5582 42.5655 43.803 43.1567 42.8926H47.8375C48.4264 43.8075 49.2771 44.5673 50.3032 45.0945C51.3292 45.6218 52.4938 45.8977 53.6786 45.8942H60.6628C61.0156 45.8905 61.3674 45.8617 61.715 45.8081C60.1948 48.9235 57.9709 51.7273 55.1814 54.0453C52.3919 56.3633 49.0965 58.1459 45.5 59.2822C41.9002 58.1445 38.6022 56.3591 35.8115 54.0375C33.0208 51.7159 30.7972 48.9077 29.2793 45.7879ZM44.9654 62.2889L45.5 62.4458L46.0346 62.2889C47.6112 61.8237 49.1441 61.2482 50.6187 60.5679C50.7341 61.6677 51.1226 62.731 51.7562 63.6808L45.5 69.2487L39.2437 63.6808C39.8773 62.731 40.2659 61.6677 40.3812 60.5679C41.8554 61.2505 43.3883 61.8277 44.9654 62.2939V62.2889ZM17.9213 73.0803L32.7884 67.6694L41.4789 90.867H20.2248V81.8674H16.8521V90.867H3.41255C3.71585 86.9924 5.23482 83.2713 7.7967 80.127C10.3586 76.9826 13.8605 74.5412 17.9043 73.0803H17.9213ZM74.1479 90.867V81.8674H70.7752V90.867H49.521L58.2115 67.6644L73.0786 73.0753C77.1256 74.5339 80.6311 76.9743 83.1961 80.1189C85.7611 83.2634 87.2826 86.9857 87.5874 90.862H74.1649L74.1479 90.867Z" fill="#010101"/>
<path d="M52.2397 47.3723H48.8727C48.837 48.1464 48.4663 48.8782 47.8383 49.4147C47.2102 49.9511 46.3734 50.2507 45.5029 50.2507C44.6324 50.2507 43.7956 49.9511 43.1675 49.4147C42.5395 48.8782 42.1688 48.1464 42.1331 47.3723H38.7604C38.7604 48.9631 39.4704 50.4888 40.7344 51.6136C41.9983 52.7385 43.7126 53.3704 45.5001 53.3704C47.2875 53.3704 49.0018 52.7385 50.2657 51.6136C51.5297 50.4888 52.2397 48.9631 52.2397 47.3723Z" fill="#010101"/>
</svg>
