<svg width="92" height="96" viewBox="0 0 92 96" fill="none" xmlns="http://www.w3.org/2000/svg">
<path d="M45.5466 81.1565L24.2534 61.4847L26.6226 59.2954L45.5466 76.7778L64.4656 59.2954L66.8398 61.4847L45.5466 81.1565Z" fill="#010101"/>
<path d="M45.5465 90.4465L17.553 64.5785L19.9172 62.3892L45.5465 86.0679L71.1708 62.3892L73.5401 64.5785L45.5465 90.4465Z" fill="#010101"/>
<path d="M48.8943 1.54688H42.2188L10.356 10.8411V13.9392L22.0878 21.6775V27.8691C29.7041 25.7947 37.6065 24.7557 45.5466 24.7848C53.4875 24.7602 61.3899 25.8038 69.0054 27.8829V21.6775L80.7373 13.9346V10.8411L48.8943 1.54688Z" fill="#EFBC5F"/>
<path d="M87.4178 75.5203C86.8723 72.4649 85.4331 69.6054 83.2559 67.2512C81.0786 64.8971 78.2462 63.1379 75.0651 62.164L60.661 57.721V55.7428H57.3083V58.0377C55.5252 59.1347 50.4738 61.9437 45.5765 61.9437C40.6791 61.9437 35.6426 59.1301 33.8446 58.0377V55.7428H30.4671V57.721L16.063 62.164C12.8819 63.1379 10.0495 64.8971 7.87222 67.2512C5.69497 69.6054 4.25576 72.4649 3.71029 75.5203L0 96.0001H91.0883L87.4178 75.5203ZM75.5469 92.9066L74.0071 78.8158L70.6743 79.1233L72.1644 92.8928H47.2205V88.8905L45.5467 90.4373L43.8728 88.8905V92.8974H18.9091L20.3991 79.1279L17.0663 78.8204L15.5415 92.9112H3.97354L7.01329 76.039C7.46153 73.5396 8.63987 71.2007 10.4212 69.2748C12.2024 67.3489 14.519 65.9091 17.121 65.1106L31.8827 60.5667C33.8694 61.8105 39.6311 65.0418 45.5616 65.0418C51.4921 65.0418 57.2438 61.8289 59.2355 60.5621L73.9972 65.106C76.5991 65.9045 78.9157 67.3443 80.697 69.2702C82.4783 71.1961 83.6566 73.535 84.1049 76.0344L87.1496 92.9066H75.5469Z" fill="#010101"/>
<path d="M15.3973 34.0653C15.3937 33.1077 15.0695 32.1745 14.4692 31.3939C13.869 30.6132 13.0221 30.0233 12.0446 29.705V16.9454L20.4089 22.4899V27.9104C19.0668 28.8342 18.0573 30.1105 17.5123 31.5727C16.9674 33.0349 16.9124 34.615 17.3544 36.1065C17.7964 37.5981 18.7149 38.9318 19.99 39.9334C21.2651 40.935 22.8374 41.5581 24.5017 41.7211C25.3654 44.4678 26.9683 46.9674 29.1606 48.9867L35.6921 55.0222C36.4685 55.7434 37.392 56.3152 38.4091 56.7044C39.4262 57.0936 40.5168 57.2925 41.6177 57.2896H49.4704C50.5712 57.2925 51.6618 57.0936 52.6789 56.7044C53.696 56.3152 54.6195 55.7434 55.3959 55.0222L61.9274 48.9867C64.1189 46.9668 65.7216 44.4674 66.5864 41.7211C68.2508 41.5593 69.8236 40.9372 71.0993 39.9361C72.3749 38.9349 73.2938 37.6014 73.736 36.1098C74.1782 34.6183 74.1229 33.0381 73.5775 31.576C73.0322 30.114 72.022 28.838 70.6791 27.915V22.4899L82.411 14.7332V9.68442L49.4008 0.0734364L42.2187 0L8.68202 9.70278V29.705C7.70418 30.0227 6.85684 30.6125 6.25649 31.3933C5.65614 32.174 5.33225 33.1075 5.32935 34.0653V40.2569H15.3973V34.0653ZM23.7765 25.8037V22.8295C38.0368 19.2293 53.0811 19.2293 67.3414 22.8295V25.8037C53.0583 22.3634 38.0595 22.3634 23.7765 25.8037ZM20.4238 34.0653C20.4274 33.1077 20.7516 32.1745 21.3519 31.3939C21.9521 30.6132 22.7991 30.0233 23.7765 29.705V36.9431C23.7765 37.448 23.8063 37.9528 23.856 38.4485C22.8569 38.1437 21.9867 37.5566 21.3682 36.7701C20.7497 35.9836 20.4141 35.0375 20.4089 34.0653H20.4238ZM59.5582 46.8157L53.0267 52.8513C52.5623 53.2872 52.0088 53.6334 51.3982 53.8698C50.7877 54.1062 50.1323 54.228 49.4704 54.2282H41.6177C40.9555 54.2293 40.2998 54.1081 39.689 53.8716C39.0783 53.6352 38.5249 53.2882 38.0613 52.8513L31.5299 46.8157C30.1257 45.5243 29.0125 43.9885 28.2545 42.297C27.4966 40.6056 27.1091 38.7921 27.1143 36.9615V28.2409C39.2461 25.6797 51.8469 25.6797 63.9787 28.2409V36.9431C63.9859 38.7772 63.5988 40.5943 62.84 42.2891C62.0812 43.9839 60.9656 45.5225 59.5582 46.8157ZM67.2519 38.4485C67.2966 37.9528 67.3314 37.448 67.3314 36.9431V29.705C68.3081 30.0279 69.1519 30.6236 69.7456 31.4096C70.3393 32.1956 70.6536 33.1329 70.6449 34.0914C70.6362 35.0499 70.3048 35.9821 69.6968 36.7588C69.0889 37.5354 68.2344 38.118 67.2519 38.4256V38.4485ZM12.0347 11.9747L42.4521 3.0981H48.6359L79.0583 11.9747V13.1405L68.7073 19.9701C53.5579 16.0518 37.5351 16.0518 22.3858 19.9701L12.0347 13.1359V11.9747ZM12.0347 37.1634H8.68202V34.0653C8.68202 33.6545 8.85863 33.2605 9.17301 32.97C9.48738 32.6795 9.91376 32.5163 10.3584 32.5163C10.8029 32.5163 11.2293 32.6795 11.5437 32.97C11.8581 33.2605 12.0347 33.6545 12.0347 34.0653V37.1634Z" fill="#010101"/>
<path d="M15.3874 43.3549H12.0348V52.6447H15.3874V43.3549Z" fill="#010101"/>
<path d="M8.68224 43.3549H5.32959V52.6447H8.68224V43.3549Z" fill="#010101"/>
</svg>
