<svg width="104" height="111" viewBox="0 0 104 111" fill="none" xmlns="http://www.w3.org/2000/svg">
<path d="M43.3419 95.3954V109.997H40.0228C40.0064 109.753 39.9752 109.514 39.9752 109.275C39.9752 103.118 39.9871 96.9555 39.9618 90.8059C39.9618 90.0993 40.1627 89.9613 40.8548 89.8693C42.5233 89.6466 43.4699 90.3383 44.3972 91.6905C47.1909 95.7695 50.1498 99.7371 53.0447 103.746C53.2293 104.003 53.4317 104.247 53.6699 104.554V89.9123C54.6537 89.9123 55.6613 89.8989 56.669 89.9286C56.797 89.9286 56.9756 90.1305 57.0307 90.276C57.0755 90.4706 57.0861 90.6715 57.0619 90.8697C57.0619 96.9555 57.05 103.041 57.0768 109.117C57.0768 109.844 56.8893 110.007 56.1421 110.105C54.545 110.3 53.6118 109.706 52.7024 108.386C49.8313 104.201 46.798 100.141 43.8257 96.0367C43.6828 95.8363 43.531 95.6448 43.3419 95.3954Z" fill="white"/>
<path d="M103.095 101.446C103.053 103.456 102.053 106.533 99.091 108.693C96.8286 110.345 94.2358 110.701 91.524 110.433C86.1658 109.903 83.134 105.938 82.7842 100.917C82.6115 98.4437 83.0253 96.0658 84.3604 93.9402C86.6361 90.3303 90.1011 89.2007 94.1614 89.5599C100.02 90.0839 103.145 94.675 103.095 101.446ZM99.5925 100.078C99.6408 98.613 99.3446 97.1572 98.7278 95.8268C97.6963 93.6315 95.9787 92.3787 93.5393 92.1887C91.0492 91.9942 88.9089 92.7572 87.6036 94.9421C85.7312 98.0815 85.6568 101.442 87.3401 104.645C89.4016 108.57 94.9101 109.049 97.7976 105.675C99.1684 104.074 99.5732 102.122 99.5911 100.078H99.5925Z" fill="white"/>
<path d="M15.0327 99.0924C15.1458 96.0926 16.3901 92.8285 19.9012 90.7801C21.6872 89.7322 23.6728 89.4175 25.7059 89.5155C29.7618 89.7099 32.8189 91.4941 34.468 95.3044C35.4682 97.6199 35.6305 100.054 35.1289 102.506C33.9888 108.082 29.4909 111.187 23.7234 110.434C18.2967 109.725 15.0163 105.767 15.0327 99.0924ZM18.3875 99.983C18.5884 101.096 18.6986 102.235 19.0096 103.317C19.7732 105.971 21.9165 107.621 24.731 107.853C27.4369 108.074 29.8302 106.757 30.9525 104.291C32.237 101.47 32.225 98.5848 30.9525 95.7437C28.9908 91.3546 23.2233 91.264 20.6692 93.9061C19.0364 95.5983 18.5348 97.6971 18.386 99.9874L18.3875 99.983Z" fill="white"/>
<path d="M79.2523 100.442C79.2716 100.72 79.2939 100.887 79.2939 101.058C79.2939 103.482 79.3103 105.904 79.2791 108.331C79.2791 108.607 79.0751 109.039 78.8534 109.133C75.0312 110.74 71.1376 111.095 67.2261 109.504C65.534 108.805 64.133 107.55 63.2565 105.946C61.2531 102.392 61.0611 98.692 62.7847 94.9946C64.7494 90.7776 69.0836 89.1701 73.5949 89.556C75.2561 89.7037 76.8597 90.2369 78.2774 91.113C78.8623 91.4678 79.1049 91.8122 78.6882 92.4638C78.432 92.9078 78.2038 93.3674 78.005 93.8398C76.7503 93.3292 75.6132 92.682 74.3927 92.4014C69.3664 91.2437 65.4832 94.1752 65.1646 99.311C65.0158 101.722 65.4623 103.991 67.1695 105.858C68.4986 107.312 70.2133 107.862 72.1125 107.856C73.1722 107.856 74.2319 107.675 75.2902 107.577C75.7665 107.533 75.957 107.303 75.9495 106.801C75.9257 104.947 75.9614 103.09 75.9332 101.238C75.9242 100.635 76.1013 100.393 76.7339 100.43C77.5451 100.479 78.3607 100.442 79.2523 100.442Z" fill="white"/>
<path d="M3.51856 89.9003V107.435C3.89363 107.457 4.2062 107.49 4.52025 107.491C6.9746 107.491 9.43193 107.521 11.8833 107.475C12.6543 107.46 12.9043 107.715 12.8284 108.453C12.7986 108.975 12.7952 109.499 12.818 110.022C12.4802 110.038 12.2614 110.058 12.0411 110.058C8.29778 110.058 4.55299 110.047 0.809692 110.071C0.205406 110.071 -0.00148033 109.923 0.00149645 109.284C0.0223339 103.078 0.0223339 96.8713 0.00149645 90.6648C0.00149645 90.0963 0.150335 89.8618 0.745691 89.89C1.62831 89.93 2.51687 89.9003 3.51856 89.9003Z" fill="white"/>
<path d="M66.0026 86.0156C66.5354 84.6114 67.0117 83.3438 67.491 82.0866C69.5077 76.8291 71.5334 71.5745 73.5264 66.3111C73.7333 65.7649 73.9848 65.5036 74.5935 65.5689C75.162 65.6192 75.7338 65.6192 76.3022 65.5689C76.8604 65.5229 77.1327 65.7174 77.3366 66.2532C79.7637 72.5943 82.2047 78.9304 84.6595 85.2616C84.7369 85.4619 84.786 85.6727 84.8902 86.0201C83.7203 86.0201 82.6428 86.0408 81.5681 85.9948C81.4193 85.9948 81.2496 85.6579 81.1722 85.4486C80.5962 83.8989 80.0247 82.3463 79.4903 80.7818C79.3415 80.3365 79.1153 80.1777 78.6375 80.1881C76.5314 80.2133 74.4239 80.2208 72.3178 80.1881C71.7507 80.1792 71.4843 80.3588 71.3072 80.8917C70.8101 82.3909 70.246 83.8603 69.7369 85.364C69.5717 85.8508 69.3395 86.0794 68.7829 86.0438C67.9241 85.9755 67.0593 86.0156 66.0026 86.0156ZM78.3562 77.6098L75.5059 69.7117L75.3109 69.7399L72.4919 77.6069L78.3562 77.6098Z" fill="white"/>
<path d="M18.2045 65.8618C19.3773 65.8618 20.4371 65.8366 21.4879 65.8885C21.656 65.8974 21.8734 66.2314 21.9552 66.4555C23.3811 70.4053 24.7832 74.3626 26.2031 78.3168C26.6853 79.6631 27.178 81.0035 27.7317 82.5279C28.2213 81.1831 28.6589 80.0045 29.0846 78.8081C30.5551 74.7144 32.0316 70.6235 33.4754 66.5208C33.6555 66.0087 33.8921 65.8202 34.4294 65.8455C35.2897 65.887 36.1545 65.8559 37.1815 65.8559C36.851 66.7687 36.5742 67.5688 36.272 68.3584C34.0762 74.1048 31.8813 79.8516 29.6874 85.599C29.4969 86.0992 29.2245 86.3025 28.7006 86.2506C28.3568 86.2165 28.007 86.2506 27.6587 86.2387C25.6226 86.1912 26.1614 86.586 25.4336 84.7173C23.14 78.8185 20.8821 72.9109 18.6048 67.0062C18.4813 66.6678 18.3682 66.3249 18.2045 65.8618Z" fill="white"/>
<path d="M48.3562 65.9043H64.7448C64.7448 66.6287 64.791 67.3174 64.7136 67.9928C64.6928 68.1709 64.2939 68.4381 64.0617 68.4381C62.4751 68.4766 60.8869 68.4573 59.2988 68.4588C58.2748 68.4588 58.2733 68.4588 58.2733 69.4652C58.2733 74.6841 58.2733 79.9045 58.3046 85.1234C58.3046 85.8463 58.1081 86.0823 57.3907 86.0333C56.5572 85.9754 55.7148 86.02 54.8262 86.02C54.8039 85.6222 54.7682 85.306 54.7697 84.9899C54.7801 79.7947 54.7816 74.5995 54.8218 69.4044C54.8218 68.683 54.6729 68.4024 53.8796 68.4336C52.2945 68.4974 50.7049 68.4336 49.1168 68.4618C48.5438 68.4707 48.3026 68.2867 48.3443 67.6944C48.386 67.1022 48.3562 66.5203 48.3562 65.9043Z" fill="white"/>
<path d="M44.3718 65.86V86.0098C43.3166 86.0098 42.3074 86.0232 41.2998 85.9935C41.1688 85.9935 40.9902 85.7901 40.9336 85.6432C40.8667 85.4695 40.9039 85.2543 40.9039 85.0495C40.9039 79.0132 40.9039 72.9818 40.9039 66.9554C40.9039 65.8555 40.9039 65.854 41.9696 65.8525C42.7361 65.8585 43.5041 65.86 44.3718 65.86Z" fill="white"/>
<path d="M21.8912 29.5546C21.9091 13.3293 35.2079 -0.00741858 51.3643 3.09603e-06C67.8988 0.00742477 81.2348 13.2106 81.2036 29.5605C81.1723 45.8585 68.009 59.0498 51.7334 59.0988C35.1677 59.1433 21.8793 45.909 21.8912 29.5546ZM47.3293 30.2968C47.2151 30.0979 47.0904 29.9051 46.9557 29.7193C42.3015 24.2273 36.281 21.4605 29.1739 20.843C28.656 20.7985 28.4402 20.9514 28.269 21.4368C27.4574 23.7241 27.0016 26.1218 26.9175 28.5467C26.7315 34.6325 28.4178 40.1557 32.3189 44.8625C38.3126 52.0927 46.1044 55.1727 55.3785 53.7685C63.8147 52.495 70.0496 47.7896 73.7557 40.129C77.1879 33.0339 77.0123 25.8185 73.6649 18.6536C73.0695 17.3682 72.3253 16.9452 70.9307 16.8902C63.4039 16.5934 56.9607 19.0024 51.6322 24.3119C49.9429 26.0144 48.5825 27.956 47.3308 30.3012L47.3293 30.2968ZM45.8796 20.6322C47.8222 20.6092 49.676 19.8176 51.0332 18.4314C52.3905 17.0453 53.14 15.1783 53.1169 13.241C53.0938 11.3038 52.3 9.455 50.9101 8.10144C49.5202 6.74788 47.648 6.0004 45.7055 6.02343C41.6868 6.06796 38.4645 9.40178 38.5002 13.4644C38.5344 17.4305 41.8714 20.6708 45.8796 20.6322Z" fill="white"/>
<path d="M51.9879 51.6758C52.1829 50.4987 52.4121 49.4122 52.5357 48.3138C53.1558 42.8059 52.0564 37.6602 49.2374 32.8767C49.1004 32.6436 49.1258 32.1998 49.2552 31.9445C52.7485 25.029 58.3136 20.8595 65.9833 19.5904C67.4851 19.3425 69.0389 19.4123 70.569 19.341C71.0914 19.3173 71.3906 19.5473 71.6332 20.0461C76.5806 30.2034 72.7034 42.9137 62.9202 48.6032C59.8792 50.3928 56.4594 51.4452 52.936 51.6758C52.6428 51.6921 52.3496 51.6758 51.9879 51.6758Z" fill="white"/>
<path d="M46.6089 51.1588C43.2928 50.3944 40.4202 49.0496 37.8959 47.0235C31.9275 42.235 29.0861 35.986 29.3689 28.3639C29.424 26.8959 29.8154 25.4413 30.0268 23.9777C30.0938 23.519 30.3245 23.4226 30.7397 23.4805C37.0192 24.3354 42.0664 27.3011 45.9109 32.3048C45.9985 32.4389 46.0569 32.5898 46.0826 32.7478C46.1082 32.9058 46.1004 33.0673 46.0597 33.2221C44.1129 38.9398 44.1754 44.6189 46.3127 50.2727C46.408 50.5206 46.4824 50.7759 46.6089 51.1588Z" fill="white"/>
<path d="M47.9262 35.7861C50.4133 40.7156 50.8717 45.8425 49.4413 51.1549C46.9736 46.2329 46.4685 41.1099 47.9262 35.7861Z" fill="white"/>
<path d="M40.7268 13.4523C40.6241 10.7359 42.8344 8.361 45.5537 8.2571C48.465 8.15319 50.7928 10.2609 50.9253 13.1213C51.0577 15.9816 48.8088 18.3164 45.8766 18.4099C43.1708 18.5049 40.8325 16.2502 40.7268 13.4523Z" fill="white"/>
</svg>
